<mxfile host="app.diagrams.net" modified="2023-11-13T12:32:40.491Z" agent="Mozilla/5.0 (X11; Linux x86_64) AppleWebKit/537.36 (KHTML, like Gecko) Chrome/117.0.0.0 Safari/537.36" etag="rObrwpgBLeHYiWTrJ1wu" version="22.1.0" type="device">
  <diagram name="Page-1" id="r5sxWOQFI8LZ1xORy4Yw">
    <mxGraphModel dx="2214" dy="811" grid="1" gridSize="10" guides="1" tooltips="1" connect="1" arrows="1" fold="1" page="1" pageScale="1" pageWidth="850" pageHeight="1100" math="0" shadow="0">
      <root>
        <mxCell id="0" />
        <mxCell id="1" parent="0" />
        <mxCell id="XwiI5Nu4jvqrMpeIoe5H-2" value="" style="shape=image;verticalLabelPosition=bottom;labelBackgroundColor=default;verticalAlign=top;aspect=fixed;imageAspect=0;image=https://cdn.freebiesupply.com/logos/large/2x/rabbitmq-logo-svg-vector.svg;" parent="1" vertex="1">
          <mxGeometry x="237.47" y="408" width="85.05" height="90" as="geometry" />
        </mxCell>
        <mxCell id="XwiI5Nu4jvqrMpeIoe5H-3" value="" style="shape=image;verticalLabelPosition=bottom;labelBackgroundColor=default;verticalAlign=top;aspect=fixed;imageAspect=0;image=https://miro.medium.com/v2/resize:fit:700/1*-uckV8DOh3l0bCvqZ73zYg.png;" parent="1" vertex="1">
          <mxGeometry x="430" y="393" width="233.33" height="100" as="geometry" />
        </mxCell>
        <mxCell id="XwiI5Nu4jvqrMpeIoe5H-6" value="" style="rounded=0;whiteSpace=wrap;html=1;" parent="1" vertex="1">
          <mxGeometry x="-240" y="480" width="360" height="320" as="geometry" />
        </mxCell>
        <mxCell id="XwiI5Nu4jvqrMpeIoe5H-7" value="&lt;font style=&quot;font-size: 48px;&quot;&gt;Data Sources&lt;/font&gt;" style="text;html=1;align=center;verticalAlign=middle;resizable=0;points=[];autosize=1;strokeColor=none;fillColor=none;" parent="1" vertex="1">
          <mxGeometry x="-215" y="408" width="310" height="70" as="geometry" />
        </mxCell>
        <mxCell id="XwiI5Nu4jvqrMpeIoe5H-9" value="&lt;font style=&quot;font-size: 36px;&quot;&gt;Sensor Box&lt;/font&gt;" style="rounded=0;whiteSpace=wrap;html=1;" parent="1" vertex="1">
          <mxGeometry x="-175" y="520" width="230" height="60" as="geometry" />
        </mxCell>
        <mxCell id="XwiI5Nu4jvqrMpeIoe5H-14" style="edgeStyle=orthogonalEdgeStyle;rounded=0;orthogonalLoop=1;jettySize=auto;html=1;exitX=0.5;exitY=0;exitDx=0;exitDy=0;entryX=0.5;entryY=1;entryDx=0;entryDy=0;" parent="1" source="XwiI5Nu4jvqrMpeIoe5H-10" target="XwiI5Nu4jvqrMpeIoe5H-9" edge="1">
          <mxGeometry relative="1" as="geometry" />
        </mxCell>
        <mxCell id="XwiI5Nu4jvqrMpeIoe5H-10" value="&lt;font style=&quot;font-size: 24px;&quot;&gt;Sensor&lt;/font&gt;" style="rounded=0;whiteSpace=wrap;html=1;" parent="1" vertex="1">
          <mxGeometry x="-230" y="700" width="105" height="60" as="geometry" />
        </mxCell>
        <mxCell id="XwiI5Nu4jvqrMpeIoe5H-15" style="edgeStyle=orthogonalEdgeStyle;rounded=0;orthogonalLoop=1;jettySize=auto;html=1;exitX=0.5;exitY=0;exitDx=0;exitDy=0;" parent="1" source="XwiI5Nu4jvqrMpeIoe5H-11" edge="1">
          <mxGeometry relative="1" as="geometry">
            <mxPoint x="-60.42105263157873" y="580" as="targetPoint" />
          </mxGeometry>
        </mxCell>
        <mxCell id="XwiI5Nu4jvqrMpeIoe5H-11" value="&lt;font style=&quot;font-size: 24px;&quot;&gt;Sensor&lt;/font&gt;" style="rounded=0;whiteSpace=wrap;html=1;" parent="1" vertex="1">
          <mxGeometry x="-112.5" y="700" width="105" height="60" as="geometry" />
        </mxCell>
        <mxCell id="XwiI5Nu4jvqrMpeIoe5H-16" style="edgeStyle=orthogonalEdgeStyle;rounded=0;orthogonalLoop=1;jettySize=auto;html=1;exitX=0.5;exitY=0;exitDx=0;exitDy=0;" parent="1" source="XwiI5Nu4jvqrMpeIoe5H-12" edge="1">
          <mxGeometry relative="1" as="geometry">
            <mxPoint x="-60" y="580" as="targetPoint" />
          </mxGeometry>
        </mxCell>
        <mxCell id="XwiI5Nu4jvqrMpeIoe5H-12" value="&lt;font style=&quot;font-size: 24px;&quot;&gt;Sensor&lt;/font&gt;" style="rounded=0;whiteSpace=wrap;html=1;" parent="1" vertex="1">
          <mxGeometry y="700" width="105" height="60" as="geometry" />
        </mxCell>
        <mxCell id="XwiI5Nu4jvqrMpeIoe5H-17" value="" style="rounded=0;whiteSpace=wrap;html=1;" parent="1" vertex="1">
          <mxGeometry x="200" y="520" width="160" height="110" as="geometry" />
        </mxCell>
        <mxCell id="XwiI5Nu4jvqrMpeIoe5H-20" value="" style="rounded=0;whiteSpace=wrap;html=1;" parent="1" vertex="1">
          <mxGeometry x="440" y="480" width="400" height="450" as="geometry" />
        </mxCell>
        <mxCell id="XwiI5Nu4jvqrMpeIoe5H-23" value="&lt;font style=&quot;font-size: 36px;&quot;&gt;Database&lt;/font&gt;" style="shape=cylinder3;whiteSpace=wrap;html=1;boundedLbl=1;backgroundOutline=1;size=15;" parent="1" vertex="1">
          <mxGeometry x="480" y="970" width="320" height="227" as="geometry" />
        </mxCell>
        <mxCell id="mg7U2W_XjqvAakRdbIDR-27" style="edgeStyle=orthogonalEdgeStyle;rounded=0;orthogonalLoop=1;jettySize=auto;html=1;exitX=0.25;exitY=1;exitDx=0;exitDy=0;entryX=0.25;entryY=0;entryDx=0;entryDy=0;" edge="1" parent="1" source="XwiI5Nu4jvqrMpeIoe5H-24" target="mg7U2W_XjqvAakRdbIDR-3">
          <mxGeometry relative="1" as="geometry" />
        </mxCell>
        <mxCell id="mg7U2W_XjqvAakRdbIDR-31" style="edgeStyle=orthogonalEdgeStyle;rounded=0;orthogonalLoop=1;jettySize=auto;html=1;exitX=0.75;exitY=1;exitDx=0;exitDy=0;entryX=0.5;entryY=0;entryDx=0;entryDy=0;" edge="1" parent="1" source="XwiI5Nu4jvqrMpeIoe5H-24" target="mg7U2W_XjqvAakRdbIDR-28">
          <mxGeometry relative="1" as="geometry" />
        </mxCell>
        <mxCell id="XwiI5Nu4jvqrMpeIoe5H-24" value="&lt;span style=&quot;font-size: 24px;&quot;&gt;Service&lt;/span&gt;" style="rounded=0;whiteSpace=wrap;html=1;" parent="1" vertex="1">
          <mxGeometry x="465" y="677" width="350" height="63" as="geometry" />
        </mxCell>
        <mxCell id="mg7U2W_XjqvAakRdbIDR-6" style="rounded=0;orthogonalLoop=1;jettySize=auto;html=1;exitX=0.5;exitY=1;exitDx=0;exitDy=0;entryX=0.729;entryY=0;entryDx=0;entryDy=0;entryPerimeter=0;" edge="1" parent="1">
          <mxGeometry relative="1" as="geometry">
            <mxPoint x="652.35" y="564.0699999999999" as="sourcePoint" />
            <mxPoint x="650.0000000000001" y="677" as="targetPoint" />
          </mxGeometry>
        </mxCell>
        <mxCell id="XwiI5Nu4jvqrMpeIoe5H-26" value="&lt;font style=&quot;font-size: 24px;&quot;&gt;&amp;nbsp;REST Controller&lt;/font&gt;" style="rounded=0;whiteSpace=wrap;html=1;" parent="1" vertex="1">
          <mxGeometry x="630" y="499.07" width="185" height="65" as="geometry" />
        </mxCell>
        <mxCell id="XwiI5Nu4jvqrMpeIoe5H-27" value="" style="rounded=0;whiteSpace=wrap;html=1;" parent="1" vertex="1">
          <mxGeometry x="960" y="480" width="160" height="150" as="geometry" />
        </mxCell>
        <mxCell id="-VPckBxZcLtFVedRlmlY-4" value="&lt;font style=&quot;font-size: 22px;&quot;&gt;Event Consumer&lt;/font&gt;" style="rounded=0;whiteSpace=wrap;html=1;" parent="1" vertex="1">
          <mxGeometry x="465" y="535" width="135" height="95" as="geometry" />
        </mxCell>
        <mxCell id="-VPckBxZcLtFVedRlmlY-5" value="" style="endArrow=classic;html=1;rounded=0;exitX=0.5;exitY=1;exitDx=0;exitDy=0;entryX=0.198;entryY=0.024;entryDx=0;entryDy=0;entryPerimeter=0;" parent="1" source="-VPckBxZcLtFVedRlmlY-4" target="XwiI5Nu4jvqrMpeIoe5H-24" edge="1">
          <mxGeometry width="50" height="50" relative="1" as="geometry">
            <mxPoint x="530" y="710" as="sourcePoint" />
            <mxPoint x="580" y="660" as="targetPoint" />
          </mxGeometry>
        </mxCell>
        <mxCell id="mg7U2W_XjqvAakRdbIDR-20" style="edgeStyle=orthogonalEdgeStyle;rounded=0;orthogonalLoop=1;jettySize=auto;html=1;exitX=0;exitY=0.5;exitDx=0;exitDy=0;entryX=1;entryY=0.5;entryDx=0;entryDy=0;" edge="1" parent="1" source="-VPckBxZcLtFVedRlmlY-8" target="XwiI5Nu4jvqrMpeIoe5H-26">
          <mxGeometry relative="1" as="geometry" />
        </mxCell>
        <mxCell id="-VPckBxZcLtFVedRlmlY-8" value="&lt;font style=&quot;font-size: 21px;&quot;&gt;UI&amp;nbsp;&lt;/font&gt;" style="rounded=0;whiteSpace=wrap;html=1;" parent="1" vertex="1">
          <mxGeometry x="978.66" y="550" width="120" height="60" as="geometry" />
        </mxCell>
        <mxCell id="-VPckBxZcLtFVedRlmlY-9" value="" style="shape=image;verticalLabelPosition=bottom;labelBackgroundColor=default;verticalAlign=top;aspect=fixed;imageAspect=0;image=https://upload.wikimedia.org/wikipedia/commons/thumb/1/1b/Svelte_Logo.svg/1702px-Svelte_Logo.svg.png;" parent="1" vertex="1">
          <mxGeometry x="1050" y="499.07" width="29.85" height="35.93" as="geometry" />
        </mxCell>
        <mxCell id="-VPckBxZcLtFVedRlmlY-10" value="" style="endArrow=classic;html=1;rounded=0;exitX=0.5;exitY=1;exitDx=0;exitDy=0;entryX=0.5;entryY=0;entryDx=0;entryDy=0;" parent="1" source="XwiI5Nu4jvqrMpeIoe5H-5" target="XwiI5Nu4jvqrMpeIoe5H-20" edge="1">
          <mxGeometry width="50" height="50" relative="1" as="geometry">
            <mxPoint x="900" y="430" as="sourcePoint" />
            <mxPoint x="950" y="380" as="targetPoint" />
            <Array as="points">
              <mxPoint x="884" y="460" />
              <mxPoint x="640" y="460" />
            </Array>
          </mxGeometry>
        </mxCell>
        <mxCell id="-VPckBxZcLtFVedRlmlY-11" value="" style="endArrow=classic;html=1;rounded=0;entryX=0.25;entryY=0;entryDx=0;entryDy=0;exitX=0.5;exitY=1;exitDx=0;exitDy=0;" parent="1" source="XwiI5Nu4jvqrMpeIoe5H-5" target="XwiI5Nu4jvqrMpeIoe5H-27" edge="1">
          <mxGeometry width="50" height="50" relative="1" as="geometry">
            <mxPoint x="880" y="400" as="sourcePoint" />
            <mxPoint x="990" y="380" as="targetPoint" />
            <Array as="points">
              <mxPoint x="884" y="460" />
              <mxPoint x="1000" y="460" />
            </Array>
          </mxGeometry>
        </mxCell>
        <mxCell id="-VPckBxZcLtFVedRlmlY-12" value="&lt;font style=&quot;font-size: 48px;&quot;&gt;Backend&lt;/font&gt;" style="text;html=1;align=center;verticalAlign=middle;resizable=0;points=[];autosize=1;strokeColor=none;fillColor=none;" parent="1" vertex="1">
          <mxGeometry x="520" y="340" width="210" height="70" as="geometry" />
        </mxCell>
        <mxCell id="-VPckBxZcLtFVedRlmlY-13" value="&lt;font style=&quot;font-size: 36px;&quot;&gt;Frontend&lt;/font&gt;" style="text;html=1;align=center;verticalAlign=middle;resizable=0;points=[];autosize=1;strokeColor=none;fillColor=none;" parent="1" vertex="1">
          <mxGeometry x="950" y="408" width="170" height="60" as="geometry" />
        </mxCell>
        <mxCell id="-VPckBxZcLtFVedRlmlY-15" value="&lt;font style=&quot;font-size: 36px;&quot;&gt;Reverse proxy / load balancer&lt;/font&gt;" style="text;html=1;align=center;verticalAlign=middle;resizable=0;points=[];autosize=1;strokeColor=none;fillColor=none;" parent="1" vertex="1">
          <mxGeometry x="640" y="199.99" width="500" height="60" as="geometry" />
        </mxCell>
        <mxCell id="-VPckBxZcLtFVedRlmlY-14" value="" style="rounded=0;whiteSpace=wrap;html=1;" parent="1" vertex="1">
          <mxGeometry x="812.01" y="259.99" width="140" height="70" as="geometry" />
        </mxCell>
        <mxCell id="XwiI5Nu4jvqrMpeIoe5H-5" value="" style="shape=image;verticalLabelPosition=bottom;labelBackgroundColor=default;verticalAlign=top;aspect=fixed;imageAspect=0;image=https://www.nginx.com/wp-content/uploads/2018/08/NGINX-logo-rgb-large.png;" parent="1" vertex="1">
          <mxGeometry x="815" y="271.82" width="137.99" height="46.35" as="geometry" />
        </mxCell>
        <mxCell id="mg7U2W_XjqvAakRdbIDR-2" value="" style="shape=image;verticalLabelPosition=bottom;labelBackgroundColor=default;verticalAlign=top;aspect=fixed;imageAspect=0;image=data:image/png,iVBORw0KGgoAAAANSUhEUgAAAxgAAACMCAYAAAD/Yg+sAAAABGdBTUEAALGPC/xhBQAAACBjSFJNAAB6JgAAgIQAAPoAAACA6AAAdTAAAOpgAAA6mAAAF3CculE8AAAABmJLR0QA/wD/AP+gvaeTAAAAB3RJTUUH4QsQDSopEwTDHgAAgABJREFUeNrs/XeYXNd5oIm/N1TonHPuRs6ZRGJOYJTEJFKikgHZsmRjrVmvJ/hnPfPbcZjdsb3e8dhKHo9E0VSiJIpRzARJMCESuYFG7JxzxXvP/vFVAYUmQHZ3VXVVA/d9nnoaoeuGc+8558ufBqBpGhEygKWmad5u2/Zmy7LmapqWr5QygDGgFTik6/p7mqa9aVnWEdM0NV3XlaZpBINBlFI4ODg4ODg4ODg4OFydaHBewagBblVKbQHmZmdnlxQVFuZmZ2e5R8fGtIGBgfDo6Ni4bduDQA9wStO0j0zT/EDTtF3AcDAYTPX9ODg4ODg4ODg4ODikEMPQdXRdrwTuAr4G3ABUeT2enNraWvd1mzcZmzdvNlasWOGqqqrOzPB6C1GqOhQOLwyHwwtt2y63LCtHKaW73e6AYRg+wzCwLCvV9+bg4ODg4ODg4ODgMMMYhq57baU+o5TaqpRaj4apaRqappObl8u6tWu55557ueeee1l/7bVUlJeTn58PSul+vz9P2fZC27avVUpVKKUCmqYNaJrmV0rZLpfLUTQcHBwcHBwcHBwcriIMXdeXWLb9VeA2Q9e1LK+H/JxcdE2jq6uLffv309HWSnFREStXrWbuvHlcd/31rFmzhrKSEkZHR7XBwUFvIBCYA6zUdb1CKXXOsqx+t9ttA+i6jm3bqb7XpCEK2eU/Dg4ODg4ODg4ODlcLhoJ/D2zIz8kuuWbhfL56y2Y+e80qltTVgKbTcq6VM2fP0d/Xj8ftZv6CBeTk5FBUWMicuXNZsXIlBfn52vDwsNnT25tnWVaNbdsLNU3TNU3rAsY1TbuiFQzTNNEl1EwH3JqmmZqmWZqmOUnvDg4ODg4ODg4OVxWGpmn/XdO0ynXzmjy/f8eN3L1mBasba5lTUU5Rfh6jfj9nO7s4eeYMQ0NDVFSUU1JSSlZ2Nnn5+dTW1lJVVUVFRQVej8fo6+3N9fv9c2zbrlBK6aZp9hqGMWoYhnWlhEtFFApN1/VipVSjbdvLbNtea9v2RqXURqXUNUqpZUqpek3Xc0zTtHTDGNMN44pWtBwcHBwcHBwcHBwM4G8zMjI8961dof3xHTeSneFFxyY/y0tdWSlVxYW09Q1w/FwbbR0dDA4M0NDQQHlFBYZhoOs6paWlrFq9mnlz5jA4NMTAwIA+OjZWEylzG0CpdrdhDOuGYYdnoZLh9XoxTRMA0zQzlFIl4XC4Xim1WSl1F/BZ4AHDMO41TfMOwzBu0eB6YLWCGpQydV0f1DXNl52dbVmW5SgaDg4ODg4ODg4OVyQG8Bf5OTn6tQvmaNctbAIrDFYYZYVxaYryoiIqi4sY8fnY33KK1tZWUFBeVkZVdfX5A2maRklpKevWrkUDOjs76e7pKVBKLdI0LYimtSul+nRdx5hFlnyXy4WmaViWZYTD4Qxd11cqpb6klPrfNE170ND1aw1db3C53YWlpaXeyooKs6iwwHC5XJ5QOFRoWdZCDW2trutzlFIn/X5/r6ZpViSkygmhcnBwcHBwcHBwuKIwgP/DHwzp9SWFxvr5c8jIyERXNtgWGuDSdcoKCsjJymI8EOREWzstp06RkeFl7pw55OTkoOk6IMncmVlZ1Dc0UJCfz+joqHautTXDsqxGW6le0zRPAP6IwJ7qe58UEc9FFrBeKfV7lmV9SSl1vaZpTSXFxXlLFi9233TjjeYD99+vf/GLX9QeePABbcsdW7RNGzdoVZWVRiAQNPsHBrJDwWClUmqupmkdmqadtCzLUS4cHBwcHBwcHByuOAxd1263bTvLsu1sr8fDgppKMj1u8TDYNiibDI+b4rw8sjMzOdfTz+m2drp6ejANg+UrV+LxeM4fUNd18vPzozkZtLW16QMDA/mhUCjLsqxh27YP2rad1pK1x+PBNE0yMjK0cDjcaNv2nZZlfV4pdY/H41lSXVWVt2HDBuO+++7j7rvu4uabb+a6669n1apVNDXNoaGxkblz51BXW0tTUxMZGZn66dOnMoPBYL1SSjcMo1vX9TZd19Vs8eQ4ODg4ODg4ODg4TAbDNE2vUqq8d3S8rrV/UGsqK6IsP58Mjxtli5fBDofJzvBSWlCA2+3ibG8/B5qP09XVxdLFiykrK8Ptdl904NzcXMrLyzENg2PHjtE/MFAHuEzTfM/lco3oum6no3DtdrvRNE1XSmX7/f5FSqkHgW26rm8qLCjIX7Z8mXbXXXfyxS9+kc/d/wBr1q6lpraW3NxcDMM4fxzTdFFaVsbSpctoaGigo71da21tM/x+f62mabqu6++bpunXdV3NFm+Og4ODg4ODg4ODw6dhGIZ+RNf1EmXbDUOjY3n7z7Zpc8pLmFNehmaYYIcBhW3bZLhcNFWWMxII0dY/wNmOTs6cPsWq1aupqKj42MFzc3Opq6vjZMsJ2tpaGRsf9xiG4VZKHQBG060/hsftJhgMout6bqQa1J8ppT7vdrsrysvLXfd/7nN865vf4pFHv0BDQyOZmZmT6nNRXl7OylWreO+992iVkDFd1/UepdQZIOCESjk4ODg4ODg4OFwpGIahhzRNa1GKkGXbiwZGxrJaB4b0rAwvy+qqsdFASaiUpim8bhdN5SWMBUPsP32Wzq5udE2jorycsvLyj53A4/FQXV3NiZYWmpuP5yilCoD3TdPsVEpZ6aRguEwTl8tVbSv1Wcuy/kgpdU1eXm7OdZs263/+53/Ovffdx7z588nOzsYwjCk10fN4PGBZtLa20tHZmaeUKrBt+1XbtgcdBcPBwcHBwcHBweFKwbBtG03TR3Rd7wHClhWe0z4wlDM07tOyMrw0lpfiNo0LORlAcV4uOZkZjPkD7DtxknOtbZSWlrJwwQI8Xu9FgrdhGJSXV9Dd1cWJEyf0gcHBDNu2w5ZlnbZtuzvVAwAXytBquj4nHA7fZ1nWF4HVdbW1mXfeuYUvf+XL3Hb77ZSWleGOyTeZ0kAbBuVlZbS0tHDo8GF3OBzO1jTtfZfL1QaEHCXDwcHBwcHBwcHhSsAAsG0bXaMPaNY0rSQcDle09Q/mtQ0OMbeijOK8XDwuU3IybBtLKSoK8inIzOCD4yc5ceYctlJUlJfT2NiIHpOLAJL4nZWRyfj4OB8dOGCGQqE6oDkvL++gUso2DCNlVaW8Xi+ACVRblvVQ2LK+aJrm2rraWvMz993HV778FW68+ebzfTCmi67r5OXn09bayvHmZnr7+iygTyl1Euh1FAwHBwcHBwcHB4crAQPA0HXQQNe0MVvxoVKqPGxZDf3DI5nHu/q0ORVl1JQUgRYJl7IsDNMkMzub4twcjrS2s/vQEcLhMLfddltUaL+IsvJydF1nz+7d+sDAQJZlWQO2bbcrpdqUUikp2erxeBAPjlaulPpGOBz+glJqUW1NjfZH3/oWX/ryl1mydOnHQqGUkpyU6Cd67ZMJmfL7/LS3t3Pw0CHNtm2vUmqvUuqEpmlTCrlycHBwcHBwcHBwSEcMEIFZKYWylUIpn6ZpJwEjFLaW9g6NuLtHx7T87CwWVFVgWTYoBcrG6zIpKSzkVE8/J9s7GR4dITszg4aGBjKzsj52MrfbjaHr7N23TxsbG6tQSg0rpd5IlYJhmia6rjcppR4Lh8OPKKUaVq5YYWz/4z/mvs98huqamosqQ0XxjY9z5tQpTp48SVtrK8NDQ4AoLJf6/Vjy8/Lp7x/g9TfeMEKhUAHwbnFx8R6fzzfj9+/g4ODg4ODg4OCQaC6ShrO9XtymSTAc7tU0rUcpZYTC4YUd/YMef8iiICeHmtIiTF3DtsIYuk5mRgYZLoNz3X3sO36KwYEBrr32WiorKz92sqzMTHJycti9excdnZ3Z4XA44HK5jpqm2WcYhjVTYVLeSJ8LQ9Oqw+HwvZZlfVkp1bRu7Vr3lx57jM997nNUVFaeD4vy+XwcPHCA93bu5KWXX+aZZ5/lxRdf5I033uCdnTt57733+OCDDzhy5AinT53CNzZGYWEBZqQLeCwer5e+vj7efvttbXh42G3b9j6fz3cEGE3RO+Dg4ODg4ODg4OCQMC5KLBj1++UfDYP64uJ9Ld3d31NKVQ6Njt74yt4D+Zquk5+dyfzyYjymC9uy0LQw181v4p059byy/xAfHTzIiRMnmD9/Ptk5ORefzOWivrGBLXfcQWdnJ0ePNS+wbfsh27ZPAz2apiXdk+F2u1GgKaWyLcu6PWxZD5umubihvl770mOPcf8DD1AeKbk7NDhIT28Pzc3HefH559m7dy/Nx4/T3dMDgMs00NCwbBtbKXJz86itqWbN6tXcetutLF++gtq6OrKzsy+6hvz8fBobGmhvbyccDtcCdUAX4CRiODg4ODg4ODg4zGouGc+jaRoDfj+6rg9pmnZIKTV/3O9v7B4c0seDYRorKyjNy0HZFpqy8Hi9nO4b5lh7F6N+P/PnzaOxqZHCwsKPHds0TWprajlw8CCHDh3KU0oVAa8UFBR0BgKBpCoY0fAlpVSmUmpDOBz+OnBDdVWV9u0/+RPuve8+qqqrUUoxNjbGW2++wQ++/33+6Z/+iXd27hSFIBQkNyuTxspy5tVUUVdeSmFONpqyCYaC9PX38dGBg7z8yqsM9vdTXlZGVXU1uq6fv47BwUGOHDnCseZm/H5/t6ZpzcDRlL4JDg4ODg4ODg4ODgngkqWRLNvGNE0ycnICvuHhYyj1d7Zt+3qHhj/323c/pCQ3G3PTNSyoLMHyj6OhkZuVSXFeLh0Dg3R1dTEyNHzpE5omVTXVrL/2Wj7av5+jzc3FmqbdOzw8PKRpWkuybzgcDqNpWoVS6k+ADQ319Tz80EPcedddVFVXA9Db28v3v/vPPPf88xw+cpTx8XFKCvJZ0VjPqoZallSXUVdciNftBg1CoRADI6McbOvmw1Nn2X3iFKfaO/j1b55mdHSUwcFBttx113kFJysri5qaGtwuF0CJUqo0NY/fwcHBwcHBwcHBIbFctvZqOBgkMDKCrmkB0+3eGQwGcy3bzu4eHLr+F2+958nN8FKUvZ6CDA9oOtleD/lZGSil6O/vZ3x8/PInNV3cfMvNtLS0cLS5Oce27c8C7yulWqJCeLLyMUzTbLRt+zGl1JqC/Pys66+/nkceffS8l+Ho0SP827/9G7/8xS850dJCYXYWN65bxc3LFjK3uoraonwqcjLJ9bjRI+kVSkHQsphXW8vaBfPYd/osL+3ax44Dh3nplVdwu91UVFaweMlSvF4vWVlZVFVVYYqCURD5ODg4ODg4ODg4OMx6PrHkkWVZWJaFrmshwzS6UAzbSi3qHR7JD4bCZkleDo0VZbjdbtr7hzh4ppVj7R1UlFewZu1aGhsbL3vs0rIyRoaH2blzpzE+Pl5q2/YRl8t1VCk1DiQ0VMrtdmMYBm632xMOh28G/sQw9PJbbr5Ff+yxx9i8eTOGaXLkyBF+/OMf8YPv/4COzg5qiwvZsnYlX7xpM59ds5QFlaUUZHoxNYUVDsvHsrBsGzSN/EwvDaVFzKsooyg/j47+QU61tdHZ3Q1KsXjxYvLz87Ftm97eXl559VUGBgbCwEHgtVS/DA4ODg4ODg4ODg7xMqnucUopNFvrNw3jTaXrlcFQ6PffP35yfm5WJqsba/B6vWR43WR73aBgZHSUQCDwqcddsGABd23Zws9+8QuGhodvsm27WdO0XyqlSGTzvaiyEgqFVtq2fathGHWVlZXmo1/4AnfdfTe2bTM0OMh3v/tdfvL44wT8PhbW1fKN229gy6pllOTloIcCBMZGuWQetlJg2VhWGCvoJ8t0c/2SBSjbBhQv7fmIJ558kuuvv57S0lK8GRkUFRdHk78zIh8HBwcHBwcHBweHWY8+mV8KhcJomobX4+lW8AvgLX8g0Nvc2s6bh1sY8AfJ8maQ7XEDinGfj2Aw+KnHnTtvHg889BC5ubkasNGyrA1KKfNnP/tZQm8yHA4TDocJhUK3KaU+m52dbXzpscdYtXIlAH19ffzlf/k/+e3TTzM2Ns7ypkb+9kv3c/+1qyjNzsAI+cC2mHSRJytMhh3i+sXzuXX1CpqqKhkdHeVXv/oVhw4exOVyUVJSQnZ2FoZheAAv4HTZc3BwcHBwcHBwmPVMyoMB4A8ECASDNtCladoOpdSCoXHfpkNtndwYCJHhdpPlcaMU+Hx+QqHQpx4zIzOTBQsWsHLFCgYHB70jo6OLdF1f/cgjj+zTNO3TXSCTuUHTRNM0F7AkFAqtcrvdhXPnzOGOO+6gsamJrq5OnvvtMzz77LOcPnuWjQvn8Sd338y18+aQaeqEggGUbUkX80milA2WIi8zm5sWz+NUWzv/8soOXn71VW69/XbWrFtHRmYmHo8HXddNy7IWAV+LfF3ngrKhARYQAgKAPzIuY8AwMAQMaZo2CgRs207EkDlcJWzdtj36x0KgCihB3repxCdqSKhlF3AGeTfVD3/wD6m+PQcHBwcHB4cUMWkFA0AXIdsGmi2l2oKWRffwCIFgiDyPSWbEg+H3+wmGw5M6Zm5eHnfdeSenTp/mwMGDcy3LugdoRgTquIkI3RnAXcDC8rIybr7pJubMnYthGOzZtZsfP/5jzp5rZUF1JQ9tWse9a5ajlCIY8IOyp6RcXEARDgZYUF7MpgVN/GLnh7S1tXH2zBls28YwdFwuF4auE4IlwLcQ5SLWq6QjAl8Q8APjSikfMAIMAv3AgFKqG+hBlI0RIsqHaZojoVBIZWdnMzrq9PFLNjECu4Y8OyPyUyHzJvpJNwG8CbgNWBpzjZNFA1zAe8DTwGnknXVwcHBwcJgWl9hPox+Ni/dTGyDN9lQHpqhg2BcSry3AtmxFIBTCtsJ4DQ+ZbhcAPv/kPBgA2VlZbLnzTl565RUOHDxYb9v2zZqm/YtSasA0TcKTVFQuRTSPQ9O0bKXUTUBjU1MT9957L3l5eZw43szrr7/OO+++h8c0eOz69Xz22tUoTUMF/cB0lQtBhUNkeDOoLitlfm0Nw+PjnDhxgmNHjpBfWIiGhgJM0yzIzs7O13U92vn7/EmVgFIK27ZRtq3syJ9t21aRn+O2bXcrpc4opU4iCtrRUCh0AugfGxvzGYYRVEoFbdtWM9HQ8EolsuhpyNyJfozITw1RZrMBNxL6Fp1jQURpHgXGt27bHkbmkQWEYz6pUEAagVuBjVxQiKaCgSgZO4GzOAqGwywmRrC5iE+bk5f73mS/nw73MJXjzbRA90njO5lriff7qSKesZ8gpKupfn8G709H9pDY/TRqpMsBMpH91B25l/NRHUgkR2jrtu02H99PzwuQ6XTPMfd9Ecm6xkSvB5NlSgpGDDpIlVZN00Ap3KZOpssFCvwBP+FJKhiGaVJeWcmK5cvZtWuXfubs2QpN09aZpjmklOqP+wZNM9u27aVKqar8vDxz8eJFLF2+HK/Xy4svvshvn30Gr8vF7WtWsHHZEsrzc7EDPmQuxpsWIfM5NzOTORVlHGw5RWtrK2fOnCEnL+98MvySxYu1hx98UCsqLpbeGNqF+reBYFDz+fz4fOOMDA8zPDLC8PAwQ4OD9A8MMDg0SP/AQM7Q0HBmIBCoVEqtQibeGNALHAH2A7uVUvsRAdeJpZoGMZM0AxHKG4BaoBqoBPKBPCAX8CALZtQjZXNBwRhBFsUOoBM4B7QAp4A+RBmZSfyAj4970KaCjSz6Dg6zlgkCWdRoEJ7wf5+GxsVW1lTeQ3Q+qynew+Xuy+CCYSRVRK8jGkI81fuKbuw2UzempBIzcr1qivcbXdejBqx0pAjxpDcg+2kNUIbspflcMNpFPRgK2W98SDTHCLJ3tgJtiCf9OLK3Tt9KnQSSOD8nQ3TsZuQ9mK6CYQC6pmu4TRNN13EZBh6XiULh8/sJTFLBAMmTWHfNOnbv2cOZs2fzbdveopQ6goQATZuI5b9EKbUJyKuvq2PRwkW4TJPmo0fZuXMnx4+foL6shEc3rmFJZSmabUlYVIJQKLxuF+X5ubhMg4HBQQYGBrBt+3zY0py5c3nkC4+SlZWNrusXqTVhy4omqBMIBM5//H4/Pp8Pf8BPf1+/du7cOfP0qVPmudZzmZ0dnXR1d9PX39+glGpSSq21LOt2oNkwjP26ru9RSrUgkzIuL9GVTmTCe5CFb07kE1UsipAFMA+xsngjv/tJ8yoqiAeQ8R9FlI1+RCE8CRzbum37McQTNUryPRoXWXqmyYwtWg4OScYNrAY2IILOVMN1o6GtLwB7iKyzM0FkvTIQA8jnEeEsUYpOVOnaBbyzddv2MzDjlmE3Esp5HVDH9EKpowrKfuBN4NzWbdvtdLJwxwiaLmAZcB9ixZ/OOutCjEgfAW8gRq1U31sB8o7OifxsRBSLfGQ/zQOykP00qlhcCoXsXUFgHNlLoyHknUhe4Eng+NZt25uB9ugXU/G8Y7w1BcD9wAIiEUEzdAlRw4cfiaQYR2SPrsh4tUbGLyHzYToKhoYIUi5D0/C6XRiahts0yHCZaEqqSH1So72PHVDTWLlyJWvXruGll1/O8vl8m5RSTwEfxdN4LxIGVKKU2gjkLF68mNWrV+MPBHjllVc4cOAgmW43a+Y2cs28Rooy3ASC/rgH9eJrAJeuk+1xY+gawWCQQCCAUup8GFlxcTENjU3o+vSMx6FgkP7+fs6eOcOZs2dob2vnXOs5Tp48pZ87d664s7OzuL+/f/HY+Pj1lmUdtCxrt6Zpu3Rd369p2mmXyzWolAo7isZFIVAuxIJSh1hWlgILgXnIQuhhei4uPfJdD6KcTKQbsbwcjHyagVNbt23vILkJ1E4VMwcHwQ2sBB4BljN1IdZABJ4u4BgzqGBEyAeuAbYha1iYxFjqo4L5m4iR5GyCjjsV3EjO4sPAGkRQmu597EGE9v81zePMBIuQ9/CrkWudjtfFhQjeLwKHmGEFY4LnvyryWQisQATsuUAx8mynSnSvdiEKSUnM/9mIge4kcBTZTw8jkQJntm7bPkRq8jd0ZI5+FglNDjBz8yiqYAQReSIa6dKBKF+nEKXsXETm6AWC0x2fKSkYEYFdQ9xVGYauk+l2o2sauqGT7XHhNnTGAkHGRkbw+3x4vN5oXsEnUlJaxpKlS2morzObj5+oC4VCc1wuV6Ft21P2YkTPF7neUmCxYRgZS5ctY/mKFfT09vDSyy9z4uRJFldXcO+6VWRkZBK2LbDjy7u4zAWhS0AZuiZ5Fsq2UUphmibZWVmTGqPL4XK7KS0ro7SsjDXr1gIafr+f9tZWdu/axa5du9izdy+Hjx7NGB0dXeP3+9aGw1anUupNpdTzmqZ9aBjGOdM0fUopS9O0q8qrMcFl6UYmfyOwCbgF2chyudCYMpnCeCmySK5HFp4DSBPG15HNoX/rtu1BIqEB6WR1c3C4QtC4EPMdzbOaKjqfbHlNJrVIPlVB5BqmI7h9EmsRa/ivgfDWbdtnch2K5rl5kfU4K45jRdfYF4Gz6eLFmJDndzsXPFHxvEteZA+bbtTKdO4heh8ZSKXCucDNkc8CxEsR+3uJRo/c8/LI57OIEP0G8BKwFxGsx7du224xc7mP0WcbfYczZ+Kkl6Ag8nN+5Gc07OwcsBvYEfm0bt223U9ECZ/KGE33ZcsFMk1dJzfDixkRnt1uN9mZmQyM+wlFLPUer3fSB60oK2fFsuWcOXNWD4VCq2zb3gW8Nd3R0zStVCk11zTN3PraWq2hoR7DMDjR3MzRo0fx+3zMryzltsVzyNTBssIJVy40pJJVIBTGVoqs7Cy8Xi9jY2PYtk1OdjY50nAvvvOcv2756fV6qauvp7S8nJtuuYXu7m7279vHK6+8rL39zjucOnOmJBwK36mUus4wjN1KqWeUUi8AHUqpsMvlmnSi/mxmQsxjJmK5/AyysJdzQdCYSUEhGsOdgSyMcyPX9A7wW6RiU3fs9afDxujgcIWgEMEzXivLjIU+TFjHahEPhidJpytAPLtFSPXCmQyNTNSziTIH8Q78ELHapnQtnRAadQ2iBFUl4NA2EkKU9NyZCcpFJnAjItxvRN6ZaD7FTHnNo+fxICGPnwPuQELkngGeR/I2QjP0/NMlnFi7xN89QD3i+bwO8WjsiIzRu0QMCjA5mWO6IVKiYBgGBVkZuAwdNLHGZ2ZkoAF+vx+/z0duXt6kD1xTW8vmzZv53csva6NjY6ts217MNBSMmFCjKsuymkzDMBvq6yktLaOjo4NXX32Vvv5+6spKWdrUSH5eLioYiHTeTjCaRtCyGBj3YVkWBQUFZHi9dHZ2EgqFyMvLI28KYzT502qYLhc5Lhc5OTkUFBRQXl7OgoUL2XLnXezetct44/XXc/YfOJDj8/s3W5ZVp2naRsMwnjEMY0ek9O3VggdYhSgVGxGBvooZsvZM4to8SI5HAbAYmegvIhPf7ygXDg4JZ7YlAEdxIQLCPJK7flUgIS5vIYLrTJLI51KGCJw7EOt2Sivg/fAH/xAV0L3Ao0geUCKICrUz9U4XIsa6OxCP10LEO59qTC7O8agENgO/Qzwbp2foOtJ5bTEReSMbUQirkRDxN4BnkZCzSRWima6CkQNkuAyd/KgHQ4GuG3jdbnRdJxAI4PP5UEpNOvyntLSUFStXUlJSovX19zcqpeZomuYFApqmqcmUVtV1HaVUNNRlIbDE5XJpS5cto7qqita2Nt54Ywejo6NsXrWUVU312GhoypaEiSR4MHzBEB0DQwTDFpUVFeTk5HCipYVgIEB5aSmFhYUJPeelMEyTwqIiCouKWL58OatWrWLevHm8+9577Nq9K6+lpWXp8PBIk2VZZUqpMl3X33C73ccRl5maTGf22UKMhUVHvBTrkD4ptyHWv3TERDbDMkSAqEHiVt/bum17G5E4cUfZcHBIGLMtL0njQjGKeEKHJkMVIpjtZuYVjETiQsbrTsQrfCCVFxPZm3IQxeIG0kMon8q1g4zndYhycTNiGEvHuZSLJNAvRvb9KuCVrdu2H8JpGAsXQsZrEbljHiJ3PA/s3rptex+fMkbTDfvIAjJMQycvw4sZKVVrGAaeSE5GVMGYCrphUFFZyfx588jJzvZGbqyGC7HvHx8BTYt+DMMwMoEi27Zrbdteb9v2TcASb4ZXX3fNOiqrKunu7uZIczOWZbG8ppIlFSVgWaJOJjr3AhmX4dFRTnV24w+FqKmpITsnh0OHDuHz+ykrL6esdGbXEN0waGxq4ktf+Qp/9Zd/ybf+8Jts2riR0tLSTJfLdZtS6s8sy/5mJEwtzzAM3e1OdBhvaoiJb/UiC+GDwF8AXyR9lYuJlCNVRf5P4EvIApkJaDNQ5s7BwSE90RCr8aIZOFc5EsKTDTNSXjOZuJGk8RsBc+u27SlZR2PO2QR8DRnjtGfrtu1s3bZdR96FhUjI2f+B7K2FpKdyEYuBKHR/ErnuzYhiZ87y9zqReJDIjj8Gvo0ojoWA/kljNB0FIxob7jZ0nSyPGyPSG850ucjOyMAwDEZGRhgaGhKvwBRwezw0NjSQm5MDojUtRqwMcvILCgWapmm6rmuappnIC7EZ6Yj9/wI/AB7WNPILCgq0+QsWYoUtTp5oYXx0hPKCfOZUllOWlw3h0JSvc1IYJoFQiI6eXo6dOUcoHKa4pAQF7N27F9/4OHX19dTV16dkBhqGQWFxMQ8/8gh/9Vd/zf/+7W+zYMECzePxVNq29UWl1N8ppW63LKvItm08bjeeWaxoxEyEaBnK/wj8J+QdS1a8crIwEYXoTyL3cEP0HpxF0cHh6mGCR3YZIuQlm2gvoGoSn0Q+0+iI9XoTkvNgQMrW0XxESbwp8ue0JaJYRP+ai8hff4dUL2tK9fVNgwLE6/L/AF8gYnCccJ8OImv878gYFcHl58p0YzTdgKlHytNGQ6C8Hi/lBfl4XCadnZ2cPXuWNevWTUmL8bjdNDU1kZubC+3tJUqpecCrl/n1KqXUMl3XF1uWtdKyrAagVNO04qysrKxgMGjouk55WRlZWVkcO3qUvXv3oGswr7qKsqIiDMMkHJxOKe1PR3e5aO7oYd+ZNsLKZsH8+VRXVTE4NMThI0ewLIv58+czZ968JHhPJnmNuk5WVhYLFi6ksLCQFatW8fiPf2T87ncv5XT39Ky0bfvbGlS4XK5nlVInUnKRiaUAWQi/EvlZnOoLmibRShS5yITPRCb7i0jipYODw9WDjsz/eUh+xEyQjeSunUKSZGc7NyAlXHeRuuZsm5Hci8QnZiaPaiTE7MuIght/1ZrUoCP7aBPwdcTA/UuknHFKc3PSDDdilP1K5O+/5TK5K9NVMPxAKGTZDPkChG2x/ud4PSyuLucNj4fTZ87Q3NzMZPImYsnMyuLaDRv45a9/zeGjR/OICZHSNM2DCIQ1iPVksVJqqW3b85RSdXm5ud6GhgbmzZtHKBRiz969DA0OUlVZhcft5viJExw+fARTN1hQXUFRbk7yUvk1HVM3OHiunXeOteB2e7hzyxZKiovZu28fI6OjVJSXU1NTg8eTeuO5x+OhpraW6poa3C6T3Nw8XnrpJe/pM2fWhkIhE03LME3zV0CL1+sN+/3pWjb848Ro16VIbOhjyGaSO81DphuFiPXNgyTyvbp12/bOqzx+1MHhasKLJGImouLQZMlE1p13uTIUjBJEwL8eeBvpoZB0YpqvlSH70kY+ISw8HYhcs4koF/ciIWbrSf9wqMlgIKVbH0DmFcDBrdu2+5w99TwZiJLxGJKD9fTWbdt7mZCTMZ0QKRupttA7HgjS3NHNeCiMUop8r4s1DdUUZGfS2t7OsePHGR8bm9LB3W43jY2NFBQUgGjCtYgyMVcptUEpdb9S6o+VUv9FKfWnSql7bNueD3iLiorYvHEjX/vqV9m0YQOFBQVkZWXR2NCAx+ulvaODs63ncBk6C8pLKMryYlvJqBylo3SDwbEx9rWc4qNTZ8nOzuaOLVsYGRnhrR07cLvdrF2zhoqKmTI2TfLSNY3rb7iRb33rW3z+4YdpqK/XXC7XKsuyvmxZ1iNKqWpd103vFMoPp5KYnIscxO28DUnovlKUiyjZyOa4DUlWz01VLLGDg8OMk4XM/5mM2/cioaZVcMWEktQBv0dMeEwymRC2uwXJBcggjQX1GIWoHKnAtS1y3Wl7zdOkEXgIyYdZALiugPc7kbiRHmEPI7LVx0K0p+TBiJR/tTX4yLLt04PjvhXvt5zmztXLqC3IIdttsqiqnLqyEg6fa6flxAk+2rePNevWkZF5+V4iSils20bTNIaGhnjztdfo7OwEsZBcA/w94NU0rZgLzYM8sdevlGJ8fJx9+/fT2dVJR2cnp06doqamhqXLlpGZmUlbWxs9PT1UFOSzsLKE4kwPtpXgXg9KoRs6fs3k9cPHeP9YCyGlmDNnDjW1tfz26ad5/oUX8Ho83HDjDdTV1SXn0cfJvPnz+frv/z5VlZX803e/y0cHDswLh8Nfcrlcmm3bP1ZKtUTzMQJpWmEq5kX3IrGVX0MsRGltHYoDkwsLvQk8CfhSXdvdwcEhOcSscVnAtcxs1SGTC9EEeUi36NlONIR2JWJIHZyh8xYhDfWuTfUAXI4JwnUlUmjkD5id+RaTpQzxZAD8K/CB03vqY9wE+JAu6ceIKWE7JQUjop5amqbtBY6N+HzsaW7hTGcnc0oK8HrcZGVns6yxgQOnW2lta+O1115l7oIFl1UwwuEwXZ2dfPDB++zZu5fjx0/QcuIEzcePgwiCxUCux+MxM7xe0+v1ai6XidvlRtM1bMsmGAoRCAQYHR1l1+7duN1uLNtmdHSUFStXsnLVKkLBIEPDsv7VlpVQlp+HxzQS27FaKTTDRDNcjIyM8uQb7/DOoaMsXrqMb/3hHzI00M/evXsZHBpi5YoVXHPtesrTzIMRRdd1KioquOe++7CV4oknntDeeffd6lAo9KhhGKMu03xKST3kdCcb0bK/iizervgOl/a4IvcbArqQOvXDqb4oBweHpGEiXoQmkl+e9lLnXoTkfnyY6oFIEAXIftGH5LQlm0ok1GR+vAeaIYqAWxHloo7UdKufKTQkBPk+RIgOIl3s06FRXrqgI6X+vwX8Z0QxB6aoYFjSiE5pmjakadpRZdstvYND9e8fP23MqapkQXUFpmGxeUETu44288bhZl57/Q0e+vwjlJdf7Lm1whZtba3s3r2LDz/cxYcffsChQ4fo6OzCMAxKioupr63VCouKjKKioozSslKKi4rJzsnGNE1cpgtN07Bti3AoTDAUoquri7a2Nrq6uti7bx8AeXl5lJaVcaqlhe6ubrI8HmpKS6UhoKaBStR7okDXcXu8dA6P8ev39/BBcwuG28v6a69l8/XX84//+N/Z+e5OKisruf2226itrY1tCph2GKZJRWUl9953H0opAsGg66MDBxqDweDDSqlx0zSfBAY9Ho8dCCQnUX66xFhb5iIu72uRMKmrgUwkdOErSML37q3btluOxcXB4YqkFGl6l5+i8y9H8j+uFAXDheRBvA/s37pteydJ6IkQ2aNi4/3LUn3jn3KtIDLjbUh59EVc2cpFFB0pnHAPkm/QDXQ5e+pFlCHvxXPA61u3bR/54Q/+YXpJ3oZhoGna4XA4/HrYsh579dAxY1ljPfOryjFRrKmvYkFVOa/sP8ThI0c4duwotXV1ZGVlYds2AwMDnGxp4bVXX+VXv/4VHx04gGXZ5ObkMG/ePOY0NdHU2EhTYyONjY00NDZSWlZGXn4eHs/lY//HRkdpb2tj965d/P++8x1GRkbIzclBKcXBgwfp6OggK8NLRWE+psuV4FaKOrrLw6A/yFtHT/Ddl9+ie3iU66+/ns2bN3Py1Cl++dSvOHv2HHdu2cLnPve5pHTwTjSaplFVXc19n/kMuq7zd3//9/qpU6dWhy1rFKm48QIwbhgGlpV2hRbqkOoWDzL7ytDGSz6Sa3IE8WAc27ptuwLHtevgcIVRgyRbpyIxTkME5IVI6HLwCgjJjPZJugE4DjwBhJJ0X01IiMki0n+PciNVoh6JjM3Vxhzgs0jkxm+A/ivgXU8kxYis1UkklGxaCkakO/dBBa+EbfvBXcdOeA4smssdS+bh8bgpyMtjSVMji+pPcK63j2efeYbq6hrWrF3L0OAgv37qKX78+OPs2bsXy7JQCpYsWsSmTZu4/rrrWL9xIzk5Oei6jmGaGIaBYeho2icry1nZ2VTV1NDX14fH4yE7K4vioiIsy+LsmTP0DwyQ5fVQXpCLyzAS1KxdgaaD4cbWDJ7f9xHffeE1TrZ3UlpaykMPPURDYyN/9Vd/SVtbK4sWLOCWm29m8dKleGZJojRAVXU1d919Nz09Pfzoxz+m5eTJ6yzL0nVdP2KaZrNlWakq63cRE+JE70HKzSU7LEpFPnbMn2P/Dy4kwGkxH53kJsZ5EDe2H/gnJEY6CQ1fHBwcZpIJ61wVsJbUCag5SAfxGuAMqSvxmmg2AL3A75Bw04SEO0x4djci5V3TVrmIud58pMna5hk47cT9VMX8O1x6P439JIsFSDO+Y0j1tHQIlZooc3wa2oSfiSIL+AzwJvABTLNMrS2hUuO6ph0H9lmWtXbXybOZbx47yS0rFuPSDVbVV3Pdwjn86LVO3n73PW7fsoXCwgKefPJJfv3r33D4yBE0TWPJ4sXcuWULGzZupKmpiaKiIvLy86cdOjQ2OsrBgwcZHRujoKCAkpISlLLp6ulmZHSU8kwPlfl5uAwDFa+spRSa4cL0eAiELR7f8R7/9sZOPjjSjDczk7/4zneYN28ezz33HO/sfJdw2OL+Bx7gkUcfTYvStFOlvKKCR7/wBdrb2xn9zW+0ru7uRZqm/YllWf8NmXDpggvpNHk7suklc8FRSDnDU0ArEn/YE/k3P1I/O5p0nY3E95YhVUqakPjO6ZaL/jR0pPTiWiSE4m2unM3fwcFBNvU6pFxostaRyVCF5H51cmWtMUuQUNN/QUJjEoWBrMvXIc8u3SswVSAVo65hZkLxeriwp7YBA8AYkluokPHLQIoLlCHvXz2y37tI3njqkXP8PvKevz8DY/FJ+IGRyNh82j3bMeOWReKrlWmIjLM6Mi4Hp+3BANB1vU0p9Wugdu/Jsw0v7TvIdYvm4NY15paXcO38Rp7ZtZ/W1laefvpp3n/vfZ5//nlaTp6ksqKCzZs3c/vtt3PttddSnaB+ECMjIxw7epTx8XGqKipEwbAVff39jI2Pk5mfQ3luNqamTblHR8wAgK5juj0EbI2Wzl5eP3CEx9/Yya5jJ6isruZrX/sa66+9lldeeYWf//zn+P1+ttxxB7fedlvaJnZ/Gi6Xi/qGBr742GOMjI7y81/8vMCy7Ds1TfvA5XL1GYbRCxBMUVWpGEtLARcWw2QsNGFkszkJtCBNZs4gVq5exFPgAwLIpI56KzIRa18hsihWI27XuUgllioS521RkWs4BOzF8V44OFxpaMjasYDUW8BrEIv/K4iwc6VQhYTF7EBCYsLxhMTE7FEZiLV3M2mqXMRcq4aEcD1K8po4BpD9sxlRLFqAs4ii0YMI0X5EwQDZTz2IQFuIhOdUIp60RmRe1JKchoVexHi5Hwk9HiIJOTqT5AxSyGU/sr9/0rukIuPmRmSkesTI2YQYIhPFOmA301Uw5FIVOvSGbft5TdPu6x4cbNjVfIITbR3Mr64iPyebJfW1rF84j5d27+M3v3ka0zAY9/moranhM/fdx0MPPcTaa6453wk8EQSCQbp7eggGgxQVFVFWVoatFP0Dg/jGfWS4XZRkZ2JoTFPB0NANA6Ub9AUsjrV18uLu/fxkx3t09fdTVV3Nw5//PF/fto2XX3qJf3vySY6fOMHSpUv5va99jZUrViTwOc48hmGwcdMmOrs6OXz4sH7w0KHSUCj8OU0Ld5qm+UwwGETX9aiXKxXkIorFRhI7aUAWtyFEoXgPeAeZSGci/zfpRSZm8a5BuuFuRKxZDYiFyB3HdY4jnpQDSJfNtyLXmHZJMg4ODnGxEomLTzXRRPMcoO8Kik33IDkmtyJGpeMJOGYGkhh/M7L+pztNSM7FWhIbbqyQfbMPiYB4H/Gy70XGOjTF/TRqQV+MFHXZhLyTZYhxL1EJ6Tryvt8Yue7nSZ3x7gySB/sbwJ7MeEXGyoMoYmuRd/s6RJlORAn/RcialBGXS9UCS9P1Dg3esyyrobV/qP4XH3zEHxQUkpObS2VREXevWsKHR45xpqcPl8tFY0MD//E//AduvuUWyisqEqpcAASDAfr6egmFQpSUlFBZWQnAwNAQKJsMt0lRdgampsQTMVkiuqEyTMKGi/FAkBf3HuInr7/NWwcOoekGNdU1fPvb3+bee+9lx5tv8t/+9m85cOAAS5cu5Zvf+AZr160jO+fKKGS0Yf0Gvva1r/EX3/mOOTAwcHs4HD4K7NQ0bYAUxCXGCOy1SOOf6gQeProQngZeAn6FWAxGEaE9Gis61WsFUQS6EAvZr4D7kcT0OUzN1asi12IhSs9PgaeRxTvEFa5cTBjTy8XhXhTHe4UIQFc1E6yssT9jOR+jfCU885h71pEQnoWpviZkrYp6ZLsRI8eVQhbSQ6kFOD7dPggTjErfRAS8tGTCenob0kwtkf2jFPKOnAJ+CTyLFCSxkAiB6cgQ0XDl3cA+xLi2CUlKX414ORIpcN6C7N2vkrp+UwZTeC4xzzWIKMsnEaXuTiS3pIr4FTEv8o7PmbaCYdk2hmEA+DV4Cmjq7B+of+a9XTy8bjkN1RUM+YPsPdvOWFC8WmvXruFP//RP2bB+A8XFxehG4vudBYMh+vr7CYWClFeUU1tXi2UrAuM+AAqzs8nPzMCYdIiUJHFrLjemy0XfqI89x47z3N4DvH3gCM3n2jBcbtatXs03/+iPWLxoEa+/9hp/+/d/z7Fjx1i8cCGPPPwwd99zD4VFRQm/31RRUVnJxk0b2bRhA2++9ZY2PDx8HfCQpmn/irgyU0EWstmuJbGdukeRReRniOeiFwkDmJZbdMJ3rK3btluIErAfUTh2IR1Eb0MsMpNhHLH8PId4VpoR1/KkrBqznR/+4B9iO8xGQ9E8kb8rZEEdR55benaGdIgHE3nu2Yj3T0OElQASXuEjPRIyE3m/lUiYQ7qUI8wG1iOC+KlUX0wCMRDB62ZEKPuA6b9LeYjXaRMSppLOGMj7tRrxYiSyJG078DJSoesYsqf6prtXxXxPIRW/QkiI1XNI34q7kVC3VQm8Bw+i4N+OhAaOJvDYkyUafj2dcQpv3bY9jHhBfovsi98mMf1YSoG18SWFiYBuodQBXdd3WbZ9fVtvf8n7J07pnswsdp86xyt7DzA0Ns7mzZvYtnUrt992OxmZic4tuUAwGKS3t49QKExRcQnFxSWcOn2acDiEqevkZmXhNqO3/ckKhmaYmKaJjUbfmI/DJ1t57+gJ3j54hF0tp+kZGKShvp5bb7mF22+/nTlz57Jjxw5+/PjjHDlyhNrqah588EE+d//9lJWXp3XPi+nQ2NjEl7/yFU6fPcOBAwcX2bZ9m6ZpzxmG0WoYhp2CsrWLEKtCfgKP2Y4sHj9Hqkb0J1pgjxxPIVaQs8hCFRWKbgbKL/PVqBXoBLATeCNyje3AFVmje4JlLQcRssqQcLgiJB43j4sFzah3ZxwJcesDBrdu296LWKA6gH4grvhqh+QS8+wN5JnXIDHhRciGVogoGSby3G1k0xxBBJiByDPvQISPQaYQhpFmeBBhqTIBx+pASlmXIXNqupa/bCSn4BWuLAUDRIi7CTiHGIKma7FehXTsLiVNcy9i8ABbItecKOHFBo4iYUW/QZS1hM/ByPHCW7dt70PW9lEkUXwIyRVKVM5SE1KadRepUzCm/R5FDHMWkkz/DKJMFhJ/eHkBsCy+EKlI4z2XaQZNTfsgpNTrgXD4/t/sOqAf7eyjtaeHE20dVFZV8cUvfIEHHnjgsh29E8XY6CgDg4MAZOfkoOk6vd3dhEIhMrweMjK8oEeMmh/TLzQ0XUPTdDRNY9xSDI34aB8Y4qOW07xy8Bg7Dx+jvbePwsJCNmxYz11b7uT2224jOzeXZ377W37yxBN8dOAADfX1PPTgg9x///3MX7AgqfecKvLy8rhjyxZ++8wznGw56R0bH1+k6/omy7JeRCZ10pkgcK5A4gkTFSfah1hZvgfsAQLJFkYiE74feA3Z9A1kkZ9opQwgisRHSNjWK4i784oUkmOaUmUhAmUFEmKwAFnk6xArYxEiZF5u0Q0gG00XIiy0IBa0g0Dn1m3bBxDB0yLBiXsxHpZixEo0OUvHxeiI4tmFCMnTft4xc8eLKLH1XFDIpoKOCPHtSBWhhCm3Exp85SJCcB3iqVyMJHNWR/79cl2sbWQudSPPvBkpfnAEOB1ROsaYXWGEmYgwX5WAY+1G8rW2IO9lxjSP40Ua7lXAhWd3Ba1HNcD1SHfvPcg8/FRi8gNykWe2hfhy7JLKhLK0tyFrbCIIIfPv58AvgMOQ3Pcjarzbum37CS4YlzKJ5Agk4BRFSP5kPbJ/pGL/jSv/IyJz2EjEw2+Q9fTOOK8pB2hKSFk7pRS6pr0PVARDoTte338gf8dHhwjbFgWFRWz/1re4/fY7yMjMivtcn8T42CidnR34/X6ys7PJyszE7/fT0dFBMBjE43bjcbulb8VFHk4togfqWJpBWNMJhS2a27t462gLrx44wgeHj+ILBEHTqKqs5PZbb+Gbf/THLF66lGOHD/PP/+N/8Kvf/IazreeY09jEo488wle/9jXqGxqSes+pxuVycdstt3CqpYW33nmnAnhMKXUQ6J/B5nsaMtEXIEnSiSCAhP79T2QDnunSi34k6c0bub8HEAE7jGxszVzIszjFBSv9FcMEi3XUar0SSa6LJsRnIAJu9PNpFh03Yj0sRjxeNvKsW5Hn/AbiDWoDxiPWHSBhG6GBVNn4a0RpnGqohYls0s8gvU0GE3BNxUhFm28hyvlUNywTEVCfROKp446/n5Bn4EY2vWuBO5DwkuLIeWOf/eXQkbGO9mvYhIz7KaRm+wuIJbWXNJ9DMeOShRSzKJ/+0c7zHvI+NSCC0nQFLx1Zh+cgcyyRZV3ThUXAHwL/CVFOP3FdmKAg3414QVJd8WsyZEfutYnENXDsAH6IhBqfTME99SDK4RjwH5BwvkSQi+xJHYjBarZiIYbNaxElOB4PWyZQlRAFw7Zt0PDrur4f1M9DYetzIazi4qIibrvlFm69/XZqamuTPjpDQ8P09PQCkJ+XR2ZGBqFgkOGhISzLwm2YuI3ILStA09B0E910oek6djjMmZ5+dracZe+ps+xtbuFUZxcDY2P4g0Ea6xu4+aabuO3221mydCkNjY28/dZbfP/732PHjrfo6Oxk5fIVPProIzzwwINUVScyzzg9cblc3H3PPRw5dpT3P/wgJxQKrwQaXS7XMcuyAjN0GQay2S5K0PHGEUHzV0heQxhmzhIXk08QQhKwKhCLSxMiyD2LeFZOIULRFem1iBBNHr0ZCX9bhrhw85neRh3b5DCKG7GElyPu87OIR+hZxNKdSKFTRzbv+sjPqSoY0euuJHFJlx5kTKsjf57ONQ0gQn8iE+uihoP7kK70y5DnnjeN82h8PCEyKghvRBSNJ5EQQyK/l64hLF5kLagkPm+tjXjCOhHh6zhioc+P45gG4klexJWpYBQhgukaRLkfnMR3dGR+3Y0Ib7OBUkSZT1TiaBuSD/FLZH2dUc9WzJ46hOyp/yvyX4lQMjKRPIz3mN0KhkKMbacRBbCe6a/nXqAkMQqGUpi6jqZpvbZtf2hZ9q1A8aJFi/ja175GQ2PjjOQfDA0O0tPVBUBuTg5er5dQKMTo6Ci2ZeF1m2RmZGBmZOJWNlhhBsf9nOzs43TvAKfa2jlyro2D5zo41dVD//AwGZmZzJu/gFUrV7Ju3TquXb+eOXPmMDQ0xC9+/nN+8Ytf8Nprr+Hz+7l+82YeePBB7rjjDmrr6q64nItLoWkaefn5LFq4iHlz53L0WHNuOBzeZNv2CSTsZCYwkIU7Ua7cDuDHwIdAMBXCe/ScW7dt9yML13cj9xe1srdM/N0richmEBX+bkWs/k0kp8mThghqhZFPLaJsLESqe70NtGzdtj2R70JUeJ3uIpHIhOVolaXotUznmmI7706bCb1sViKWtM3Is0hk4QYQxbI4cq5ob5oKRHnvIjUx1ZOhDImVjrckoYWs0W1IiFu0Ml48aMhzW4SsU1ciZcAXkX3inUn8fgESp7+SNPdexMy/EqQ0bX4CDmsje9iPiHR6T9WeunXbdoUohc8ha3xj5F7jEdbcSGhgA2BEvd6zaV+OkTdAjA2nkX1wugqGC8hOWOfPcNhC07QMpVQ14Kmrq+PGG29g8/XX43IlsnTy5RkZGaG/X0L/s7Ky8HjcWJZFIBDAVgqXaWID7UPjDI8OMzAwwKnObvacaeNQawcHTp2hd3AYj9dDUUEBS+rqWLRwIddt2sT1N9xAQ2MjwVCIQ4cO8frrr/PEE09w7NgxsrOzWb9+PV//+te5+eabKSkrm5H7TScWLFjAdZuv40TLSVc4HL7Jtu1dJFnBmBAusIjElKbtAl5HNseEJ3RPk1PATxBhqBMYTpPrSigxscouJLb8BiQhchNiJZopXIhAuwBJcKxFvBmHt27bPhLn2EcF8Xi8ItHqSImqvW4Tv8ISrYQ2bWLybEoQpeJBxHORvKoggoGsHfcjFtsg8r6la7hUJaJ4xxtDHkZyCU4jisUh4s+d0xChbQ5ixQxs3bY9VU3IkkUGYrF+BzgYabT2MYEyJueqCWlSV5fqC58kLiTfZC7xK0QK8bq/SKTrdSrfhZicjDbEkDAHCT+OZy5F82vmIHvFbC9wMIxERsSzJ2iAmRAFwzRNwuEwyIb8ZU3Tym684QbuvffeaCnbGUEBhmmSl5dHZWUlOTm5KKXO78KhcJiTnV386p332XPyDPtbTtLW00sgFEYTDww1NdUsmD+fNatWceutt7Fk2TJy83KxbRtbKd7asYN/+eEPeeW11xgeHqamupo777yTP/iDP2DevHlkZiU3zyRdWbhoETfcdBNP/uxnht/vX27b9jyXaJZhQCWx8Z4HsRxUcSFpNh4+Av6FxMS2J4owEoIyyBXajXtCh9smpJfJZxCLcsIMIVMk2sG2EilH+I/Ajkhpvyumr0KCiEsBiFEuC5Fykl9Byk3HfewpEM2P+S+IpTVZXYunOz5RKiNjE29sfBDxWpyL/L0T8YzG6y1yI8L0XKRiUFyKZxqiIWO/BRm7XyDlxmNDcaLUIXkXC0hcLkOyqUMs8onwtgSQnIvnU31Tl+ADxDh5M4lJ+F6E7BOnmd37dNzGosj92wnZuDVNw+12LwqFQjfpul5WV1NjbNiwgWXLl89omFBjYyOPPfYYGzdtorS0hAULF2JZ1vmg6zNd3Tz99nu86HIx4vMz6vPhcruprKxk/ty5LF++nLVr17J4yRKyc3IoKCggMzMTn2+cA/v385unn+aVV17l2LFjjIyKJ/nOu+7iL/7iLygqKsLtTtvCEEknIyODxsZGlixepO3evUcb9/nmKKUWaZp2kORaArOQ2OxE1IIfRKx4B0iTXgkT6lbP5kVrMmQjgtOfIoJePomN6Z8u0SS+YuDxyMfPlf88ZppapCnWI0g1o1TkQGQhwmA96SkQliCCe7z5LmEkNOo0kvQKIlTsRbpML47zOuuQsNWTXHkKRpSNyPi9ilQnsuFj4SZrkCZ9s6nDbh3y/OMV3gKIgrkXqTCXbliIt+ElJD+mOM7jzQXmpfqmEoCLC8VlposG6AlRMMLhMJqmrVFK3elxu9233norq1atwjRnJjQqSkFhIStWrWLhokWYpkl2Tg6t587hD/ixlcKyFSPBEJ6cXBY2NlFXX8/8+fOZN38+ZaWlVFdXU1FRQV5+PgA+3zj79+1lx5s7eHPHDt57/z2Gh4bJyckmPz+P9o4OOjs7OdnSQklJScK7ks82CgsLWLViJc3Nxxn3+eZYlrWSC905k0U0PCoR8dn7EKvGOAkuUepwaWKsfTlIgunvI+Exk20wOBNEqxCtQxbfDCRHZyBF3VuvGGKefz2SzP0oskmnKlZdj5w7XWPl5yPrXbx79zCy3sWGRIWQvLMbSIyCsQFJ6h2L81jpihsxiDyMhLAOwkXeuGVI/tjcVF/oFKlC5mC8CsYI4rk4Aenl7Y3xNHUj7+hK4lcwapHwQDcSGphW9zwFChDvbTwCrQUE4lqkTMmt0DRdzwkFAss0WFpUVMStt97K/PmJaAY4NQzDIDMzk8yYXhumaVJcXMyypUtZunQpdXV1VFVUUF9Xx/z582mcO5fS0tLzvx8Oh+nv66e9vY3Dhw7xxhuv89prr3Py9GkyMzK49tprufaadYTDFk/+9KfsePNNyktLmT9/PiUxx7kayc/L55prruHFl16iq7u7QSm1DCmlmkwykAU8EbFpu5A4UccyPQNMyLnYCHwZqb+drtURogJFLmKx/B2SEOcwDWJi1HORevuPkhjL6ZXMEsTDEC+DSMWswZh/CyMe3LMJOH4xEmpVyJWtiM8FHkIKQRyIKWudAdyDeD7TnglhXRWIsBzvPOxHvANtqb6/T2AE2fPPIgphPEK1lwuNP7tI3xyuj3GJ599EfB7SEDAcl4IRias3NdteDyzKyclh+bJlLF4qIUbpQG5eHps2bqKpsYmaujpq6+rQNA1N09AjeRdKKQKBAKFQkM6OTvbs2s0LL7zAa2+8TkdnJ263m/z8fK7btJGvfOWr3H3vvQwNDbF3/35efPFF3v/gAw4fOsTarKyrNgcjOtZr1q2jpLSUY83N5UjSUwbgj45zopgQs19LfEnAigu9JVJRn/uqI+b5uRCL7FYkyTbdiSZt/gdkc3om0qToShWgkkLM8/cgPU0eRDxEDhOY0EthAYkJHxtEDCpDMf9mI8mdpxHFuTjO8xQjCmPvhPNcSXiQZ3I7kid3JubfbkT2wNmChniSK4g/5DiACO3HmWRDwhQyioRFLyP+RPx8xBvbzyxSMCJoyJydQ/z9dfxAd3wKhjRRcyH16ZeUlJRw8003UVhQmOqBOk9GRgYNc+ZQU1+P2+2+ZEWr8bEx3tqxgzfffIMPP9zFiZYWBgcHGR4ZobioiI3r1/PZz32O1WvWUFsn/Ty8Xi/r1q7h8KGDdHR08Nvf/pa6+vorvrHeJ2EYBqVlZcxpauTggY8YHBou0TQt2rshWT0xCpDJEE88Xghx43bM7Ig5IAvynyKJkLMFN6Jk/AGyKP8m1Rc0S9GQkp/fQJQMh8vjQsJW6ok/fCuaf3ECEQQmJidHS4xfR3xWzFykAtxhrlwFA2QP2oqM2RlESPsm4m2aTehIAYFECHCdSO7F+fcr3Yh55y0kXPBa4lcwchCD54Hovc8iXEjVvkT0ahkDzsWlYBiGoVmWVYhoftX1DfXcevvtFBQUpHqgzqPrOh6PB4/n8mvyuM/H22+9xdNP/5bm48fRdZ3amhpuu+02rr32WtauWcOixYvJy88/XxXLMAxuveUWDh48yG9+8zSvvPoqj37hC1e1ggHSeK+muprCgkIGh4bzEEtOC8lRMLKQxTzeChAhxHvRB+m5GF6hVCHxy5uRTXo24UHCulqRd+f41m3bQ867MyVqkGpRyxClzeHyeJCE4aoEHKsdEfrH4ZLr3XGkutQm4lMwcpC5/WsicfhpgkK8j37EK1RAfJ4aE4m9X4ckNVcja0NJAq7Vh1jYLST0JpmJrTqi8CeiYEoPEm6XFsVSPgUbWcMTEcqVxcxXPkxEBT83YsC4G6kgFi/DQPO0ByFSHSpT1/UFtm1XFOTna3PmzKWxqQnXLKumpGsaGRkZ5OXns2DBAubPn8+a1avZtGkTi5csoaDw4wq9YRisXLWapcuW8cwzz3Lq9GlOHD/OokWLyMicyZL96YWu61RXV1NYWMjJ06ezkBjVDMR9nGiykEU33ljRMBIWMDiDQ3VVMiE0agXSsGq2Ji9FE9PPAf8ADF3BseYJI/IOmIiF92ESI4hd6XiRrsOJ6PVzEmnYGb7M/59GFJAg8Qm0XiScqwrQ0yyUMIBYrceQ8KZ4N20N8cJmI8pgvEmyUQ4iBroGxCOUTAUjGiKTiPj2QeQ9C8d5nJnARgxFieg8n4GsZzNV/TCunkqRtTgDyZeKhqkmosBKH7AnXi2rANHUC2qqq1k4f/6M9r1IFFnZ2dxzzz0UFReTnZPNjTfeRHFJySc2CNQ0jazsbOY0zWFOUxPn2tr44P33Wbx4MUuWLUv1LaUMXdepqamhqKgIIFMpVUvyyj1mICE28SoYFuLSvVKrnaQj85ENeTGz23o9FxGSn0N6qFypJTkTzVzEul1P8oSm2O7iOpyvWD5riFHIsxGFPBFdXE8jwvXlBJMRRKjtQsI94pETolX+dkXOmy5kRK7pXeQdXER8oWcaIgutj/w9XkFIIWvJi4gy+E3ib4Y5mXvIJzFNTUeQkOPZoGAoRCDuQRRPN9NfJzwkRiaZLBc1SZ2QrH05NOT9dEU+SxDl4vdIXDnlbmDXtBeOSIJ3tHRjXmNjI8uXLZvRvheJwu12M2/hQqrr6jB0nazs7EkrStVVVSxauJBzra0cPHSQ1tbWq17BqK6uoVAUDC8S05ksAdKLbLzxCg0WssCkezLalcStiGA+s7Wsk0MZEurzj8CxVF/MLGEjktSfTOXSj7jqfYhAmUtiGmrNNLlI5ahS4lvrFCJAnUIUiIsE1gn9G/oQAbyI+EJmDGAVUqnndArG7lJoyL4RRhSM/wH8e+JPyI4KbokgCLwe+Vgkdx+Nvf5MElOieQRJdE62UpRIBpH3vpzpzzM3Ml9nytIe7VnhRt6TyVy3F9mz5iL5FpuRMNVEVSgaQNaY9mkpGDEVgYo0TVvsMs3sxUuWsGLVqlnpwdA07VPzNC5HZWUlCxYu5HevvMLpM2fo6e1N9e2kFF3XqaysoqKiAtM0PZZllSmlPHDRe5MoTBKzGEZjcpOViO7ARaExc4DVJCaePJYxxGp2BokzH0KECANZPEuRJL4GZCNNlDUkDymv+yJwLGpFSpNQkLQhpixtGSIwzyGxHoVeJAb+GFLBpgd5BwLIppqHhC/UIPHG85kd4XmlwDXEb120kfyK00xoCncJehGlYCPxKRg6omAsQMo6pxNeZN1/HSk120j6lEj2IyXe30OMuBkzcG1a5DzxKjIWshaPkeYKxgSlehxZL+LxEhqITDJTntK5wGOIojBZ4SoTMRwUIiGXZSROuQDJ39oDhOLJwci2bbtG07Si4uJirba2lvw0Su6eKcorK5k3fz6aptHW3kHv1a5gaBqFRYWUlpSQk53tGhwaKiR5XUw1ErPoRi17s62s3GzEjfQ8SFSFFQuxUp9CKnccQgSoNsQiFUKUmixkIW3gQrOyhcRnrYpiIkLr6pjzO1waEwkjWURiNuGo9/EEEkryAdLc8ywXnn8UFxK+UIe8A2uRxOk5yIY7k4mZU6EMaVoXrxBgI6FRLZP43X7EgzES5zk1ZG40IvvA6NZt29OliWlm5NOJ9GuoJD0qP40iyt37iPdNZ+Z6M7mJfx4EEOUi6QneMSFBbiR/JA95v4PTeMdCkWuPZ6xnWsGoQNaHqfRbMUieh0Uha/D7gJr2i6SUKgfm6rpuVFVVUlh49SkXALm5udTW1eF2uejr76erq4vx0REysrKvzs7ekR4j2Tk5ZGZmMjQ8nKWUKtB13aOUSrSHQJG4hTcaq+2QBCbEkt+CWDTjJYwIB+8ilWreQpL1ohMv9nnGTsYMxCL8ABKqVY1YM+OZsDqSU3KYiILhJHxfYIIgcCOiYMSLhXisXgWeRDa1aDnUS83lEOLV6EWE52cRJeNR5NlVkSZKxoRY6nKksku8uWxhxLp4ahK/G+0L1IlYSeMVSBqQMIwPSZ/KQi5kLRhF3p86ZF0ySG2uTgvwL8jYQ2L3uU/DIH6jXZAYQT1Za+CEgiHzkHWlFvgh0LJ12/bwFM8dzdmKh2huw0y9Pzrp43WLrse7kSiCuBbTEqBe13W9uqoqrXpfzDQ52dlUVVXRPzBAX18f7R2dNDY1XZ0KRgSXy4VHqolFw1PcJD4EKZFJm1fvw5o5MpCNoI7EhLYdB34GPIEsbNH361IWUgXnNyUfEnpwGNgB/BGwkviSG3XEg5EIwflKJg+xEsfbyAlEUP4Z8L+QSl4hJifUqMh7MIIopScQpfDziFcrnahBCiHkEP8aNYZ4d9on+ft+xOMxh/irV9UhytxeIJgmyndUoLQjY/IOsg5cS+oUzaHIGL1GaqoaJkKZuchCnoxnPUG5qAf+EMnpCiHFh/4HsHca4arxzjEbUeSvRmPlKLIXfwQy5tOaRNH8C6BG13W9traW4uLiVN9cynC53RQWFOByuRgeHmagvx/V2Jjqy0rtmLhM3B43mmhZXqVUuifzupm5xKyrlUJk847X3amQUKSfIZbHM8CkrFWR31GAb+u27T4kLnwc6cy9iukrPtHE0QZEmGrFCbmbSDaiXCRiszgLPA38GHn+U+pBEvlde+u27QFEOXkC8RBkIUJ9uhgcFiHVo+Jdm8YRhbprMmMTEcyCiKfnWuJXMOqRXIJ/jZ4jDZgoBL6OhJusJnUKxlvImjaYovMHib/ykwcx1pgJONYnkYF49v4QKTVciqy5dyLGAwN5fyeLSfxFRyxkDK82BSNa6v85pDwxEJ9rpQCo0HVdr6mppai4KNU3mDIMQycrKxPTMAgEAvh8vkQnM886DMOMLfObLJdzmMS423VkQUx3JWi2k48IGblxHEMhVr5ngKeQcIKpusKB80LOICJYPI5Yd+OlBtn00iLUJs3IRYTleJ4/iJXyd4iC2cwUlYtYIt+zkPfol8h7lS4hPCAeleXEv36OICFk/dH7nsSYhZBkzUQ0IMtFPCFVgDnJcpozTTci4L/NzJcstxHl743INaTCOKEQr1W8pbbdiMctkwTv+1u3bY8qv3lIXtI24D4ueEQNJC/hPiRxfwHgmuT75iV+T6FF/Hkcs5EzyPp5lJj8lyltgtGQn4jwnAsUez0eraamhoKrOERK13Tcbg+6rmPbNpblGC51XUfXk+4QCCIbQbyTWUcU5mT167iqiVnc8xGBKZ5QJB9ilXoGOJIgS+gY8CNEAFpAfO9BBWJ1fh2nKtlEspDxjSdZOYRYyp4GPkywJXwPsq/dgiQlp8TgEJkvGmIJbopcS7wMIwrGVBqehpHwsbORP8erNBchYVLdSB5MOnIGyX+oZmbD5YJIFbp3Ad+E6kYzyRiJWbdykD11nAR5MWKq0GUjysWXECXiUobyBuCzkXv5F+Dc1m3brYnrxYTxzSP+xr3hyD2ndfWsBOMHdiLj3Bf7H9MZSE3XdRdQZBpGYUlJiVZbV0dmViKrXCUWpRSWZWFZFrZtJ967EElsdriAbdvYFxStZDW48iHW7ETEjJaS2FJtDhejc6FEaDyCWy/wA8RSkigUsinsQCyI8WwOJYhAaEBKBIS0I2YMMpCNP55eFCOI5+p4oq5vgjX/LPArpiaIJwMXkhRdl6DjDSCx/UNT+E602dtxxFMU7zqbiwiGhXCRNTqd6AfeRHJPpjJWiTjvk0huWKpQiCI6noBjZSN7akISkGPek0zgbuDbwGc+5fhNwBeQIg610eNc4p2LhreWEH9fLT/iFb+aFIxfIXtyz8T7ntbDV0rlAnmGaRp5ubmax5u+hl+/z8fRI0f4/ne/y3/+znd48oknGOjvjzYKTAjKtgmFQthKoWvarGw2mGiscJhQ+Lyn1SI5E24c2TjjPbaJLEDx1Ht3+GQKkfCIeJK7g0hi7x4SJABOsGi9hwgX8bxPeYj1czZ3J08W2cT/DowALyOKQDLoQEqWzqRweSncSO5DIhSMQaQ3SD+TVBImzItm4OBkv/sJ5EbuqTB6jjTJxZh4zwNI4YD3Z+jUHcC/IUYTO4VjYkfuPRHhYbnE3wV+IhWIwvD7SBXATxM8NWQt/hKSAN74Cb9XiSgY8eJDBO2rIYzFB/wW6deym4inKvb9nc7D15CXJ8s0DLKzszHTtLneubNnef+999ixYwd79uxhaGiIpqYmfH4ft99+B5WVlRhm/O+/ZVmMjY9hWWE8Hg8ZGRlXvUcjbIUJhUIocRcFNU2zkpCXMopYtON16bqQUoxXb5xf8slHEijjmRg9SIWKAUhKomgXkgjbjcT0TsdSEFuPvY+rLxb3chhIyEQB009YDiHJ8y2IpTAZRMuzthHjiUoBbkSIqk3Asc4Rqd4E05o3xxAF4/4E3FM94sXat3Xbdv80ryfZBJE8jHUkpoP6J2Ej79vPmUQCfpJRyNo3nIBjlSAhZq8Sh0ckxttQjyRvfxHJ45qsFzRawvbziAD8c6BrQriUjng7KhJw3+NIeeFkJrenA0OIQe5HSFjf+KXm8bRCpBBLVIZhGGRlZaZd926lFMPDw/zuhRf4b//3/813v/99Tp89Q0ZmJq1trXzve99j5zvvMDg4mJDzBYJBenv7CAZD5OblUVRUdNUrGKFwmGAwBLKAjpOcxEkLUTAGiM9i4ELi70shbV33s51sRMmIZ2J0IXX8E/ouTbCk9iEbfjwCbBaywTpejAtkIgp8PN6LQSRcJwCJF0xjjudDlJj+GR6j2PyLIiRfJT8Bh21BhIHpJu+2IgUQBohfYfYgAmJallmMqTI3jngzXyK5wuJJJCzzIOBPsbJlI96URLz3pYhy5oXphYrG5FyUIz2LvoEo3VMNsdSQymBfAO4ikmcRc00GUgo6Ed7CUWS+xJson65Ew+h2Av+EeJN7L/feTtd8nwl4dF3H6/GmXUhQIBDgheee48mf/YwPd+/GME3y8/JYungxg0NDvLFjB6+9+irz58+nKAHldYeHhjjX2opSipKSYiorK696BSMYCOLz+0GEgRHDMALhcFLW6XHEQleFCLHTQUeszo2IYNgz4wN25RMtARoPw1xIOE0Ww8imv4LpJ6NHe7+YOIneUaKlK+NZGIeJlKRN8rVayJoyRGLCJqZKASIQJaJ7rYUozHsif59OBacw0ifiPeAGpr/OgsyN1YiAchjSuiHlW4gwehvJ82K8gYRjpUPlMhvxYHRFrieehnF5iNBeEjnepBXTmPdTR7zefwrci3gx4hE2VwN/jISAvcyFfd4kcUrvEFKE4kpUMMKR+/slUnVxL2KMuSzTDZEyAF3XdTwed9opGKFQiHd27uTIkSPYSmFqGq1tbYyPv0kgECAYCDA8PEwgGP+cHujr42RLC+FwmPz8PCoqKslI44T3ZKOUwu/z0d/fz9jYmK2UGgGGQqGQnUilK6ZWuw8RCJcR38anI4vMSmTxcUJbEksiBEwf8XurPo0AYsGL5xxG5F7Ty7WbWlzEX6UtiCgZyU6gtBFviS/O40yXEmAz8ZfzVciYzUXi0KfbrT6ExKjnEn/SrkEaezDggicrsr8cRISpL5NYZdNCBLQdiNKcLvuNQkJ8WhGBPp71Oh+4HvEKT7a5Y5RoiOB2JG+njPjXUw2JVPh3yBx/HlnvFxN/8QkQAbwT8QJdaSFSw0j1xqcQz94pIqFvn2QciCsBQdM0DNNMO2u9bdv09vQwOjoKREOmRhgaktDC3NxcSkpKyMyMp1qm0NbWxuHDh1FKUVtdQ0lJKgxe6YNt23R3d9Pd3Y3P5wshAqEPSFZvkHHEfX8zkRCnOIh2mn155kbsqsFF/N27Z6LGuE38jZI0ZINML8tLajGRMYlns7CJ6dadRBTyns2YkDDBq1AKrCc+gwlcMAauJr7qbTby7AqIP+wvGv7VFLnPXtK74k4rUiVnExLilyijQQD4NeIlmUz3+aQyQalqR8oT1xLfGpaH9KPYzdQVjGji9Y0kNjfSi4RufQ3ZT/YBN5GY/ItOxMPug7TMLZoqCpHfWhDl4jWk/HrfZO9vOgrGhMU9vZQLAEPXqauro6ioiJHRUcLhMJqmoSJVnkqKi1mxciWlpfHKo3CutZVDhw6BUjQ1NVGWgGPOZpRSdHZ00NvbCyKo9ZBcd+EYEpefiKov1chmXI/UzZ5WAzeHpKEhG14yF53oOeIlXSyS6YIi/jFJVrnrVJ3nUpjIOjSP+BVyEIWglsQkiyeSJmStfZX0CA/6GBEvuR84FLnOUhLjefEDBxBD1uk03GPOIka7G+I8TiaiKC8F9m/dtv1TLd4xRMMUXwOuQ7xHiZqTBnArIpe8hnQBT0Sn6BMksHx2irAQBWkUUST2Ie9p1NM2pSpn0w2R0gBNoVB2+lXjcns83HXXXRxvaaGtXRRnpRSaplFVWcUdt9/OzbfeSll5eZxngtZz5zh0+DCarrNq5Urq6+tTffspxbZtujq7ogn0fsRdmMwNJOrB6Iv3QBEWIZUq/hnoTXV8cEzSpxH5hBGLX8qtXlMkSPwhJy6S0B12AgZi5YpHyYgWNki/xTF1hJD1IB4lQyd+L8hk0JD3LBVJ+o3AkhSdeyZpQjzGb0Ba52GAzOUfIoanRCgYrUiC7KlU39hlOI1U6wsT/3voRfInOpDmqJN91mGkTPC3gf+CVJCKP2H2Ym5GQhE9JKap5hFEGZ1Jpmu4URO+r5D9qhspl/w+UkntIOLFCDENT+N0PRgWYCtbEQgGE9pTIhG4XC6Wr1zJn/3Zn7Fpwwbe3bmT0dFRysrLWXfNNdx4441UVMTnEbNtm86ODo4cPUpnVxdlZWWsWbeOuoaGVN9+SrFtm46OdgYHBgB8mqa1Ekl0TVKIVLSqwVEulBSMhwZkQXwlctx0sK6VIpvxMmRD3kPyynQmiwCyUcfzEmQgm0wycxsykHjfeMJH7cj9zhYFQ5H8MJUQ8Se8ZyCWzGTntkSLPqQimW4BYtm/0sPr6pBcDDepy3WZLGHEmv468nxWMX0ldwSxCr9J4oxiiWYYUX7aEaUqnrXQQPIwov2LOvmUdTEmXMtCFJP/C1k7HkHmZKIMDB4S4yUEWd+OIiWdZ9J7HW3sN8TkvPsastb7kOiPESRMsQ3xXJ1AkvIHkPdznDh6s0z3xfEDQcuy8Pn8WGmmYGiaRk5ODmvXrKGutpbly5fj8/koLCqktq6eioqKuPNGLMvi3Z072bd3L26Xi8WLFlFdXZ12Ce8zjVI2nV1dDA4NgbzE50hSJZ2YRO8Q8CGSoB2vgmFyISlyFHFlzzgTYrIXAl9HwiZWIu76d4HDW7dtD6Wx5S+WMWTjimfxLUQsn28m8TrziD88JYQs+MmK4Z8JhSDR+Ik/QTsfef7Jtu4biKEhEVWcPpUJc30+Inhf6RtJNHSrEbH6poMh52PE7DEWsu7WIB6m6a4P+4BfEKmslG5rd8z9diJVw4qIfx5kI3kO54DvAUOT8WJEriWMvB+PI+/MA6RG8f8kQohicQoIzvAzPc0FoyNMXsGIRhT4kL2qFwlnHwQSFho+XQ/GMDBu2TZjY2NYVpoa6jSN0rIySsvKEn7o8bEx3njjDfbv309JSQm33nILRUWJCOOb3di2oru7m+HhYRCh8jTJt7ZbiEtvM5KMFy+5wKNIzGHv1m3bOyBl4Uh1SJnELch8jQogz0Q+J7Zu295L+ieWjRB/47myyL17IHFhFTECnobUXI9XiI3GryZLaEpUnkgUN/FXePo0xrlQ8CFnmsfIRQTSXKA90WE1Me9BHmK5zUvymMSiI4JcE/KeXw0UABsQ62l3qi/mcsRY1E8jXowtiDd5KnNGIevCW8CzpH/56m7gd0gORSIU7UXAV5GSyW8CA9H5Nsk5/BZisClB9vh4K6wlEh+ifKYi5O0skiPxNKntAn9JprNJKUTLGQ2HwwwNDxMKXYklfy+P3+/n2LFj7N6zh/7BQSqrqrjr7ruv+gpSAOFQiK7uboZHRkAW1JOapiVbwYh2Qz2CaOOJSCbNBrYhi2ImkcY8yW7AF3OOaBz47wGPcbExoBHYCvwj8AdIEp0HMLZu266laZPAAcRqF48Fuxjx4CRLk5+LKDDZTN8NP4649RPRDfdyuCPXmCglIx8Z22TnNvQjgst0NwwN8VAuITEN6C43FiuZ+f4X0Vr86ZaMnUwKkQTeQpheM7YUcBjJz5uqQhQGXkCSiuMNFZ0J+hChPpHdxeuB7yDJ45lE1q8pPPc9ke/vIb0UtBGkIePJFJzbJM5qsMlkWgqGYRiDQF8oFAr29ferSLz9VUNXVxeP/+hHtLS0UFlRwaaNG6muqcF0JSJPaPbi9/k4euQIZ8+dIxAI+IFWpVSfbSevEsCELswHEOtIIjReHfEefBH4c+Iv2TdVKoD/ADyIlOubeG05iED8FSQJ7tuIlSjZlujpMowkN8YbJlUOfI7EdF2dyHXAHcQX4z9ATDPAS1iUot6HeN6lXCRUI1G5COXI+50UBWNCh+xzxOfRzAU+i9SzTwY1wP0kT4m9HC6k7v/VlMSXC6xh5sc6HnqR5Nd9iGA5GRRi+Pot8E70H9PN2nwJ+hGPTaIEZy+Sw/LvEcNZCZ+yDk7Y3wOIgvdfIteVDowiidAniPSFmGHi3UuSfnFTJhwO20C/bdv9Q4OD6uyZMwz2J6K7fPozOjrKvr17efnVV+nu6eGadev47Gc+Q2ZGvD1apsZAfz/PP/ccu3ftYiBNxn5kdJSP9u+nv68PxMJzmoiwn6QE74l8hLh1E+VSMxAh/hFEgL8VKE6GJyPmmHmIoPsnkfM2cfl56kKUj01II6g/jXxn3tZt22fE4zIZYjaIfuSdiMf6lIcoXSsAV7z3GPmuC/ECXY/ku8QjaHcjm83llOrYqh3TJRPpXF8MJMJj1YAop8neqKJNMeNJ6s1EntNKICcR73jMMXIix91M/D0oJn3uCF5E2E6G4pyu6IhHai4zG442LSLrmEI8lD9h8hWDBpCeF3sA/wShOe2IuTY/EnqzP4GHj77nW5Gu2tcA2Z82hycYKd4G/gXZ61Odi3Ya6WzdPeE6Z5L06xURYUobilIqVlAcANp9fr994sQJurrTNoQyoRw8eJBf//rXnGttpbCggA0bNrB+wwZMc+a8VH6/n/379vHdf/4nHv/xjzly5EiqhwWAsdFRDh8+xOjYKEC7pmknNE1LaAfvT6Eb+AAJlUqUC9VEXLtfR8KR7kaE0MKt27abCRJuoh6JOYgF/Q8in0YmVz4vA8nNeBT4JqJs3IDU03eng5IRYQhRAkfjOIYHUQbuRipruZmmkB35TrTvwOeRjrHxJhC3I4LH5RK8w8i7Ga8SXBq53mmF8kTuXY98fwFJ9GDEMBoZm3iev4Eo1VsQRdxDHEpWTDiiG8kHuBvxHs5kF3YX4jlpIv5uwrMNExE407az9yUYB54DdvLpXgyFxOY/jgijs4kQ0mBtN2IcSpSVUEdyWL6ONLy7EWjYum177ieF+MYoeAGkC/cPkca4qaqoGEKiJl5g8t6sZJC24XbTkoojAmOPUuq0bdtLWlpa6O7qYv6CBam+n6ShlMLv8/Haa6/y5E9/immaPPzQQ9xwww1oM1w56sBHH/FvTzzBjrff4cjRYyxZupQNGzemeogYGxvj+IkTjI+PA5zTdf0YEUvuDBYCOAf8GNiObNiJwg3cg5Qo3Im4u98FurZu2x4t3WwRsU5PtGRMWDSjYTJm5GchF4TmW7ngtZiqwGcgpXoXInXDf4p0oT2zddt2m8uH7cwUA4gCeCvx1TQ3kNA1NyKstgDjW7dt/9SqLBOeg44I1vciyll9Au7xHLLpXE7BsBFFawyJ95/u4pEHPITkHnVPJWEyZgyykHCztQm478kwjFhxB+M8joaESSlEoWtmks//EuOgIUL9PKRy3APMvEWwEFEW0ylxdaYwgXVIaOveKSb+pgqFWNJ/h3icPsvl53Fr5N4Okf7leC93r29wwZOfyApuRcg6vgkJeXoWKdbii5SotZD10oaPvRPjSN7DCPCXyL4307kI+yJj08XsKUk+o0xrc9M0DU3T2oFjlmVZLS0n6OxKZC5Q+mFZFj/60Y946pdPoZRi3pw53HvffSxfuXLGr2Xv/n38+umnCQQCbNq4kcWLFqV6eAAYHBzkxMlT+MZ9IILWEaWUPRPhUTGLTw9SXek4iS0TGm12V4l4Gf4zkmT9F0jM9nJEaJ7MIudFLHa3AP8b8P8Af4cIjPWR80xXyDEQgWkR8A3gH4A/RASombTKXop+RDkbTMCxog2c/itizS6cxjHWAn8U+VTFeT0KESaOR+7zk1z3fkTJiGdTykTCC25HvFdTJQOxIj4S+TkT+JEQqXYSMzdvBv4a8dZNN8QmN/L9vwTuIjXhBoXAxjjuYTZjIMaVWeHBiNlnFNLd+EVkPbvcfP8QCecZmfD9tGbCdX6AeGx6SWxIkoas401I2OtfIw0Iv43ssXMRz/55OXVCeNkwopD8E4kN45osv0NC36xLjJkDcWh8mqa1AUds27bOnDvH2bNnOHv6NKfPnGH5ihXk5V05a+Xo6Chv79jBr556in3791NdXc3vbd3KipUrcc1gYrdt2xxvbmb3h7vo6++nqaGB2++4gyVLl6Z6iOjt6eHQoUN0d3fbYcsaBM5aljWj2f+Rutk2EiP7c8RCfG2CT2NGjpuPhNYsQQTLTsSS0QP0b922fQwRqMLIQupC4rqzEctNFZJcW40oLYm2XroR61o1YuXfj1h6U0m0cdL+yLVNRymIJR+xfkXDpvZt3bb9OKLcjgJWTIlJEKG6FBFmliJC3brItcQrWFqI8rQv+g8TN5yYGvN+5F1pYPodZDUuJDzrSBzwgU/rixI5f3Hk3r+IKMZJ7xodc++jiBdjIfF7GPMi9wGiUO/cum37MSIK3qXGISY0rBBRutcjispGZtiDEONJijbSnG753tlMVMhsiHzOkPq4+k8kZk3xI8L3U4hxKFboUUio7muRn2kbxjKJ+wwhc/YnSFGReHtNTcSFrEmFyNq8AtlTO5D9tAsY3Lpt+zhS+ltFvuNF5kwlMxta6EMa8b4C9DiKxeWZloKhlMK27RHglFKqp79/IPPw4SP6iy++wNtvv8OWu+7i2muuoaKiAu8MJz8nGr/fz4GPPuJ//s//ya7de8jKymLTxo088MADlJeXz+i12LbN22+9xd49e8jLzWXjxo2sWLGCnNzUe9ZPnzrF7l278Pl8FnBI07QzMGPJ3RMJISFMDYgVpJDkWCYzEOE0NjFzDAkFGo78ORQ5twfZgPKQRTFRHUQ/CYVYzrqJvwdFXEwQrn+H5JskomdJNmKBXoxUGNmLND06BwxHGjXpSDhQGfJOLEYEy0oS51b3I8mHH03id6PVlFYSX9MoDRGsPZHjPAu0bt22PfruRftwGFzYjAsi570bCaOb6dJ3YSQcYgWJCWHMRvrENCHK0k4i5aq3btvuQ+K1FRfmYAaiSCxAci6u5ZMLKSSbHESoqiWNy03OAHORDuatpLmCMYHjwJPIe7SYC+9RAJmPrxJZd2e5IHoWUTCWI7lPyRDsdGQ+z4t8QN6FQWRPHUHWWZsLpbpzIn+fkaaYXKhk9a+kxmsyq4jHgwGiXb4XDofzP9q/v6Czo4O33n6bV19/nYcfeojPf/7zNM2Zg2EY2LaNUgpd18nMzMTtcs147sJUsW2bg5F8h5deeYXh4WEeuP9zfPObf0hhCprqhcNhPjrwEceON1NaWsaWLVsoS0ITwelw7tw5Dh48iCXJFnt1XT8NM5p7EYuNCNQvIRv3g0hIyUyQiSy+lVws0GsTfs4EfsTK8msmJ/jOBEGkMVCimiKCjGlJ5JgbEW9CX+TjQ9a5wsgngwul/RK1AAWRPJD9SBjBpzGKCCaJismO9kW5DQnJ2Icklg4icyETUa4WIAm1ixArZCpC5sJIh+BDSEjSdHKNJqJFxqABuA9p3HYaUeL6Iuc0Ec9hDbImVCFKWaKbFk6VJkThS3X4YqqZi7ybzwGhRDdRTCI+ROB8HRFyq5H14ASy9h5N9QUmiBAS3vgTZN4kau3+NKINKPMjf5+4p850SGMr0on9XRIT6ntFM20Phq7raJrWo5R6Xim1+lxba8G430d+fj49vb38+PHHeeutt2hqbMTj8eDz+xn3+SgqLOTLX/oSa9auJTeNw6iUUuzbs5cfP/44T/70p4yPj3PHbbfx+Yc/z6rVa2Y0NApEUO/p7uL48RMMD4+wdOky1m/YQEFhvFEmiaGjs5Pm48exLCuMVJ04mQrvxYSQmA8Q4Wo+YnmZCXdaKha9SxFChKx/RSzr6bJhR5W/nUjC/DoSI+BFc2QMxCpfjigdduT/ogn1yXg23UhFk+MwqXEeQkIOElV5JJqoHO0CfSNiaYsWHdAjY5KBWP28pE6gVYji+yESw76ZxFjuo+9QFqJsVCGCXmy1Lhdi+fREzpkO83QOMg/S29qWfGqQXKBsZkkydIxXth/4HjL/qpH17Z+R/gjpsu4m4j59iFemkgvlhWdiDqXLngqyrvYR8Q7P9mebbOLyYBiGMWRZ1ruaprUODg7N9fn8mq7rWJZFX18fQ0NDNDc3YxgG4XAYfyBAaWkp11xzDQsWLkxbBcPn87F3925+8pMneO755xgfH2ft6tV88Ytf5Lrrr8frnfleZn6/n2NHj9HT04PX66Whvo68/PxUDxW2bXP61CkOHTpEX39/WCnVBpy0LCuZnYw/lciiGESUnf8X+DMk7v5q2cjPAv8dKTMYSIeFMGajAqm+UYNYb5MRLhZVNpLNOCJIvMrku/uOImFcPYhXIRFE83wKmLlwgSkxQfl/D/E4rCexoUHRcUjbrqcxc0BDFIylxP+uBhEL807Eg5PscCsVOUcNYs2uScAxSxHv2oekpmnZdAkh8/lfkLWgDymj2pPqC0sUMfmNg0hlQg9SPKSEq8v7Vgl8Bnm2b2/dtr0vHfbWdGXai1Ak9MUCOnRdfzsYDNYFAoEmAMMw0HWdcDjM8MjFRrpAIIDX45lxD8BkGR4eZu+ePfzbE0/w7HPP0dvXx4rly/nSl77EjTfdRHHJtMrOx43f56O5+RhDQ0OUlhTTUF+PYaR+XluWxXs7d3Lgo49QSg1rmraLiKCVovyL80QWxT4kH6MOUS5i42SvVM4im8BPkdjVtCFGyGxDhPJbkPjleHIRUskRZKzPEpNU/kn3Hylr3IeUs52LeFuuNjqAtxAFeDVXX/8HHfGyNJKY5PJRJCTncaSYQ7I3WDtyjjmIkJkIBaMIyYs5xixRMGKMJhbSD+FNRHEc4DKFBmYrMWv3CSSxvQQpMlHJlb+nRskHbkKUSgW8vnXb9llVIWwmSYSVI4i8bPXIYqlFBctogzVN07CVQlNQUlzM0qVLKC6Opwx+4rFtm0AgwLs7d/L9732Pl199FZ/Px+pVq/jiF77AI48+mlKPSygcoquzC5/PR35eHqUlpehpkMMSDAbZs3cvLS0tAH2arr+maVo/gBVOZJXYqRNjKRxHSsrawO8jm2F6arjxoSL3+qvI/abUi3QpJvShOIaU6P0rxIo72xhBhLqfMPVmTwEkF2UhV6eCAWJx/x7wHyPjcDVhIpWjEtWrZwRR2JsRK/NMhJQoxJJ7AumuHu+aWogoGL8GOmdRHkYUPxcavM66qlFT5DDwN0gI8hakOWW6hDElmwwk1yvaNHUH4J9qH56rgUQoGJau64dt235H07Q1wHxN086b1qPJ3QAlJSWsv+Yayisq0yrB27ZtBvr7efLfnuBnP/85+/d/xLjPx43XX8+Xvvxl7rr7brJzUltB0LJshoeHCYVCeL1ecrJzmMEO2Ze5Jovurk72f/QR7Z2dAH0otcMwzYFwipULuMi6pBAL34+Q+Pc/Q5SMK61qyxjS9+JJJEwi7epzTwiTidYx/ynyLGaTkGkB/wv4N6YXMx5CSljehORMXDVMiF1/FQmTykMsoVcL0Q7WiVIwBhGhbxDghz/4h6QLuJFnaCOGghPEP39zkZDJMmZRcvSE9fVKVyxi52838P9H9tRHECXjakFDilS4EaPeLmZJ7tBMEpeUb1kWlmWpsEiTLyGWvHHbtjFNk6KiIpqaGikpKaG0pIQbbrierdu2pSzM6FJ0dXby66ee4s///M/55+99j/c/+ABN13nowQf5xh/+IbfddhuFhYUp9xYopQiFw9i2ja7rGKaRcnPB0OAgb77+Bq2trQB9uq4fUNAVDoUsOzXVoz7GhMW/CwmX+mtkQZgVbvhJoJAqRn+LKBfNRMJ10km5iCXmugaQqhxPI0nps2GDHka8tk8hIVIT72ky925HjrMDCatIjwkzQ0TGQCFVt36IeIIC8RxzNjChi/oyJCk4XgYRgXwQUmJQOEziFIJcpLfQ1erVmxVE3rEwEhr6P5Gk9sNcKI19NZCB5B9tRxTjjAke+quehFhwlVJomnYaERKWKKW22LZd4Ha7qKmupri4hPq6Oq6/4QauWb8+pcK6ZVmMjozQ2dlJT28ve/fs4ZlnnuGdnTsJh0LU1daxefNmHnvsMVavWUNuGvSYgEjmomkSTaIPBoMpl8QGBgZ46aWX6e7uBjis6fobWnSBsdOnlHnshrt12/YOxOpsA59DqhgVMTvdu1HPzGFEcfoxEtv+qbkA6UDEEhZGqi/9CrEGPUBi+1MkmiHgHWRT3QeE4hzrnYg3bRHyHqaPazfJRJ5/COld8kuk2dbNzEyPmFTiRXIXqkhMgmw7khidCgVNkVgFw0TW5N1I81KHNCXGG30ICQ8LIqFDS7h6mkYWIuXB+5B1a1c0JyN2jK5WErKJx+RanFBK/Q2QEwqFrhsaGsr2+XzGiuXLufXWW5k7bx4+n4+MjIwZUTJs2yYcChEKhQiGQljhMH19fRw6eJB3d+7k3fff59ixYwyPjJCZmcnyZct46MEHeOTRL1BcXIxhpo+MY5gmeXl5uFwuxsfHGRoaQqVQiFdK0dbezp59exkaHlbAAQ3eVEqF4j54koixLowhFT/OAV9CFoh80qd05WSIVvTYjYR+/QpZ5FOtd06XaOUYE9mkqkm/6iQ+JDH5u5GfifCAtSMVtTYi4VKprAAVbUiXCp5HwsZKEGUr1Un/0fLGyRiPQqRZWaJqjLcTqRY3M0PzMVqREKlRLvQWmS4uJOm/HngvumZf7YLaLKAFWRfbkG7f6xBFejbtqdMlB9gWud8AUiEvfSysKSSRHgxs2w5qmnZc07TvKKW+Oj7uu/+jAwcrTp0+o73xxhtcc801rF27lvUbN1JcXJx0JWNgYIAzp07R0tJCy/HjnDh5kuMnTnDq1CnGxsYYHx9HNwyaGhvZcscdfOYzn2H5ypVkZ2Whp0GFpljcLheVlZVkZWUxMDhAW3s7VgoVjD27dvFvjz9Oe3u7bVnWcV3X97tMsy0YSlv9YmL8P4iQ2I4I6V9CSobOfA3i6dGNeGJ+jlQjOh//OZs24wnP5BiSQ9ILPEriSrgmggASfvY4ogz5Yq8/zvs+hITtlSIVtWa6AIEV+UT7haRCILAQz9C/B/5TZBxmqjnmRGwkdC8jkdcQs+4UIKEV+Qk6dDvSSDOV4SltyDq0ivg8UAYy7xsjxwkye40mVwUxORkjiCf9BHAvcD9SivpKLKgyEQ3JJTuI5BU6kMAwBKUUbrcbwK9p2oFAIPDPtm0f9fl89/p8vg3vvf9+zomWFt7csYN5zz5LTXU1ZaWllJSUSI5GaSn5BflkZmWRnZkl3oNLJDErpQiHQvjGxxn3+RgbHWNwcJDh4SEGBwcYGBhgcGiIvr5+2tra6OjoYGBggP7+fvr7+xkeGUHTNKoqK1m9ahVr161j/YYNNDU2UlNbS3Z2dqqfySXJyMxk8ZLF5BcUcKy5mSPHjqaqSzYA42Nj9Pf3E5JkblMphT8QSHlp2skQI9z5kHyFIWRRvBUJ0ViU6mu8DArxuryHxKy/i1TiGZ9NSsWliAmXOosI8j1ICcTrEEEjVVYwHxdCuF5AwkHGotecoPsORo77t8A3EE/GTGzKFmJ9fg8Z33tn6LwX3T8QK6C8h1QV+wJwOzNfneYcUt1rDKmMtCwJ5yiNHDcRYSSdiPV4kBkWxCc8u6gXZTHxKRjRhplzEEXjwEzfl8PUiemTMYyEjvYiSu8dyJ6aiFyjdCWMKNjPIN5ox3sRIaExQMHgeQNK2O12HwF6lVKd4XC4eXRsbP3o2NjcM2fP5n344Yfk5eVRUlxMaWmpfMrKyM/PJzs7m5ycHPLy8vB4PKCBUrLqKCDg9zM4OMDY6BjjPh+jo6MMDoiCMTDQT3//AINDg/T09jI2JhEMmRkZ5OXlUlVVxcrSUqpralg4fz4LFy5k8ZIlzJk7d0YGWymF3+9ncGCA8fFxampqcHsmtxZ7PR7mzJ1LVaUUWjl39hwnW1pYsnRpVLFLOKFgkPa2Nrq6uykqLqKpac75/6upq+Oaa6/lw927tXOtraWWZS00TbNBKXUWsFKp/EyWyAYZ3Lpt+zlEsDgb+VyPVHepQTrLpho/4rFoQWL2X+FCSNEVUxovRsk4gWxUncjCvQaxaM5k2IyKnHs3UsDiaSS/JVm17f1ImJAr8uf1SE5GslypFiIU/hz4HVIB6J4knetTiRFWx5HKUn7Ei3AzImjORF5GB/AikstUS2KUi4nCcREwj8TkfSkk9+FY9DwpXAuiCsbnE3S8BYg35BCOwDYriHn3/JFeGe2IAeMk4pGch+ypyRFYJo/iQn5PYeR6pjsX/ci+/GvgZ0S6t08Yj6uWpCUZKKUIhUI9mqb9BnjVMM27lW1/2bbtGwLBoGvc56Ozq4tzra2Ew2HCloVtW9i2Qtd1sjIz8Xg8aLomIVhoWLaN3+9nbGwMDdANHV3X0XUDQ9cxDAPDNDFNk5ycXEpKSikulqZ0tTXVzGmaw5KlS1m0eDE5ubkz3qjOtm2ONzez85136O/v50tf+QrV1ZNT7DVdp7ComKVLlvDBBx/Q29vLb59+muLiYmrr6hJ6nT6fD5/PR0d7Oy889xwf7vqQa9dv4Otf/zqZWVlomkZ9QwOfvf9+Dh44oD37/PM5vX19623bPgA8wSyqiDOh6sN+xKPxAmI9vRURvHKR0CkPM5OEqxCriA9ZwE4h1YZeQBJiBxN8vkR0vdYSPDbdiFD/AfAg4s1YxIWwlWQ8B4WEZESVm5cRz8VOkm9FVUgOwq+QTfkPEO9NBYn14CjknTqHCPL/hIz1POJ7B7Q4vz9xLr4DnEGUzUci15dH4kMYLURRH0Det8cRgX0B8RsXLpXDsRAJj0rU3pvIBOt46OOCdy8RZSLnIpV5fgGMTuh+bpCY+TBbcgMM4hOCo/c60+GP48DbiOK5DLgTKcldj4QHehGDykxcUxhZ98YR78qOyL+vRXowTUfpCSJrxS+A7zO1zu2JuudE7N1JI2kKRigUiiZ/28Cw6Xb/Iujz2UiFgbLNGzfqCxcsoLOri46Odnr7+hgcGmJkZJTR0VFGx8RDEUs0/MY0TbKzssjOziY7O4vc3Dzyc3MpLCykpKSEsvJyamtrqW+op6KikqzsbFwuE5fLjdstn5muZKWUwgqHefrpp/nn736XnOxsli5dRl5uHjm5k/OU67rOhg0b2LN3Ly+8+CK/+e1vuX3LloQoGNGxtW2b3R9+yMsvvcTO997l4KHDDAwMMDQ8zNw5c7jl1lvxZkjT3ZKSEh56+GH27t9Pb19frW3byxEtftaUm5xQYQpkEWpGrNe/Rd7X6xAr+hIkfjpW2Eyk4BfFz4XQlXcQK/opZPMOTrzuBOCNfFTMZyrokU/c4TUTwi4UUlr4R4jreQPict+APIfoJI7nGcTe6zBSdvZlxJJ9UehJsixSMTHMIOvlbuA7kXu9H0mYzCG+pGMVOfYo8k79AvFcdCHeuuqYsZiqxTj67DPjuL5LzcUOpEfK24jCfw8iEEQVrnifu4b04ngdWbc+jJwzExGSo/kX0xkPxaU3/xXIczWZ3lyLokWu6ygSwpcO9CECVzGinMXjeShGlLG6yP1FwyM0xMgQlV2mew6dBCjFM4QbsbQb07zf6L3mMEMhkBPWtABivGtBDJDrgc3IXF7AxcJ9MvZTGzGo7EfCit9BvCoANwD/F1LRbarn/hDxdj6FGCgmu0dMfO+m+w5ryFqYkcBxSyhJLZMUTf4GVNjvt5VSo4jbrNCyLM/iJUv40le+wsjoCD6fj2AwhN/no7+/n/HxcSzLQo/kYSilQNNwuVxkZ2WRk5uLN8OLy3SdVxq8Hg/ejAwyMzPJzskhJydHwqzSAE3TcLndmIaBFQrR3dPDu+/uZN78eczPnVwuq67rXLN+Pbv37uWtt97i5MmT/PTJJ8nweFixatW0r62nu5vjzc0cOHiQo0ePcuDAAY4fP05XdzehUIimxgYWzJtPfn7+RQ0SPW43FRUVeL1ekMVrtpZ7BS7U5o+UzhyMfHqQTfxpJC54LiKQ1SNCWdTFOl0Uoji0I+FZp5BN+mjk3zoQISgZikWUE8BzSB8Ki6kLPS7EStVFgsIZYhQNC3kOo5Hj70Oew2LEoxF1u09nkQ0gz7cFGfN9iIIRDZlL5phf8n4j9xxCFMzfIi73lUiIwQrkvZtqqNhQ5B73I5viR8gz70ae9TCwB7HeR6NRp4I7cr17ES9MQsYj8uwHItc3GLnGxZHxWIaEzU216lYYEYRbIuOwB3nuzZHzRL1YexEh+UOmnjytR86zn0i+TgxngWeReRKPcAzyXN8jxf18JjRO/FfEk1FIfO9CBrIWRoXjKEFkTjyNPLfpJLZHBby3keeT7jkeZ5FeMdGa+VN9b0zEaHWQqVnZ4yJmTVNAYOu27QHkHRlE5lc1spZHP/VIifIcpq/4RT20XZFxO4msdUcjf+9G9tToe/MG8F+zl7MbAAAY1ElEQVSBP0b29sngR5qkPol4gfuZWqhytIjEc4iXNsz03kEXsm4dIU3DCBOuYETzATRNMyzLKlJKNVqWVWUpVQ0sRyaJdqy5mcOHD7Np82YWLV6MyyWKdSS0imAggGVZ50vgSpgUmC4XGV4vWppVeZoMmqYxf/58Fi9ezAe7dvHRRx/R3d3N/AWTUzA0TSMvL48NGzZw880388KLL/L000/jMk38gQBNc+ZQUFCA+QnldS3LYnhoiJ7ubnp6e+nt6+XokaN8tH8/hw8fpvn4cXx+PwX5+SxbupRly5ezYtkyli9fztx5884fOxQKcfr0aV783e/o7ukBGNQ0rZPIiz4bkr0vx4SFYmjrtu1DyAL1IRKy0oAItZWI5aMUEUYyuOANuJTr10IWNj+ysfmQhSaaa9DKhTyQ7ktcS7Jo4YJle6oKRjQ0qo8EKhhRYu4/vHXb9s7IWO1CLJvzEWWvFnkOBYjVOQt5BrFuyqjgOI6M/Siy0ZxBFKsTkXEYTHXsbOT8FtAR6dtyBBGGFyNW3WokXCg7cr+xE95GFKfxyD32I8pSMxLPfhAYnWBhHEAE1VamZ1V3Rc7VSQIrGcU8ByuSJ9WKPPtdkXGYizz7wshYRJ977LyzkHkWfea9iNDREhmPk0hyuYoZkyCieLRHjjtVQTl6/rORc8b++15EyLOnOdZw4b0eiYxJusR7jyLevyPIswjHcSw3F3LPYkNuowpGP9N7NnDB+9VJJI8t1QP3KUSb2U3Xoxb1fPQygwrGRGKaa/Zs3ba9B5l/byNr+cQ9tZAL8zkDsdRPFPps5PlHQ4nHEaW7kwv5H2cQRbWPCT2LInO9C8lDK0Hyh+Z9ym0MIiGz/4o0SO2ZxtyLlph/BqlkOZ11IBryNhC5h7R8hxNqbY54CzQgNxQK1Sul1gI3K6VWm6ZZ7Xa5MkyXCw0YGx+ntraWB++/n9/bupX6hobzSsaVzOFDh/jhD37AP3/ve8xpbOSv/+ZvuPueqeVWjgwP88orr/Af/9N/4vjx45QUF7FxwwbuvvseVq1ZI53HNQ1N11FKYds2dqQ5X//AACeOH+fwwYMcPnKE5uPNnDlzFp/PJxW8srOpq6tj2dIlbNywkTvvuoui4uKLFL3RkRFOnDjBCy+8wHe/+13aOzpCtm2/rOv695E8geBsSPKeLhNixbOAMkTxKIh8crmQJxCdY9EY+zFkUehFNsmohyIEaSMozAoiz0FDBNzKyKcEUfjyuCB4R8ODxpCNJmrFageGZ8OYx7xzOZH7rEW6HRdxIS8hep/DiCARteL1AP7ZcJ9THA8PEkpTh8zBEuS5R+dddM4NRMagPfLpJnnJ+g4ODtMgMqd1RLmoQNbxfGRPzUHme1SQ1hAFNpo/Fd1TO5G5HoBP309jzlmG5L39YeT8l4qhH0WUin9AQq1GnTXkk0lYoz2v1xstm5qFxMp+EbhG0zSXruueqspKo7GhgZLiYgzD4OTp05w6fZqf/eIXeL1eHn74YRYsWnRekE0FSqnzlndN05JyLdXV1TQ0NmDbNq3t7QyPjEz5GDm5uWzYuJE//Xf/jr/7+7/n8JEjvPjSy7z9zk7mzptLbXUNBQX5eDwewuEw4+PjkdK9ffQPDNLX18fIyAiWZREOhzFNk6amJlYsX86111zDDTfdRENjIy7TJCMz8yLlIhgI8MLzz/OTn/yEN996i/Hx8ZCmaR+5XK6nQqHQC7qup28jjAQxIU9gHBHi2riQizDRrR+LPeET7UHgMD2inolWRGnQEUtXrJAZ+7sWs3vcRxHr+xkun+AX+26FSVP3eQIIIgJFLxee+aUEg9jnHX3+Dg4O6YeNGNyGkNyb2D31UkSNKrFzfKrz20bWkceRNeXPuLiEdHSP+TmSzH1R3ymHy5MwCdrtdqNpWr1S6quhUOh2pdTC3Nyc3GVLlrBh4ybWrFlDbW1t9PcY9/k4euQIe/fsITsri3vuvZc169YlreTqZDh16hSnTp4kHA6xaNFiSsvKknI9v3rqKb7+B3/A0OAg//Vv/oZvfOMbZGROrZ9TOBymt7eXXR9+yMsvv8Tbb73NudZW/IEALtM8f922bRMOhwkGgwRDQSzLxpvhpbSkhPraOuY0NbFq7VrmzZ1LQUEBJSUlFJeURPMqzjMyPMyhgwd57vnnePXV1zh85AhDQ0NDhq6/qRvGE6ZpvqmU6gLw+/2peoQODg4ODg4ODpMmYiw0kLDbLyKNd6sQ5aIX+BckmfsgEo7lRBtMgoTlYASDwYWapj1gGMYXsrKyahctXOjasGE969atY/XqNdTU1HxMiF60cCErli+nr6+P8oqKlHsvPnz/fZ599hlsW/HII4+wYeNG3IWFCT9XTm4uxYWFDA0O0t3dRW9PDzVTrARlmibl5eXcfc89LFq0iAXz5/Pzn/+C3Xv20D8wQG5ODnPmzMEwDDweD7quMzg4SPPx4xQXFXHTjTey5Y4t1NXVSe7GZe4zHApx5MgR3n13J2++uYO33nqLzq5OKxQKn9I07Q3TNJ/Wdf0dZdsD/sCsKR7l4ODg4ODg4BBbVOIEUumqDLgNCat9CvFuHAcsR7GYPHEpGJE+ErqmaQXhcPgBpdQ3lFJl+Xl5+mc+cx9f+cpXP1FxyC8oYNWaNakeg/Ps37+fZ559lszMLDZt3EggSdfm8XgoyM/HNAwG+qX7eHVt7ZQULMuyGB0dZWRkBDSN6ppaMjK8aLoco6ioiLu2bKGxsZGi4mL8Ph+7du2is7OT3JwcVq1cxWc+97nL9gLxjY/T1d3FmdNn+NVTT/HCCy9wvKXFQtyXLZqmPWua5lOWbZ+wbDscDseTz+fg4ODg4ODgkBoiSkYQKYjxYySHLQD8I1OvFOVAHApGjGDqVUp9Rdf1+5VS5bqhawqFFbaYTYm+lmUxNj7OuM9HXn4BNTW1ZGUlp3Gw2+UiJzcX3TAYGxtjdHT0sr8bzQuJ/WiaRn9fH2/t2ME7b7/Nh7t2cbylhaGhIRUIBCxADwaD+rhvnGvWr2fe/PmcPnmK5ubj6LqOhna+/O9F57JtLNsmGAjw4Ycf8LOf/pTX39xBe1ubPTY+rgHdpmk+pZR6wrKsA8jkczQLBwcHBwcHhyuBEFJVby8XysinZZWmdCcuD4au6y7btussy7otOzt7cWFBgZaR4aWzq4vXXn+N+oZ6Pv/Io59YNjUdCPj97Nuzh2PHjhEMhigsLGTO/Hnk5ObGf/BLEG0UqOs6tm1/YknX0ZERBvr76e7upvXcOc6ePUtreztnz57lWHMz3V1dDAwM4PP7w0C/rusfKqVqe3t7l/722WcJBoN89Wu/R0VFhXRG1zTy8/MpLCq6yGMSDofp7OjgjTde5/3332f//v0cP36Cnt5eZVnWWU3T3tI07SVN03YbhnHaMAxfMJiwipQODg4ODg4ODikjxkMRYBY1DE5Xpi3527aNbdsFwPVAU25OjllQkM/g4CB+f4CcnFxKiktmJK/Ctm26OjvpaG+nf2CAYCCAput43G4yMjLIyMwkM+bj9rhRts3oyCg9PT0cO3aM559/nv3791NcXMza1aspKipK3qCbJpmZmei6zpkzZ3j9jdfp6u6Wbt9WmHDYIhQOEwqF6Onupruri57eXnq6u+ns7KS7p4fBoSECgYBSSo0A5zRNO6Tr+m5N0w4A8wPB4OdaWk6u/+VTT5mBYJBFixZz+PBh/IEAwWCQvr4+zpw+LaFQXV2cOn2aQ4cO8eGHH3D48BH6+vv9SFWej3Rd32kYxttILf4x27ZVKHTFF4tycHBwcHBwcHCYBtNWMCJW90LgJtM0izweD8FgkI7OTqqrqrnzzju54YYb0GM6P4+NjdHb00NGRga5eXkfq1R0ufP4/X4GBwYwDIO8vDzcEUv82OgofX199PT28sF777F//35az51jbGwMwzDIysoiNzeX/IICCvLzyS8oIC8/n6ysTCzLoq+3j+PNzezZu5e9+/ZhK8UtN93E/9fenf5GdaV5HP+ec6vKNrYx4BWCcdjcmAzQSVqREgNRd9qdZRQlaUXpROpWpFaro5k/ZV7OdL8ZaXo6LSAoZCEJOCQTApMYMBDAgI0xXsAbizdqr7rbOfOiyg5kMhMIMCzzfKSS7XLZt+71m/v4nOf5vfjii8y7yalON8NxHEpLStBKcaa3l6vxOJUV5YShKYQMeh55z8V1XVKpNLlcbna72WyIVqb4SGjHOavgsDGmwxhzXGsdRKPRb3zfnzbGlF+6fGXZtne2z1+4YEEsFo2SzWYZv3SR/fv3kYjHmbk6w7m+c3SfOcOF4WEThmEaSCilBrXWByjkWpw2xiTvpy1vQgghhBDi7rjVvUtlSqnl5eXlZXnXJZlMUlJSyq9ffpnWp56ipKzsuhf3dHezdcsWVq1cSduzz7KmpeUHD+Dm85w9c4Y9e/ZQVTWftrZfsXzlSpRSHD92jPffe4+vOjoYGR0ln88X5u5es2oy+/XcR6VQCqzluhA6pRStTz7JG2+8wa+ee+6Ohv6pYggeShGPx206k7FKKQvY2e1ShU+sNcba4pMBENdKXUCpXmvtKeAk1vajdZzizPtiJsmU7/ufaK2Htda/yeVyv8zlck2qsJykLl++rD76ZJdq3/MZxhgbhqENgsAYY+Ja66NKqc+ttV9TmJrgIX0WQgghhBDiBv3oAkMphbXWAeZls1knl8uhgMbGRp574QXWrF173ev7z52jvb2d9z/4gAVVVTQ89NANFRjTMzNs3baN9vZ2Vq9axcMPL6dhyRLe2baNHTt2cOrUKWZmZigrK2N5UxPLly+nurq60LSdyZBMJEgkk6TSadLpNNlcFs/zUCjKysqorq5m5YoVPPlUKxs3trL2kUfueBZHEATkslmMMQCZIAgmKSQMzwbF5IEUhckFKQrJlOMUUminFSRs4fkE4JowNLOFSTFYzzqOkwC+AS6GYbjLWtsCNDuO02iMXeT7wTzXdSPF3z8M9ACntdbnlVKXlFJxinsQZUKUEEIIIYS4Ube0gqGUMoDr+74BqKyoYPXq1SxduvS/NXYfOnSI3bt3M3P1Kg83NVFRUXFDx9BKEXEcEokk3Wd62LPnU8bGx9iydSuHDnUyb14ZTz+9mY0bN9Hc3ExtTQ2VlZUYY8jn82SLk6FyuRz5fB7XcwmCAIUiFotRWVlJfX09a9asoaFhMSWlJXf8omezWS5dvkRQ6GM4oJT6gkIBMZtC6VNIiE4XPyYpFhsWTLEwAfjeBvFif4TVWmeBAaXUKNBFITim1lpbAZRSSMfMKaUmgBGl1BjgG2PstccQQgghhBDiRt3qFqk8MAKsAGKVlZW0/OQn1/UvGGNIpVIcOXqUrpNdNNQ38Prrr7N+3bobOsD8qira2to4cPAgXSe72N3+KXu/3Mfo6CgNDQ08vXkTv37lFX7+i2f+x7C4e4m1dq6p2vN9C+xXSv2rtTY5+/3b5ZoiwaXQsH3p+/oortmWdbcvjxBCCCGEuM/daoFxFegANgBVJaWlNDQ0XLfFyPM8Og8epPfMGRztsHZtC88+/zwPLV16QwcoLy/nydZWfrphA729vZy/cIFIJEJdbS1//MMfeOutt6hauPCOb2u6XQYH+jl69Ahj4xdtEAQpYNwYk7ybKeZCCCGEEELcLvoWf34SaFdKXQLI53KMjY/jut+OD/Z9n+7TpxkfH6empobHH3uMqpvMl4jFYrS0tNC0bBnWWrTW/PGtt/jt735HXUPDXL7D/eCLL/by0UcfEwRBXil1wHGcYcdx5kL0hBBCCCGEuJ/daoERAOeB94DTV+NxOjo62LNnD2NjY4VXWEvedfE9j8rKSpYtayJ6E6sN1hgS8TiTU1MkUylisRjr162jra2NWCzGiWPHSCWT3Os9A7lcjp07P+TDnR9yrr8fIKO1/kBrffZ+KY6EEEIIIYT4IbeUg1G8MXaBHUqpRfl8vqa7p6f+b2+/rfO5HD9/5hkUEIYB2nEwxhD4/g3/pz6VSnF+aJCjR46yf/9+RkZGqK+v5zevvUZtTQ1ff/UVBw500NbWxqann2bhwnuvByOTyTA9Pc3Z3l7+/Kc/09nZSRAESa31QWvtPmvthExpEkIIIYQQD4pb7cEAMC9s2jT6RWfnjiAMY77v/77zyJH5A4ODzscff6w3rF/PxMQVfN8jn3fp7e3l6swMlZWVc9ud5n6RMYRhSBiGuK7LkcOH2b5tG7va24nH4xhrWbxkCa+9/jrnBwd5d8cOvvzyS0ZHR1nV3DxXYFhryWazBL5PJBqlrKzsuuPcSbPnEPg+YRhy6tQpdn3yCZ/s2sXg0JDN5XIGOKSU+ifg4myhJtujhBBCCCHEg+CWCozZm+K9hw8TjUR6Q2P+orQeC8PwlcmpqZ92Hj684HRPD2EYkEqlMcaw5/PPiZWUsGHDBpqamqivryMaixEEIdNTU1y4cJ6BwSH6+vroO9fH8IVh4okExloTi0ZVTfUilUmn2bJ1K1/s3UtFRQVr166lovzbsbfZbJY//cs/0336NOvWrefNN9+kpq4Ox3Hu+AVNJuIM9PdzsuskJ0+d4kRXF+f6+4nH4zYMw4zW+kNr7d+ALqVUXnovhBBCCCHEg+R2rGCQd12i0ajnOM4g8L61tt8Y81gmm12byWaXAfVa62qgcmR0NPrBzg85ePAgi6qrmT+/kkgkQhgaMuk009PTTE5NcWVigkwmnTXGDimljgPNpWWla1LJ1IJ3t2/nq6+/xvd9fvb447z00svU1tUBheTv3jNn+PTTTzl48BDTM1d56aWXWFRT86MKjFwuRzIex/U8At/H8zxc18XzPLK5LOl0mlQqTTaTIZVOMzI6wtDgIGNj44yPjzMzM4PreQmgy3Gc/Vrrz4DTQAbg+8bGCiGEEEIIcb+6LQUGzIW7+UqpcWBcKXUUWGmtbQYaHcdpABb7vr9kZGR04cjIaAUwDygBFGApBMzlKNx8J4AhpdQhrXVHGIavGmNrLwwPL3hn+3ZGRkZYvWoVzzzzCzY8+iilpaUATE5O8h+ffcbAwCDacVi0cCGlpaXoH9FInUomOXHiBIc7O3HzedxicZHL5XBdl3Q6TSIRJ55IkEqmiCcSzMzMkMlmPQoJ2VeBSaXUWcdx9gKfl5eXTyYSibv05xZCCCGEEOLOum0FxveYppA+fYxCAaHCMKxSSq0G1llrV1BIlq4pvo+QQlFxUWs9bK3tBnqttZcAx3GcR7LZ7OVMJrNSKYUxhpaWFja2brwuNXx8fJxd7buZmp5m86ZNvPrqqzzU2IgTublTtdYyODDA1i1b+Mtf/zqbWh4UvjW3p8lYa03xOWOtDSkUR5eBc1rrLuCItbbXWntVKRUmEgnpuRBCCCGEEA+s215gXHPjbIsPA1CclDQNpIGzFFYuYsX3MLuCEVJYxXCVUjlrbV5rHRZv6DuMMU8ArbPHaFy2jNXNzXNbnzLpNP3nztF7tg/Pddm0eTPPPf/8j9oaZa1lcHCA8+eHCIIgpFAsjQDx4vv0iueSKD6XAMaLjwkgCWSVUmlrrVssQL57jYQQQgghhHig3MkVjOsUb6oNhS1Quf/ttddmWlzzcxeAA8CTwN8B0UwqRTKRoKKiAuU4jI+N0dvbi+e6rFq1klUrV1JaVnbT79UYw+TEBPv27+d4VxcUAgX/DThBoZCYLYY8pVQOyBcfCaVUGvCMMd93HkIIIYQQQjzQ/s8KjFullAqBTmA78A/W2saTp045O3fu5KnWVpYtW8bw8DBDQ0Nox+HRRx+lsXHpTR8nk8kwODDAvn372Lf/P5menvG01r3ANmttHxBeWyx8t3CQQkIIIYQQQvx/dt8UGABa6yFgB9AUhuHfHzt+vHFiYkJ/c/QomzZvZnJigosXL6KAuto6YrESPNdFaU3EcVDfycKwxhCEIUEQ4HseoTH0dHfz7vbtbN2+nZmZmVBr3RONRncDo0Doed7dvgxCCCGEEELcs25+tNJd5DgO1tqI1vohrfU/hmH4qlJqRXl5OeXl5SilSKfT5HI5Nqxfx7NtbbRu3MjDy1eweMkSKioq5voxjDGkkkmuXL7M0OAgfX19dPf0cLq7m/7+fuKJhFVKdTuO8+9a67eBuLXWuK57ty+DEEIIIYQQ96z7qsAAZsfRaqDF9/0nwjB8HGgGmoBarXW5E4nEykpLqa+rY/HixVTX1NDQUE9lZSWRSBSsxQ8C0qkUU1NTXLlyhenpaSYmJ0kkEoHneRNKqY5IJLI7Eol8Za29AJDP5+/26QshhBBCCHFPu+8KjFnFlYgKa22jtXaNtfZhoFY7zqJIJFLn+36tNaYGqFJKzSspKSmJRqPO7ApGGIZ4nhf6vp83xmT5NrdiBDgdiUQ6lFJdQLyY8SGEEEIIIYT4AfdtgaG/7adQ1trZ5mqtlJqnlFqqlPqZMeYJa+1aYDFQS2Es7rXyFEbnjiqlBpVSXQoOhcZ0O46D1tpaa2dH7AohhBBCCCF+wH8B1dtb9u4iV3gAAAAldEVYdGRhdGU6Y3JlYXRlADIwMTctMTEtMTZUMTM6NDI6NDErMDA6MDDPxlN/AAAAJXRFWHRkYXRlOm1vZGlmeQAyMDE3LTExLTE2VDEzOjQyOjQxKzAwOjAwvpvrwwAAAABJRU5ErkJggg==;" vertex="1" parent="1">
          <mxGeometry x="158.37" y="340" width="243.26" height="43" as="geometry" />
        </mxCell>
        <mxCell id="mg7U2W_XjqvAakRdbIDR-3" value="&lt;span style=&quot;font-size: 24px;&quot;&gt;Repository&lt;/span&gt;" style="rounded=0;whiteSpace=wrap;html=1;" vertex="1" parent="1">
          <mxGeometry x="465" y="820" width="350" height="70" as="geometry" />
        </mxCell>
        <mxCell id="mg7U2W_XjqvAakRdbIDR-4" value="" style="edgeStyle=orthogonalEdgeStyle;rounded=0;orthogonalLoop=1;jettySize=auto;html=1;exitX=0.5;exitY=1;exitDx=0;exitDy=0;" edge="1" parent="1" source="mg7U2W_XjqvAakRdbIDR-3" target="XwiI5Nu4jvqrMpeIoe5H-23">
          <mxGeometry relative="1" as="geometry" />
        </mxCell>
        <mxCell id="mg7U2W_XjqvAakRdbIDR-9" value="" style="shape=image;verticalLabelPosition=bottom;labelBackgroundColor=default;verticalAlign=top;aspect=fixed;imageAspect=0;image=data:image/png,iVBORw0KGgoAAAANSUhEUgAABSkAAAD1CAYAAAC8y3DgAAAACXBIWXMAAAsTAAALEwEAmpwYAAAFwWlUWHRYTUw6Y29tLmFkb2JlLnhtcAAAAAAAPD94cGFja2V0IGJlZ2luPSLvu78iIGlkPSJXNU0wTXBDZWhpSHpyZVN6TlRjemtjOWQiPz4gPHg6eG1wbWV0YSB4bWxuczp4PSJhZG9iZTpuczptZXRhLyIgeDp4bXB0az0iQWRvYmUgWE1QIENvcmUgNy4xLWMwMDAgNzkuZGFiYWNiYiwgMjAyMS8wNC8xNC0wMDozOTo0NCAgICAgICAgIj4gPHJkZjpSREYgeG1sbnM6cmRmPSJodHRwOi8vd3d3LnczLm9yZy8xOTk5LzAyLzIyLXJkZi1zeW50YXgtbnMjIj4gPHJkZjpEZXNjcmlwdGlvbiByZGY6YWJvdXQ9IiIgeG1sbnM6eG1wPSJodHRwOi8vbnMuYWRvYmUuY29tL3hhcC8xLjAvIiB4bWxuczpkYz0iaHR0cDovL3B1cmwub3JnL2RjL2VsZW1lbnRzLzEuMS8iIHhtbG5zOnhtcE1NPSJodHRwOi8vbnMuYWRvYmUuY29tL3hhcC8xLjAvbW0vIiB4bWxuczpzdEV2dD0iaHR0cDovL25zLmFkb2JlLmNvbS94YXAvMS4wL3NUeXBlL1Jlc291cmNlRXZlbnQjIiB4bWxuczpwaG90b3Nob3A9Imh0dHA6Ly9ucy5hZG9iZS5jb20vcGhvdG9zaG9wLzEuMC8iIHhtcDpDcmVhdG9yVG9vbD0iQWRvYmUgUGhvdG9zaG9wIDIzLjAgKE1hY2ludG9zaCkiIHhtcDpDcmVhdGVEYXRlPSIyMDIxLTExLTIyVDE2OjAwOjE4KzAxOjAwIiB4bXA6TWV0YWRhdGFEYXRlPSIyMDIxLTExLTIyVDE2OjM0OjEzKzAxOjAwIiB4bXA6TW9kaWZ5RGF0ZT0iMjAyMS0xMS0yMlQxNjozNDoxMyswMTowMCIgZGM6Zm9ybWF0PSJpbWFnZS9wbmciIHhtcE1NOkluc3RhbmNlSUQ9InhtcC5paWQ6Y2VlOWZjYWItNTMzZi00YWE4LThkNDktOTc5ZTk5ZjZlNjM2IiB4bXBNTTpEb2N1bWVudElEPSJ4bXAuZGlkOmM5MGM0ZDA2LTZlZDYtNDU3Ny04NTNmLTgyZjY4YzQ0ZmZlMiIgeG1wTU06T3JpZ2luYWxEb2N1bWVudElEPSJ4bXAuZGlkOmM5MGM0ZDA2LTZlZDYtNDU3Ny04NTNmLTgyZjY4YzQ0ZmZlMiIgcGhvdG9zaG9wOkNvbG9yTW9kZT0iMyI+IDx4bXBNTTpIaXN0b3J5PiA8cmRmOlNlcT4gPHJkZjpsaSBzdEV2dDphY3Rpb249ImNyZWF0ZWQiIHN0RXZ0Omluc3RhbmNlSUQ9InhtcC5paWQ6YzkwYzRkMDYtNmVkNi00NTc3LTg1M2YtODJmNjhjNDRmZmUyIiBzdEV2dDp3aGVuPSIyMDIxLTExLTIyVDE2OjAwOjE4KzAxOjAwIiBzdEV2dDpzb2Z0d2FyZUFnZW50PSJBZG9iZSBQaG90b3Nob3AgMjMuMCAoTWFjaW50b3NoKSIvPiA8cmRmOmxpIHN0RXZ0OmFjdGlvbj0ic2F2ZWQiIHN0RXZ0Omluc3RhbmNlSUQ9InhtcC5paWQ6Y2VlOWZjYWItNTMzZi00YWE4LThkNDktOTc5ZTk5ZjZlNjM2IiBzdEV2dDp3aGVuPSIyMDIxLTExLTIyVDE2OjM0OjEzKzAxOjAwIiBzdEV2dDpzb2Z0d2FyZUFnZW50PSJBZG9iZSBQaG90b3Nob3AgMjMuMCAoTWFjaW50b3NoKSIgc3RFdnQ6Y2hhbmdlZD0iLyIvPiA8L3JkZjpTZXE+IDwveG1wTU06SGlzdG9yeT4gPC9yZGY6RGVzY3JpcHRpb24+IDwvcmRmOlJERj4gPC94OnhtcG1ldGE+IDw/eHBhY2tldCBlbmQ9InIiPz5qNRxwAADN70lEQVR42u29C3xU1b02vCaTBJT+EsLFl4KUKNSCApZL0YMIitIjWAg3g197PJ/cRECrEkB+VltPob4IBKmIKAh4Xnv6CnJJQiu2eAORox4uQri0VmysBfszQAifVEgymW/WzOyZvddet71zm73neVpJMrNnz95rr/1faz37+f+fQDgcJgAAAAAAAAAAAAAAAAAAAC2FAEhKAAAAAAAAAAAAAAAAAABaEiApAQAAAAAAAAAAAAAAAABoUYCkBAAAAAAAAAAAAAAAAACgRQGS0ucIfX68J6HXOBAg9Gf9qRO3RH4h5sseiLwXeYUE6O+de7wboL/RP+IbBfOv/RNaEgAAAAAAAAAAAAAAAGgqgKT0CSgZGfr7X26h5GL9F3++I3zyz7fTSxv+x4k25PTJGN94vir5AYO4ZH6n/SH6W247EujYhfKZJKNz9wuRDUIZXa55J3Dl996gbwev/O67wW69QF4CAAAAAAAAAAAAAAAADQZISo8iVHGsJ1VFhv72pzvCp/58e+T3NuHTJ61EJIVxfQ1C0njN/LdsW16nyc0jpEMXEujU/QLdNPPGMXMzOvd4F4pLAAAAAAAAAAAAAAAAwA1AUnoINe+X3U9VkvX7dxTQv8On/07C1VXiD7AKSY5ykret9HXB34Gre5OMzj3OBzp/952Mrj3fyL5pzAu4YgAAAAAAAAAAAAAAAIAOQFKmOKhisvaD3y0O7d9REK48SUj12UR9SaniUfW+ZdNYijftCdFPqMhKts/QmpYmEtRQWgYHjCzNunH0gmA+0sIBAAAAAAAAAAAAAAAAMUBSpiBofcn6k3+5pWbbM6vDJ44k3zAZ4CSvIFNLUkRMmj8rUkbqpHtzvjv2Okma7TCKzUD33iQ4YFRp1o13LkBKOAAAAAAAAAAAAAAAAMACJGUKgZKTUdXk/7xeECUnAw4+bCEHifizEqKTSzQmPhf7J7qJKG3ctu9A8jjoa7ntSLDvsPPBG0Y/inRwAAAAAAAAAAAAAAAAwABIyhRAzd5YrckoOfnZEb0PqRSRUbIw+odaQWn8He0RAbnZjmo76SHHU8Jz2pJg31vOZ944+tGswSArAQAAAAAAAAAAAAAA0h0gKVsQoYqYcpIa4dSfKLe+yZCIiXTu6FVTkIIyAjLxGhGrJmWfU32X+TVVXcycPBLo2IVkjXtkZjbISgAAAAAAAAAAAAAAgLQFSMoWwqWNS0vqRMpJJ+7bOpCRjaL3WMUkmyIu+oyOwpJTBzN489gLmTeOmQtlJQAAAAAAAAAAAAAAQPoBJGUzo+b9svtrS55ZHf603Ebimc1vzG7ZWqnaom1Fn5G9LqtpqdqfbDuFwpK6gmf0GXY+a/wjN2TCYAcAAAAAAAAAAAAAACBtAJKymRCqONazZuvyfaE9pW2iL4iUim4VlG6IRc6+Y0RpIL5D4ki9mSBWw4zBjpPzoW+3zSOZd0wvDd5w5wKQlQAAAAAAAAAAAAAAAP4HSMpmQDS1e1/csZsHC2FJ+LUi2RRqTsq0trKR3Tasaa6j2q8sZVxnewYZNxVcyPyXMXNRrxIAAAAAAAAAAAAAAMDfAEnZhKCu3bXbnlkdrjxJyPkq+wbhxD+S9G1iVUg6TedWvG9OMRcek7mPJGpOBqxkquiYddShkmOnKeDBO6aXtp40byx6FAAAAAAAAAAAAAAAgD8BkrKJcHHj0pLQG2sLwufO6hnIGH8b5B9v2+gV46sVhenVqu9tiFqSJS91PyfbJvGTWIjOjB59SavZz/UKIv0bAAAAAAAAAAAAAADAdwBJ2ciIqifXzl0drq6Sb6iqQxm9Oi4ViE62S/QExX5kRGNiPwG5glLaHGErySr4fPbcdTOR/g0AAAAAAAAAAAAAAOAvgKRsJIQ+P96z9r9/tzj0h7UF9efOylWNKnJR4LhN7WgCgrRsLskXf4/7t+n7bGY5xnY6x8nuU3SeCiWoVip6HJmT5pdm3XDnAqgqAQAAAAAAAAAAAAAA/AGQlI2A2mjtyRWr60+U8zdQ1WUMq+pSCpSRPEdvJ4Y7OscpQkNVnKJjM/7mnb9xvjl5JKPv0Autxs8ZCKISAAAAAAAAAAAAAADA+wBJ2QCEKo71rNm6fF99+e420fRugSrQpnJMvpHY1qIadEMWapCGopRqkWLRvqtwkhN1UtOSZ6TjxJFccD4Z3fuQzLEPz8y+CenfAAAAAAAAAAAAAAAAXgZISpeg6smarc+sDlP1pEqZ6NR5WydNOvoekwKuse8EUcm6cRNOXUnescnAI0S5isiwc3JS0KbU/Tt7evHMrMGjQVQCAAAAAAAAAAAAAAB4FCApHSJUcbznpS3F++rfL23D3cCJczbnfaGqUWWmw0uVbggZKNu/7bgExKbo/HTTwXWPLSePtLoPRCUAAAAAAAAAAAAAAIBXAZLSAS6+urSkbuPTBcnW03DEZgm86Osk8ZowFVy2X2MfhNj2bdmf8T28zwYE38Gel7b5Tdx4R4dEFZwb99g5+4m+xe4npy3Jvq8Yzt8AAAAAAAAAAAAAAAAeBEhKDdS8X3Z/6MOyZdHak+fO8t20eRARfG7Vlo2hzOQa6wTkZCf3uwifAOUdj5lYDDMO4k4hMSGiqd9Z05ahRiUAAAAAAAAAAAAAAIDHAJJSgYsbl5aE3lhbEDXGUcEg44w/jd9VJCPPWEawfxLfn+O0aRHZqZFubVU4arp3q9LTbdsG+OpOHZj2GSUqpy+DohIAAAAAAAAAAAAAAMBDAEkpQO3e7ffXbFu+OnziiPUNbg1IIk6fZsg9o7255KXIeMa8Le87RO+zxyqsHZl8W3u/hPDTrkXnL3udq+4k7s87J49c9mRJr2D+tX9CTwYAAAAAAAAAAAAAAEh9gKRkUFdxrGfNluX7wkd2t0moJ3VMa2TqRjfmMDpp1NHf4/8ItyXJtGzTObBp4Lq1MYXGPuz38T6ncz6674nS541jyG1LLnuyFEQlAAAAAAAAAAAAAACABwCS0oRoavf/vF4Q/iyunpSRjCL1pAw6JjLs/nWUkk6/2/hMTp5l14mucL7KeeO5OZbG3Cfnc4HuvUmr2at6ZYKoBAAAAAAAAAAAAAAASGmApCRx9eTW5fvq95S2kRmzWH7XMamRfV4Ewf61XcA5yOjeh35+R0bn7p8GunzveNyHm2Rc+b2jsV5AEj9Cf/vzdQY5Gj71Sa/od3/5WY/w6b+PFNbljBOq3BR1kWO4+TU3JDAvNZ4wx5DbjgT7Dr1w2ZyXvoVbHQAAAAAAAAAAAAAAIHWR9iRlVD257/WC8Kfl8RYJOEvT1lFFGtuJ6jDq1m6U7df8M7fd0Yy+Q9/O6Py94xnf+d7RjM49PqGbZuZf+w83bRSqON4pdPIv10R//7BsYv2XJ3qETxy5PvJdnbVrRoqI3kRPFLueS417iIDANTl+B/91Wmnru+ePxe0OAAAAAAAAAAAAAACQmkhbkjJUcZyqJz8Mvbctx1FKMY/AZH9PtG5AXjvRtm8iMLYx1by07NdihHMqo3ufQ1njHl6c0eW7nwS79fpHU7ZfXcWxTnUf/n5c6I21s8PVVTRvvLO0jdj3CKN6FNXyNM6XbWfedeFtG//Zau66mVlw/AYAAAAAAAAAAAAAAEhJpCVJefHVJSV1G5cU2IhFF+nUBtEm+mnakCEyA8mak06drU3I6N5nR8bAkduzbvjRtmB+0xKTIoQ+P97p0ubix8JHdg8PV1ddFzsPop2u7fTctVPfaco6iTmQU0Vl61/A8RsAAAAAAAAAAAAAACAVkVYkZe3esvvrPihbFqK1J80QqR2dpFvzttcyyBGrDW1pzvF9UcIt0OHKHRkDRm7P+pcfbWtq1aQuKFlZs6X4sfpTJ3qEPzsy0n6uhE9c6qa7OzDSsalOIz+DQwpQnxIAAAAAAAAAAAAAACAFkRYkZejz4z1rthTvqy/f3SZ87ixDfBGx4s9Q4kVbKpDcnmimfEuUmjw1oF19aT+2QPfeO4IDRm7PvPFH29zWmGyG9u5U+9+/G1f3xtrZ5HxcWSlrI7YP6rQpu8/ET8JPmY8js3B+aeu7543FrQ8AAAAAAAAAAAAAAJA68D1JWfN+2f11JStW158oV2+sY24TJymNNGLb56Ot6tBsR8/t+lTw5oIt2ePnPBVMUXKSRajiWKearcsfC+0pfZA990T7yepWyox0Ej3YmeFQoHtvkj3uEdSnBAAAAAAAAAAAAAAASCH4lqSsqzjWs3br8n2hw7vakPPnHKUKqw1uxO9bzGAsLR1weyqnArl5VdnTl83KGjxmtwevg9lg5zpRCrulbY3XnLie66SGI+0bAAAAAAAAAAAAAAAgJeFLkvLiq0tLQm+sLQifr0q+mDjPAJMOTCx/cx2nBSnELOFmVldKzV10ybecvKMZfYe+ffmcl37q9WsSqjhOVZULQntK7oqcZ8wJ3JJCb2pjVfq3Dklpa1rT9cjJI5l3TEfaNwAAAAAAAAAAAAAAQIrAVySlUXuSNcZRpgezCAvSuePvaZm5KNWYROp+TV27M8c9vDjbg+pJGS5uXDqzbgdTq9LcHjxyWJVGL7sGvM9FXs/o0Ze0emBVr2C3XnD7BgAAAAAAAAAAAAAAaGH4gqQMVRzvWfvh7xaH/uf1gvBnR6xvyggunulKdFvBdhqwuEoTnhlO2G4WY3o/kJt3NPiv01elkmt3Y6Nmb9nQ2rVzn6fp30qCUXTtFNeFvQ68z2ROml/aehLUlAAAAAAAAAAAAAAAAC0Nz5OUNXvL7q/bFjfGERJehKPSs6cOa6dos0Rj/HebGYwsPdm+31MZNxVsyfyXMZv9pp7koXZv2dCabc8sCJ84MpLb7malqdlR3dZ8Yb6BkWpb+nvbdqT1k6VQUwIAAAAAAAAAAAAAALQwPE1SXtq4tKSO1p6srtJX1fEIRtFnFGncdpOcgDSFW4BTJCevKvOO6ata3z1vdTp1Pouikm1joz2JwGHdTGCaU8Il15S9fhTBIWPPXzZnbS5CAQAAAAAAAAAAAAAAQMvBkyRlzftl99esnbuaGMY4qjqR4cQ/1lqTmoSlI2dwEXjHmNvuaLDvsDcvm7P24XTtgNRQ5+KqWeupotK4DgkO0mlNT9X1tBkgRf7LzSPZ05fNzL5pzAsIBwAAAAAAAAAAAAAAAC0DT5GUdRXHetZuXb4vdHhXG0LVk2aHbTYdO3p2AXFNSNHfstdE+9QBs89A9947MgeO2t5qUnqpJ3mIpn7zFJVurhFLQIu2NZCTRzL6DL1wedFL30I4AAAAAAAAAAAAAAAAaBl4hqS8+OrSktC+mDGOOX2bS1LqQuSwzdSSFJqwEGL7fiWBmZN3NKPP0LdbTSh6KpjvT2McNxCmfju9jm4IzZw80uq+ZTOzBkNNCQAAAAAAAAAAAAAA0BJIeZIy9PnxnjVbiveFDu9uE03vtjhxy8mnBLkYPVO+YY609iRh0sOZ/Ytgr1UZP4TufXZkj5+zOGvw6N3oenZc2rh0Zt0ba2eHz529jms4ZL7mqhqkKsKa6UdZdz9a2gpO3wAAAAAAAAAAAAAAAC2ClCYp/7l82tfh8t1tosY4FE5cs0VQkZzmbYzfoy0lSR1mnL2Tv5OYwi8n7yg1xsn6lx9tC3aDelKGb5ZPeza0p/RBYVsnrknA6tguSePXIS0DV/cmrR9Y1SuYfy2cvgEAAAAAAAAAAAAAAJoZKUlS1u4tu79224rV9SfKGcIw/o+KWDS/Fj1LuRLSTGIpa1jqfG8SpzJuKtiC1G591FUc63Rp1eyYkQ7vOrIu3mbCUvfaCF7PLJxf2vpuqCkBAAAAAAAAAAAAAACaGylFUoYqjvWs+/D3i2tefbogICISdRy5E+fEqO3M7+soKHmfYb/ffAym2ogwxnEPm5GOyn2daXvZ9hYS2vhM/Jpm3FQAAx0AAAAAAAAAAAAAAIAWQMqQlDXvl91f90HZsvo9JW2sqdYmlZyZVIoevWuFox7ZafsMURrtBNq2OxroPfTtzH8Zszl78BjUnnQJWp+yduOSxyNt2pnoKlsl5QCUKd+xa0eypxfPzBo8GgY6AAAAAAAAAAAAAAAAzYiUICmpc3fdG2sLDGMci1kN+7cTiExylARm/B8ROSb4PaN7nx0ZA0Zub3031JONgQtzb309/Jkp7Ztte9HrvN+l9S1Jok5p5iSkfAMAAAAAAAAAAAAAADQ3WpyktJnj8CBSMKreS2zDmt8Qe2qw+X3jdX2l5qngkLGvZU+YsxjGOI2HmvfLhtYUT/2/kV87C4lHUUo/0ewTln4ReS23HfnWy58E0PoAAAAAAAAAAAAAAADNhxYjKUOfH+95ceWs4+HPjiRfVKVes4SkyqmbNVxRkVhO3cPD4X8EevQ9mDX24cXZNyG1uynwz+XTnq1/r+RBW78QGSVpEs1RVS3bN+I/Wy/f1SsTLt8AAAAAAAAAAAAAAADNhhYhKWn9ydqSZ1aHT8QJSsbAxFG9SBlZxVVMBvhEJyFOyMlo7cngHdNXtYYxTtP2FWqis2buLlJ9NtkXONcsQTrytnF4neHyDQAAAAAAAAAAAAAA0LxodpKyZm/Z/TVr5q6O1p9UwZamral01FHUiQhQmSoz/lpwSMHKzBsLNmcNHg31ZBMj9PnxTpc2Fz9Wv6fkQWVNSTfgpI5ndO9DLl/6NlK+fYa///1UzpVXdj5v/ESLAAAAAAAAAAAAAEDqoFlJSotBjgwaRKH9M1b1JWu+EztbDWWdeTuzaU+0XmHe0Vb3LZ8V6Nz9k8z8a1F7svn6zczQH9Y+b6tbKugPFidv1Tac9wO5eaT1k6W9gt16IeXbIygvP3r92bPn8s+cOZtfXV3dtarqXFf6+tmzVfkBs2kWg7y8thU0WuTl5X2Rm5vzRfv27SvatWtbEfn7ryAyAQAAAAAAAAAAAKD50GwkJU3xrllrUlBaSELjaIy3rIRCLJU3pnLjkg08ZaUOoWn5bOxALKRk9Jiiv/8jeDM1xil6CsY4zY9QxfFOF5+btd7m9E2IkHyybkTk5kpmAx6KnLYk8477kPKdwnj33T0Ff/3rX2/+7LPPb/7ii1P94y9nVlaeFlxicz9J1JeI/jTe69ixg3n7uu98p8uBq6/Of+/qq696b9iwm0rR6gAAAAAAAAAAAADQdGgWkjKqoNz4dIFWTcCG1qFk98ESUCw5GiBSEiuje58dWeMeXpw12J/GOKGKY52Mdko0Q+TvVCNjqZqybtOS57Wuv6xf6JQHoNf9poILlxe99C2EiNTA3/9+Muejjw5MPnjw0I8PHDg8KHbZwvHLFpCS1cn3mKch1qK1zHt29O/f96N+/fr+dtCggRv8qrKkqfAvvrh+Z/SBTeK2CAjak9valnakStURI259qk+f6w6lY7/dtev9gjfffOexaHQNE/UDFUs72vs1bc85cx6YlHrnuSdynu8+puoPov4j6lP8hwv8tuK9nkzKUO1DNt0Ix6cTAY17gPcAhB9XCgvH3eeX+yIZN4giBvNfM/8+Y8aUEVCxO8MTTyz6kL1XGiN+615L831l7fNh5b2vGw/DpvuY3tkBIrunw5rnzVsEcD4b+d/9M6amZL+MjTFvPxYWji+yGKxaBPkzfhcWjo3E3t6HEDkI2bp1+0MabZgZab860WvG7+PHj/61V9uBZmP95S+f3aLbx3htwsOgQQM8v15w2jai9urQof2nXhJ8UDEMzcZrnL3J2k417trGUabvOYrf9nuZRF4jvL4sHxd1zisSfk3fZ932u9+9+l3VHLjJScqoSc7auavDphRv3qCh0cMd1x3kpvSGTReOU98y8ZmcvKPBvkPfzho/5ym/pXbTOo+hk3+5JvRB2cT68t3Dw9VV11k2iJx7Rp+hb2feOGZz8MrvfpIKhGXt3rKhl9bMfZ6cjx+rhrmRLiFpeS/eLwLde5M2S99BXcoWXvieOPHXW/fvP/jjw4ePja+sPJ1pXqzYJ9qcBVN8McPfNkkk8OKR+TPmBV/Hju3r+va9buuAAf1+2737Ve/4aUFN2/xnP1t45vTpM5n8AShsuk3UC0OqTh0zZuTDXp68NgTLlz+38a23dhfK+p+I3DLa2LzonzhxdPHkyffMTUWCynh4oDPxUpEVfHKPtz9rG4a5C1or4Rtt24DZq49HJoaZqUFAclzySaX5e82f7devz0eLFj1xgx/6+YYNv1m2eXNZkQ4ppIrf8+c/NBbKdWf334wZD1fbx7qGx2/5e/IFq9Hf2XvSrkOw36OJvy1kpPi4zOsY63mJSdLYvgXxifle+rmnn37y+6n2UIFe+xdeWLfz4MHyQfxrw3/YpbcW82/87t//+o8WLnz8BkSP2Bwl8qNQdQ+w157TBzal4gNUXRJu5853HrO2gzIFTxUTN9E1gh/GMvogJLIOK3EeF2xttMkrogWjT0TOqVD00E3JPWnMEZ1s6zx+BxztT/99ISGpeABqFQvl5eUWjxhx2y9la+gmJSljJjlFq8n5c+7IR1kat61+JOE7hDv5nhhBRzI6Xrkjc+zDi7Nv8pd6kqZNh0795Zrabc8sCJ+Ip06zDuhsfcare+8IDhy1PfPGO7e1NFl7Ye6tr4dPlI+0KWatM145QcluK+gPge59SOsHn0ddyhaaeH/00X6LalIV+NUPPsKWBZF5ocZf3BEhoWlsQwm4rl07f3T77bc+5Sey0iDW9BcjAemC8Lbbhnp28tpQ3HvvrNoYuS7vrxZCPNqK/IX14sW/SMmF8osvrq+O3KvKiRt7zjxiwd2CWrVAlk2qCHeyKO7b/Ek6L37YF8jJ96ky2y8LZTNJqaeqEl9bkJRuSMqHqnnKycaI38n+biWFrPdiWE42OlRvigjs5PcSxX5l5Jc9RmgsrlM89h5KtEeMwGNIPUJcKlj9Gb9jsfcJkJRckjJMnBLT8Wu7pajowYlejJ87d77986qqc9yHbKKHjCpiJz+/m28eztNMmf37Py5xEit4faVt21zygx/0+74XVMxxkvLjhqhH1aIYceZNk8TvQHJtwY6l6vtcRUI6Jzjz879DBg0amNsiJCUlKGu3PrM6/NkR/VqRbkklGeko21/Y1JiBKEF5NHPk9FVZN/5om99qT0aux1CqnAwd3v1gtC6orlM6iRnJBPoMXdlqfNFTwfyWa5dvlk97NrSn9EHl9WZS1x31G+MzOXkk+75lM7MHj3kB05jmA009oeTkF1+cGlRZWclVfZifpMtTtWQSetF7vLQ13vckj+WKKzomyEo/LK7pNVi37pUVRhu5U5IlB8FI+9QVFc0emG4p3/Tp84YN/7WZR1LqTGTYdk5VUuuLL062W7Nmw5n9+w9xSTrzxEh8n9mJCKcTMydp2fKURZ1Jlo6KTE6e+JOktJNDTuP3/PkPg6R0tMg+mXPffQ9Xi5RrDY3fAbcZTMr9mdceAQ0yyp7qrSbKRIrmAKd95KltXnhApCJxeSo4sTLOv/HbT7G3oRApKRN9gLDXXziv9uTDaDrfraj4fIW1X/PLIOiWOsjLa1s8YsTwX/pFuEDnsvv2HShxS5aZ22jEiFu/7yEl5cey+Z+zOaO6/AWr7rerme39UhW/1eO9k2wLRfwOiAUWvHaI3CeR/jC8ZUjKC3NvDUcJSjNppOnMbRrh9MhHHdJJpKyMjcKnMnr0OZQ9+7kpfnTtvrRx6cy6N9bOjqZ1ixSoopvJ1E6BHn12tJ69akqwhdqodu/2oZeWTfm/kV87269z/MZVEK7cvsQjbHPbkcyR00tbT4J5TjMOCI/F0rorM3lB06x6lAdBfqqPaBuzutIe7HUGgxg6duxQ17fvtVu9rhqMpnw/vvDM6cpkyreujN8qbk7vFE6zIlVngmKZ/HDUvRMnjimePPnf5qZif5EpKVUpm2xaqFrVJFIohpnQzl9MuK+LZ7+OuqQPjxTwq5JSdr104jeUlM7vv2i6t7BGc8Pjtzxmye9r2WKfPWYzwSbbny4Ryq97KqpXKb+P//f//vn3+/btndJKSlnZEP06nf6P3wMGIN1bj6RkSUlxaSUvkpRbt5Y9VFHxt8FEK81bN46STYWF46f7qQyUNd1bdC+q6yrm5eWRgQP7eYikfPtjokfQK+Kqu/RqvQzBxnmg7iS+ympCi8cLO8Gan9+N1mxtfpLym+XTq0N7SnJczGuURFLM6ZuI07wdIpCbdzR4x/RVrSfNW+23wYfWcayJpXZfH2mfzlxjIVF7C65HlKh84PkpLaU0/Xp8x5MJklKRwu9ITQnznBacKGx/qKxsxzJzzUk2MOsRPDqTKvkEnV08iVPo7OSmmay8994fT7zlliGeXWgnCTbdAC6qzxNrp+HDb/ZkKlADF4/ROo3JQZufdsibhPDUKalYE8041xdeWFd98OBhYq45Y68XRmQLHMI+EBCTJXr9T38xa18cO0mTdWYO4X8lZUPjN0hKNySlke4dEPa3hsRve+oZIboGUY0DVtUX1ognPGJBbRSTVI5ZHxh5o9QGazajtzi2E8r+jt9+qgfcGHM9M0nnzCjOAk+RlHHi7cexc3dfv4+JiZv8aBTJkpRuYzjFiBHDPaekZOd7OnP2hrRROOxcxahayzp9wOgsfusdE4sWUVJe2ri0pHbjkgIhAaRKM+b9HY8A0pMWuXuLTjyXmsMMezN7/JzFLZnC3BSoqzjWKfTh78dF1ZPnzl5nS28P6BN1vNcyC+fPan13y5C6F+bd+nr40yMjSaABNwfTVywqX9N4FBxScOGyOSApm3KCvWnT1rVJtVmYqOtq8RbBJtVAgChclPkupOaJOLt/qwTfnk4uUmBOnXrPw+PHj/FkTZp4qnJJZeVpiRqFDQ/iGmI05Xvhwp/9r65du5xNh75tbz9Ov+LWRWMXg7H2pHU9U/XpvHWhzCp47OfiLFVavngVkSZ64wJ/38nJGSFOHnCoa1VaY4+f1DwxkrK0qDHi9/x5D4318gOe5r//TubMmPFItc795DZ+qxRytnsyYCX65It+yX4EZAlv4aXKgJARDqp6e/StGEmZ6kpK8eJXVB+Xp3j1e/wGSSkiKXXvV17bhjfNmfOgJ0hKSkDt23fwHrYOpXvSKdpGmwYM+P5vhw3z39ilT1Ly11cGYjUp+/sg3Vt+7vLXXNKX0hrpenPRxiAXWRWlPqFqP85mV1LWUqMc6uRdXWUnGY1RQ0QmOq1VKfuMgmzL6N7Hl8Y4FDXvlw2tLXlmQf2n5SMDgraxKAxZ5/OAVoc9ddny3QNagty11KWUEd42spvwDYIkStxIPyGtZq/qFTlPmOc0zeR6Z2RyPUj05JtbP0nLwVQVKNmwEJC4UcodRg0Ck12cG8c3YcLo4h/+8DbP1aYxXx+zgkW0iNSZ0KWTQmrDhldM6a/6aRyilItUTfVmSUoxeScjBkS18/i1eKw1suQ1pESTO/VxOqlt6zwFkZ7FFR071r388vNZ/unv24saI35DSen8/qPp3jJyqjHitypGyeaMtjR/oVmdzsJXrPASq0bCknRk+2d5D4xSWUkZqwfMWx4FhKmZvFqc6RK/UZOSJSnDhWKChdeu3D7hCSWlyCinoURlt27fmTthwphiP/YRO0npVKmf/JwXlZS8cUSL0HOkBueXJRGayHHWpW7GcTUJqiYb3W7frErKUMXxnpe2Fu+r31PaRkV8Oa4ZKHtP+DuHfMrJO5o1cvqqzBvu3Bb0We1Jqp6s2br8sfrDu4eT8/Hakzrtx3baRM+QX59A99472ix9Z1Rzn+fFV5fOrNu05Hnb+ciOW6LOlbVJ4OrepNUDq3pl5l8LkrKRg/+mTdvWmJ27ZQsK66V1r4iwB/ewvQtZlJjWWl06T/t5x5LKKjjV5PWtt3YV6ijDdAamdHH5ji0c1+08cKB8UMMW2wkX+brJk38yMVWJG2VNSo2JXPIeV9/TuioqXiFvXt/UXQQ76feiOj/mffTvf71va1I2JH4/+iiMc5yAGlfdf/8jZ0TkUWPFb969IVd3EGGqtUFUmY/FOi1r6INIJwtDu0EM7/73inEOL27xYquu6YMf47efYm/jkJTWmpSJ8Yq2Z5gXv7nwxPyOjlUqgtJp7PGbUY47kpIdb+ztRkkpb9Wk5Ckp5WvPhqR9i+OWbBx3vk/e/mX+DaqyKk4yi8xoViXlxVeXltRtfLpAqGCUpWA3huO3TF0ZDv8j0KPPwexxjyzOGuw/9eTFjUtnhva9Pjp84shIJSkpUplaGRo5uRk1lsk7etmTpbc3N9lLlaI1xVN3OSIcRWnuilIDge69o0pKkJRNQVDGFJTyoGoeCMXBTh5k9Z76qN0u+U/pdRYF9O/bbhvquZqMdGLy9NMrSqy1yHQGMT4o2eYX5Ziq3ZYs+XWJbDHmZCLTv3+fyIIqdVPT+CQl69zLXzzy+xVvEcrui3e/8ybJTiZ3PHWRLK2G/zdbv884hABT+82vxjkNjd9QUrohKR8+w1sg2mtJuo/f/PuVT8rrjrfaRBnXcIkQd6nbesp29jtSl6RcF4m95YI4pryiRGyI4t/4DSWlmKR0nBWQvJdTfo4bd/IezFeOugMlKAcO7PeK3+pQykhK5/PY5L3nbXdvdwY47FgpHovd3YPa9ypnHOU/CBJ/xs28QfS5ZlNS1uwtu7/WSPOW1ZrkkUmWoxETaRbDHFXNSUY9mTnSn8Y4oc+Pd7q4ctb68GdHrifUTEZO1Aqui+qe46fkB3LySPCO6c1em5IqRi/OGfYlr5/YTJWIgpRU9p22pNV9y2dmDR79AqYyjRP0N27cuubgQaows6dfWZ/ayokdlRJNTHgSJTkpm+Tz0sB00ubo67ffPsxzSsJ7751VSw2NZIs4UY053iIwHVRSRn0+ndpaOu6zqa5ATaQcHjikIBLCUnMDVYFvpyppp8XH2b7LVeiYJmz6qZH2yakfa1K+Rvt8I8RvkJTO7z8j3Vu0eGys+K0aH0XjqKycCnssonjozrFcSqpIaqXaP5/6JKWd1NM3TWDTsP0dv0FSmknKlRsjbVPIUxSz45c4RsRqMqbyPIUSbfv2H7gncm4T7OcQ5s7n+X3L6mjuR6Mce9vtKdi//+MSNakmfqhL7712nnP3NkhKt+ntsrGIfRDklPSUb8snF/Wzudwdi6p0iBXNpqS8MO/WcPjTcn0XZZb0cpPaLXrP+JmTdzTQ8cq/ZY17eHG2z9STlKir++D340J/WDs7XF11nbJtRASd5msi8i84pGDlZXNe+mmLkZS6/UpXqcuQ34HcPJI9vRgkZeMRGTvFKd78yYCThYjeE3b9p4C2RVKcRJWlEfHcm71SW1CHcLMTsiJFRIDb7l4kahurn8sIc9GCnKpPi4pmD0zlSZ1YSRmw1Z7Trwenr7KyT/rclYEQEYv268JfpDv7Tn+nezckfoOkdH7/3XffQ9W6ZnENid8q4xxrKRUdklSssEwsUnjEKhGrPxzVynQQFxYv/nkKG+cclhIsruOfT+M30r3NJKU93dtNu6eyklJtlOOqfNSmAQP6/TYdxipKUkbar0THuMr6UIrYxoEf/nC4h0lKVZ8RtQkh+iXCCCGksZzD1TV/xeRiI5r+CNSYzaKkpGY5l5ZNXS0lvrikWez8uY2vIs/C8X8E5CV17g7+6/RVLeVA3ZSo2Vs2tO6/yybW7yl5kLDEIasw5bajKW64MSsyIeOmgpWXF7UASfnk2C9J9Vk7KanbBrr9LILsuetmZg8eA5KyESZCMRdv1lWU56Btn2haghanNmRTyeN1BwneIo23wOvQoX1dQcGouePHj/aE6zcdqBcsePJjIrk2zupBEfL7328K+LWfx9rrPz5WLYztC3CekscbiymabrpmzYYzorpoIkMKvpGFfmFyt6QDz82WS5rZJlYO0mJ5aTXEqtLyX7o3qx52F79BUjonqlglpZr8cR+/7Wm1/EVVggx1pT4Wj6/m9ZaIOBMvtCTHy0l7M+871Y1z2LGDaLir65DHfozfUFKyJKUs/TlsM2MSkBwp+QCa3iN//ONbPz93rrpIpubXiY0MweIpwUHDSEoj3bthKb7+qEnpfD6oZwhGiFO1pn785mRuCc3rdNfVurUpiXA+0uRKyrqKYz0vPTf7ePhEuT7ZJTtPXbWfGKcybirYkj1hzlOZPjPGoYg6W+sY4zi9f3jkHUuAct5rCSVliJKU/zH2y4SDvG7qv2Y/Ym+y7KJ1M7NvAknZ0AEuWaNP9ZSJ9wScs6iQusTa6ynxFY7EZvDgTP5OJAOBeELnBXWcGUbKt3LBo3Sbi22biou9xiVrqKIszO1/8sWz/e+pU+95ONUJbZl5g5bpQkCtihLf5/J4wlPS8Igy3eLiburv8QmScCQO+Mnd29zvGxa/QVK6Jynl90fjxG/ZpJN9+Chf+KuJAtX9rj/5VZVwCUjvVfrZp59+MsWNc/jpgzo10EQLU7/Gbz+V2mgckpJVUurW3rOmPqciSaljlONseRwm7dpRo5zbfGuUo09SOicavF2TUnctSLjtIq7v6IyIdLYWVd3HhOj7QzjjT1QPCZtcSRk1y9m0pIB/3prmJTrEGHOubPpxvGFOZRbOX+Rb9eS2FQvqPz3cL3KinWxtSoi8XVUp0PHfLTeDzDU9fm0zhhSsvHxOCykpz1c1dKRR1++MoNXcdTOzoKRs0CT68ccXnYmRXPzAJUsRMCss2eBr9FXxk3V1oHfzpJ/9Xr6DqewYU98MxU5AlBZZA42OQoW/0OzXr+9HixY94csFQpLQlS24CLOgFAfwF19ckZvqE+HkQvkQSaYI2gk96/DuXE2lu/iVk4dOJ9U6xc7l9e+Sn7PGBt/VpHyttKgx4vf8+XD3bihJqWdK4i5+i1y47QSSXfWmU2eQT3CHFXFDZNYS0DDF01tspr67d1ioblSZVlkIvzSI31BSJlFcvHJzpF0mqB66aaipU46kfPfdPQUHDnz8Y7tSNBlPnBIx6WCUo09SysgaP7h7v/0xf0zklDoRzPV01pWNRwqK7lm3NX6J4+N0Iu5pUiVl6PPjPS+unHW8/kS5ydCGODdhsThgBuRkEu+zkZ+Bq3vvyBr/iO9qT1JjnJotxY8l1JMNJeTMJKO5vV2mSLcESRmqON7pmycLYiSlqO/wDHVc3pxI924YaFHuN9/cXShWkUnSdbiGNLJFCf/vjh3bk8rKM/HfO0R+Py0MqjoFoFWDhY5ahL42bdq/P+yFtG9zyrdRC0y8MLVeHzZNL1ZnsX3dokVPtPfbU2iDLBA54DqFVxZSLEmpvkfDtqFdRuY25uQqsU+SrHgiJh9lizT9+9/r11eXpGTTvd3Gbygp3ZKUahVvY8RvUb0/3qLIfG/xaxU6JbxERJw+YcWLMebjEMXv1Ccp5SQdPz7JFKv+jd8gKc1zdH5NSp2H/0w7pxRJGVfCPRY5j0J1OQjt0lFpU4eSJSn37TtQ4i7uWuEPJWVYOV44JSjdjV3u9iEnGnW9HhoWw2Pp/7mR/nBb05CUFzcuLanbGFdRmkghqcOym9qBJpWfofALk6TaL2PI2JV+S++masH6k59eU1vyzILwp+UjLUScdP4W1mpPyy50rpOZ4DSl5ge699mRNe6RxcEu3/0kmN/rH83VNpfM6d68mNDAWpvm15Hu3bCBbcOG/9psVVG6C9yitJ/k4BBNnyRdu3b+KJaOkVeRl9f2i9zc3C/YfVVXV3etqjpH/8unn/vii1P9I3vJZMlL+0RN9/jYCTt/okfrU/7qV6lP1hlmMPv3HxokW9jJUunM7dOhQwcyZcq/+Y6IMFJeeU645r91VC30d684ofNSDmXqYlXNPJUroU7sEJk3qCZmvLINdndbXaKS2EgYvy6UrcY57uK3ESPnzX9o7C3DhoCkdExSylPDVMSc7n3EOnYnk2sCDu9XXcJR9sAwzJnGiVWTug8QefE7FdO92XrAbCwzzsNZHPR//AZJmYShpHQyRxcYW6UMSSkjKB2tO6x9eVN+fre9Xqkn39hrOXm6t7YK1dM1Ka39npCGGstIH3ybHgyq06idxVUnZKabbUVxmv3+JlNShiqO9bxIa1F+dsTZuZkff+k4USsIJFoTMXtC0VPBbr18Q1BS9eSlzcWPRY1xeG3g1gmdKAhkXfLOeC++H+qAHehw5Y7gwJHbA12/dzTYuccnwSYkjGn7fPPI0C9d1y/l9C0zAc6qe7PnrgdJ6RJJsxz5AslpkDVPjCjR1/f6a0uvys9/r337dhXdu1/1jlPSjy7yTpz4662fffbXmyl5efjwsfHJGoyWcMmdQKsXhuJz9Yrbtznl21bfkzUJERZkTraJH12+jVRv/uJQPUgy6l/PqE3NC2V+f1e73pvbhqqd5ZMIIjBnYAiwgJ08MWqokTBRqH349d3E58Svxye5/nXDhg3+tV8K77MkpW785in55s17aOwtt4CkdE5S6kzAGyd+8/q03VSFEJl5i0wFJ0oHFleF4hk0BTTGYH66Gi9+e0NJqUrPJUSmrIzMp7hx2Un8Vi9qWzx+140ZM3JuOpJNonk60axJySV+SaImaUrM6eg9sXPn2z+ndSgbTsokSbj8/G4Pjx8/Ji37TJKkJNL5jjx+xz43YsRwT5KUTly69UsA6e/DOk7LsgJ0xrmGOXfLsw9lRlvW+E9LJ0T6wy8bnaQU1qIUEUUiZ25dBSaHIPOjgvLiq0tm1u9/Y3T9CZN6Upds0yEoJU7griW95v3k5JFAxy47Ap26f5p545jN2Tc1fvp9NN17ztAvpaQkLw3coYGOAdSkdD+oyVSUMom8rJi+cfmo6QRd5DdFbRg6OP3lLyduKSt7Y9lXX1VmOnU/5ZGXIgUHNdFZtOjxlCejaJsUF6/6uLKy0rIo1FsI2hcpVMkwY8bUEX5J+abts2zZc/tOnz6T6WyQ56cbeYnE5aUc8sgonUUtJSjHjLnj4e9+9+p3dUmFhkwYdSdijQXzPv1U08pMUurEbxmRO2/eT0FSOsTWrdsfEvd19cIlcg3oOFfnoj8nPkd/P3/+/Letaf9hbgJVMjbIajgHog/xcnNzvmjowlC2vXEOqjZIRVIrFnvXRWJvuYBIktcMsz4Y60AmT/7J2Hbt2lY0QqQjqRy/06meoAp2klLX/M3WzikxZ9m6teyhioq/rZApteUGJvY5mQ6Z4vf1HCUp7RkiVpU7r73Nbe0lJSWNrVVVVVedPXsuPy8vt6Kqqjqfxkb6N/tT9b6zn1X5NBPQ/Do9HoMk1iElRYa0Rl+++uqr3pMdw5nIMbRnjiH6+pnI6+3zHJ5TbuQnv210YrFjktKoRWlTUeoMGGwY0FUIMgRUxs1jV7YaP+epoE8ISqoOvPjcrPXhE0euj5xfZ277mNqISzjyFoO6ykIzmccjQmWvicjRnLyjgY5d/hYcMGp7Y5oZ1bxfNrSmeOou7vc6UZ3qIKctyZ5eDCWly4mPoaK0kzLJAY5NhTU9lRVOIPr3v/6jwsJx9zX1QEcHqT/+8a2fb9myvUg1OOgVgOeni3rBwTmmllu/48CBw4NY4wSxkkFmaEB8ldZJSYJ1615ZwVd6WCfGspRD43cv1eWzp3sHlK69IlL/iis6kkWLHs9N18WAt0nK0iKd+K0iL1CT0tu4887CsM7116nj6gXjsFSJvWLVdpgzTttVqbRcDmJv+sGa7t0ghVWLk5RxMu3HJEq6OnlgIz+vESNufSqdiW27kpJom3Ox23qlJmWqxfmdO9+uPnu2SisjUfaAJqYI9o6K3DFJWbu37P5Ly6aulhJcbmsCsuY4nH1n3FSwshVN8c73R4r3xVeXzqzbtOTxKDmpUvop0t+l10Sn7WWf0fnu+H0TXYwn62eeIjl5VZkjp6/KuvFH2xqamh9vr+cdf9DN+eXkkez7lsE4x0VAZR29BTVsiMwsh0dqtER6tFGTkRJ0qgFYNWDztqWkqxfqI/HrzokKSPMJWfP5eyXVXQdPPLHwwwMHygfppQ5ZX2PThjt06FA3d+4DA70ykbMb5/Cut7rEQ2yh3AELZQ+CX4/VHr/594S1X4Ck9DZiJCXH/VSqXuLHSpCUurH3MGc8EdWL48diajC4aNETaO80g1VJye8bmlkFLUpSWglK4mAOJlsWhrcMHNj/lXQfj2Jte6DEKcHL9hsvKSlTLc5TkrKq6lwD2j/W931PUv6zeNrX9e+XtjGIHZniz9JQsZmrkBhTBkH6fo8+O1rPXjXFDwpKqgiMGuNQ9SQhnXnt1oDYar0WRtuLvkOlprT0mAD/mBJqRslx5uQdDfYd9mb2+DmL3ZLM3yyf9mzoPU69TtXv0tTwhPTJsl3g6t6k1QOremXmX/snhElnA9qSJStKTJ2GM0EmUkMRNmWJpkXHarjd02KkFlXLlZa+vsyc0qtSg/Drj1gXcFdc0bFu8uSfTEz1iVAs5fu5fZWVsfN34mjMS2+m5OyMGVM8n/IdT4XfZy0NYAuQRC+FKkxuu81b9Tr11Dz2wYzXf0BSehP8mpTERJLwnHj5fWP+/IdBUnoYhpJSZTJgKwlBjGyr5HYgKfVi7/79hwQPg/THICgp0xP6NSmVTu0tNm+h98GmTVvWRo6ukDliW0zRqecXfz0tnbxFazqeklI9ntvXAFBSuuvfeiSlmijyNUlJU72/+cWY44Q6K4sc+VwpAYnYnTn+eyA372jWtGWzmqLOYXMiYYxTvns4qT57nYXk5Zy31hMsiSKS64qu+hy3zmX8H0X9S25tUWZ/9FoG/3VaTFnpkHD++t5rjpDzVddxCRAdZa+slidznoHuvUnr2c/3Cub3AknpcNITS/VWmU+oaxm2pIJSNFhHFuSbY0SdSiVkJ/JECzavqAqfeGLRh0lFqSylW1a8P+nGXlQ02/MTFiPV2zLJVZhPiPoINS4oKBjlqUlEYqF84BBXKaV7j8cfRkDN40GI3L2dPMgw7h8oKb0NPkkZYBzviWXs5LmHU4CkVMXek5HYuyGhpGSzGSxtbFKy8u5FKCnTdb6+ciNL7vHitwYB0iIkJZ1/fPTR/skVFZ+vkJMLetkcXiVzmnrdw1NSigzORKQwlJTu+7iZpHRmXGZ93dckZc37ZffXFE9drUeWEffKPzt5dCpz0vxFrSc1Xm3DlkDt3rKhtdtWLEgY43CViDylY/wfXfUgO8A4qPeZYFFM/cJMbuoSMjrvZ3TvsyNjwB3bdcnKuLP3/kRqPHvMsuNQGl/a90OVlK0ffL5XsBtISicwXI75A5l1kSIa8Iipz1GTlVRKh06aAlVmsjWeZAMHj6Ts0LF93fV9r9vqlZo3ZpdvPVc/uXpj4sQCz6d8U1L+zTd3FYrPV1TA3U5qUsVwUdHsgV6axPHMG6TDjM2lMNmXKEm5cOHP2nft2uUsIql3QOPCa6+VFvHit7mviwnrZD8ASeltUJJS7O7qhAAJkxdf/DVIM2XsNavYxSSMzPAP9YDTF4aS0kpmE+LC+KhFSEr6kJgSlDoPwcS10233xKbCwvHTcS8k1zzympREY90fa2soKd3F+T/+8a3qc+eqpW2rA1+TlN8sn/Z13XslbRL1Bo04JlLc8Yggp27S8TTvNkvfGeXVDhaqONbp0tblj9Uf3j2cVQFy2yjJZKgVkJI21lKumslR8/fq7lPTXVzaCa/uvSNr/COLswfLVbIJ0xz++JOshSk6dtF5hU392GiDyO/Bm8edv2zO2lyESGfBdMaMh6vZCbPcWEbiwhf5+9FHUy/9j06Mysp2RN2/7QtyIlwIGI7effteu5WmknTvftU7XpoIWVObzRNZmcscR9URv9cGDPBGPU5VexikvJWI5qW4yp0lb7vt5shE/8FJXrvnzXXR1AYO4gUEFsrexIYNryzbvHl7kcwUSrTAYR9iId3b25Ab53Cuv4QUgZJSFXtjSkpzurciJVdIPKHURnoiRlKGC1VZMWKCKjG+N/vc5d139xTsP3Dwnsh8aoLu/Ft1HxAY5dhgJyl1y0hYASWl+zm2fk1K+fXwLUlZV3Gs56Unxx4Pn6+S1vdLNI8bExb+Nqcue2b3gIYarrQUqHry0pq5z9vISe6DY1UqMudvo6155jn0CwKK9ld9F29fsuMgknNKHCux7YumgAd6D307e8KcpzIFqsp/Fk97tn5PvB6lzv3oxkTIdG4ZNxVcuLzopW8hRDoZzPYULFnybIn29FgiW6fvpTKJRV0R3377PZMrIhF2RjMx6fUF+P9778za01FSzlkNSvNP83VfvPgXnp20xOqv/rqEPxlWTfit5Dwl6CZP/onnCBpzXbRYuOU/iLQrfez3DBbK3oQ13VummlQ/zABJ6W3YlZREQpxZ6/Ga4wH97Jo1UFKqY++6SOw9LGnfADcNnI3RtNTIr36FdO90A78mpTPyyVAfNqeSsrz8yPU7d777GJEa5TjGpv79v//bW24ZgvGHWdft3/9xiZPPiB5YQknpLs7v3PlWdVVVtbCN5cKg5N++JSmjrt5Lp67mEmsJ8kniMq1pssPuN3PS/Fmt757vuTTvOqqefG72+vBnJmMc8/kyP7m1HHntIzK+kZnCBBzsy2nwUZGtvHPi79SoA7kja+wji3m1Ry9MvuZI+NzZ67i1OlUGOYrv5RG3mYXzS1vfPW8sQqS7xaqOmlL2OsXUqfekbEClKrqNG7euOXjQcHUmiQUBJZxoGKDEZGRQ2Dto0IANfpn8J2swqp60E6XDdyzlm9bjvMeTKd8GUS2uNxpWkjRmhe2iRY+391o/YdO9WaWoXTUVECpsO3SMLJRRF83DcV9vYct/iBG7d5Du7W2MGnVX2D7uJ5YcmuRH7AEOSEqd2Gt29yZEXVqBcOdgULGnJ6w1KZ3GbwuajaSMK8t+XlVVVcTGFLliUp6uDqMcPnjp3hqLa1tb5+XlkoED+4OkdNffJUpKmbLV+l5+fr4/SUqa6h3aE3f15hE9xgpNlv7LVfsR4XsZPfruyJ793JRMD7l507qJdR/8blztjrWzhandLHnIvk4kRKSoZmWAcy143+uUpHRCijrZr+i86OHn5h3NvMNqrBNN9V7LU6RK2oOX1q55rIHcPBL812mlre+ePxYh0smEx2yaw1dM2Rct9m0MpLrKjiXsqPIzL69thd+ISXbAvG/GQ9VE6M5uImwlqc0GUq3mqJN2ePzxhWcMEyVrKAsoSBl7wLrttqGecvW2LpQNkjJsSXFX1cxhFxRQUnoTyVq1umo5MXkyb95Px0LJ4l0klZRESXjw6peaYwLSvXVir5Wk1C6lZdqWjtNXwN07befsRFuN2PI1KZME5bki2VzCKWCUI4aIpHSSLWHg9ttv+X7fvr1BUjrv8zaSkj+/thqUstfCt0rKC/NuDYdPHHH1JTaVoI2Q5BN2WXc/OquVh8xyavduH1qz7ZkF9Z8eHhkQkY3MOWopIHlBWFprkchToEV1GC3va6ggVQSm5Bi5dUKY46aqytazn58SzO/1j2+WT3s2tKf0QalbqE59TE1iNqNHX9Jq9nO9gvnXwjTHAaj78/79hwbJ1XOqzuqtGkn0nCkxSZ/CtmvXtiIdnhIaLt+ixagOKWfezouLUX5pg7ApxIie8PPrhnlVQZZcKB/iDjxJotp63rx0FKh5vAleurfOgoU3L0jFGsSAPng1KcW1SuVmFi+++EwkFnRBLFDGXns9YB3TIvM2cPdOTzgjKaVoFpLSMMqRjCLGCpKo4pCByPy9eMSI4b9E3xfNda0kpa7rO9veUFK6j/M8d289Yt66BrnqKh8qKUOfH+/5zS8KjhNaj1I/HvDJo8Q3y4msKEH1wPNTvFKLMlovsVxijKNL6GkoF7Vdu52QiLxrw3xGmJLOft7YxkyEunzCRftBcMCo7aF9r48OnygfyS0ZoHPeib6qlz4f6NGHtFn6TgDh0Sl5tTBKXvGfrPGChb1un7HJgP7XkxkzpqT8pJkOIOk2uUkqSHVJCPti1LxQnTr13z33FJumSb311nuF9j7OI2wJYclKdoLx+99v8mS84acc8icKVgLXDigpvQmDpDTH7+QVDlhjOyEW8yzCjOlI9/Y2zDUpmREg8bDC6BcqUg1KSr3YGzPOscycia5hmfEeYm96wkxSisvWGHewsYSKqW+t2TRNT1LGybIfU6MfPYMo1fw0+j6McrTa/UCJWIwgbms2rqMmpbs4r2+cI6NGfEpSXtq4tKR2x9oCLknZCOBNToJDClZeNueln6Z6A5rSkPMIrT2pURtRyn6blY4kMSI4+6x+w/MJyeTKgTkmfSJVuE9L7ws4axsn58k6ybPfxzrSM2nhkf53IdL/YJrjEDGSktZotBNRKqKSvfb9+/f1BEmZjqD1OBcs+I+P+fcs73rKF0r9+3vP5ZvvYmvt52Ji1tomXk31Ni+UKUkpdvbWWzhgoexNUJLytddKi5zVAuP3A5CU3sadd94V5pmk8R7OsKVf2PRvkJR6sXf/gUPCsirsGk9UkoTG3oULf9a+a9cuZ9Gy6QODpGxoujRpYpKSzjn37Tt4D5vm7ZZvMMx+UIdSDUpS7tt3oIQfv9n5HhHO7+Du7T7O//GPb0VJSnupNGf8iS/TvS++urSkbtOSAh6BZSGANFKEbSpAjrKPOj1nTy+elTV49O5UbThae7Jmy/IFofe20aDcyZVS0JaKTBLKw9ivAXvWlA4ZqKpnqdqHLF1ElA4uq6cpOmdVLVNVe8luTF5au87+KXLbkezpy2Zm3zTmBYRHZzDSgNkJsn7dkuTrIClTf3L75pu7CtXpZWEFWRdzPy8qmj3QK5OXmKv3ihIR2W7v83JVi5eJGTqBeuGFddUHD5YTXdWOqNA9SEpvgm+cY7/GOjVqQVJ6G3Z3bz1VH2/B++KLMM5Rxd5kqQ0iTZ1nSQQzQUw/h1Ib6TuPI4p0b6sKuvlrUiYJStYoR7yOkCstY+8PHNgfY43mfFdtnKOXVQUlpbs4b1dS8ktJqa6BL0lKi2mOEzJJ4fYtIpwyevTZ0WbpO6NSscFCFcc71X74u3GhN9bONpymuedvnKtuTUQ3JjYiNaBof+GwPoHZUPUkkdSMFJ2buX8wryfSvM2p55x9c1PhHShMo/2vbTvS+snSXsFuvVCP0iGsJCVfISnrI+a/+/fvQ2bMmIpJc4rCbBrETgzFi1T79TdAXb6nTPGGy3fSIIqdEMueJNtLG3jZ1du6UF5XvX//Ya5hUGKywXHzZtumQ4f25Fe/Ql00r8Gc7s0+tJCbqLATbUpSoiall2FVmPMVtKzJmGiOACWlTuzll9qQza1429IHRIi96Qc23ZvN9NBXWIY3zZnz4KSm6OM8oxw9iM8BdSj1YScp2XbVe/gEJWVD7gGqpKwW9vOEsM3W9taHV74jKesqjvW89Nzs4+HPjtgJHxGB5cSshLO/zEnzZ7VOQcMcaoxT90HpxNDh3Q9GU99555lckYnVfKLzb2zomN9IrolIocgShtoEq+lYEgpcc3s5PB+bkZDOfjTc0QPd+5A2y1CP0g1kxjlJooIoJ9QUKOSe2qBPt4uLn9sXc7e2L0hVE15znzCc0b2S8n3vvbNqKysrM2UueuJFuvU9Ss5Onvxvc73aD9Q1KVmFKd9IiDYTHGa9ifXrX1m2Zcv2Ij4ZZY8JIldKinnzHoK7t4eRTPcm3OvLMxYDSek+9iZV7LJprz32WqfeAajY0xSUpIz0h0I9Y0upgrFJlJQxo5yKFeL5FaesjkKxD4LSGcwkJe+hoyh+816HktJdnDeTlDzyUYNAif6bn++zmpQ175fdX1vyzOrwp+WmNN+A2j2aRwjJ1HnG7zl5Ry/7j9LbU8kwh6on6z783bg6s3rSDbkYbzoLQadF8sb/EdWPZNrQcd3KRnDDJtLzIUoVuNEmiU3dEKvWWRdnjqxw/zZI8sL5pa3vnjcWodHdhCeZAqzzJJaf9mkscB99lKb+YcGaytebKgr1lJNWlSF7vWMp3w+kfMr3u+/uKdiw4b82V1aezuSfq/k8+ZNo80LR627GyYXyYdOQ5PQZT+x+73hFB/IrPJjwHOw1KcPM9IS/oOGpveDu7W2YSUp+mqi67IPx95o1SPdWxV6qYk8+IApo1AXmm7tdcQWtSfk4alKm4RyORJWUsnkMEfQfy2canaTctWtPwf79H/+YcJWeRIsUY0EJyoED+70CoszJdXCT7m2PM1BSuo/zMuMc8/pLNf/2nZKSkpQ1a+euTpjmOEn/FdYfjE9eOCrEjB59d1y+9O2USfWmBOXF52atrz9RPtJCLPLOz4mTtm6tR6Z93KoipXGFuFRzOq0faU7d5pyL1gCU6EOy7yZy5Sp7DZljuWz57l7BfKR6N85iVU1OMCHJcr29pK5LR9Cn3GVlO1ZUVlZyr5/QJVLwBHDq1HtSfgBlzaF0Jgmi1/v37/vRjBlTRnh5IW51mBXXi7K2Af/JFdQ83o37mzeXFsnUFbplP1CT0tsYNequMI+YTk6zAoZPsNLsBSSlXuy1qtjD0odi5utgBkptpCeWL1+5MdIXCu0zc6saUUNs0KgkJc3U2bnznceIpV6mXt1Ddu5pqom8ZeCA/q9gfHEGShbv23ewxJoZRYg8Syge602xn/76wx8OB0npIs5TJeXZs+e46wht/iTgQyXlRers/erTBTaCzt4CxNITiamOoOl922sMURm8eWxKuHpTY5xLm4sfq3+/dAKhrt28420M6NavbCy1o8pgxrJ9IEn2JY5Ra4xwdt684+HceGaS0pbq3dDrEt9HRvc+5PKlbyPV2/VgxjMU4U8wdNKB6e9YtKb24Pn444vOUFWh3PVPPME0F/C/7bZhKe1yHV8U7rTWXSWE52ZuXijyHW29n+ptXyiL73E2vZ/ncg6S0puQ1aSULWB4fyPeexvWmpR8woO/rGWJSxjnOIu9Tqa79odmiL3pCatxjljZrIFGm7sZRjlnz1YV6RpvWSKJ4CG411RkqbSu01NSsuO6VVmZl5cHJaXLOG9WUkbjd4Cox1TOusN3JOWlOElJOOSQY6JIZcYS+Tt77vph2TeNaVFX75r3y4bWlaxYQNWTtmPnng+RZPspUoxVbcX726khUU5ebJOOXRKdmrdgDJ/+e+y96ipxDAoQ16Y0GjMnZ0Y8gn2ECf8pcoBHbhoXKn5emXc/Wtp6ElK9GxJMZ8x4uFqPlFCnB1D4QW3m90luzERGPDm0L4pMk2FilL+gdbHap3TKN52srV//m5LTp89I+mxYWiPJZJhDJk/+iecJGbuS0n38pmoeaiKElENvgaekFF97ebrvvHk/RU1KDyPp7h2L6TxFVnIs4D3MSS50UZNSFXtPRmLvBsckpSj2QkmZnvM3onD31iQHG8U4R2WUI1JJqo49Ly+3eMSI21CH0uW8N0lSqh7Ac+b/pjEANSld3xPCdG+de9S4Nr5L946SlBuXFNjIpNgsw0IuWdJxdeOaFacue2b3gJasRxk535nR2pPVVdfZLrBxbjaylejX6CQCNanMEd3cpuZAwEnVDlBCskOXHYFvd/80o8v3jmd853tHSTygBDp3/ySQIOSISSUZey30979cQ3cV+tufo+def/LPvcJfnugR/uzISNt1F5CoQkdvl2Qm162badfYtQnYak9ySXRhqbzIP7ntyGVPlvQK5l+LVO8GgJqKfPVVZaZeIW7+62w/uu22oZsKC8dPxwQjNScwS5b8uoR334oVlWydxuT1T+WU72Q5g/gCXFKLMxyra2J74mls6xfyXa2kJEIDFXbRATWPN2EoKUXxWziuMzGB9gEoKb0NVklpTTMW15+GcU5DYu8hwqtHyR+HUWoDSIJHUrqs/dgoSsqYUc7nKxyvEXkmXSQ294JRTsNA67BTklJWS1on1RhKSvdxXk1Siu8N8/XxHUn5z+JpX9e/X9rGFeHES+mVkE2B3LyjbTZ80rulGuMiJSh3rJ1Nqk3mOPHj11XxyWogOpLP89KvBW1P2y2jz9C3gzeO2Rzs8t1P6GuNRfTSmpyhk3+5pv7vf74utO/10eETR66PHENG5K1Oppmn+Nh5xKxGX3A8YJqPg2eWI7pWpusTHDL2/GVz1uYiJDYM1OHbSIe1BklCiE3JS9iOLlyw+CE11q+IuV2fzlQFNbOximiiQwnpVEz5/uKLk+3WrNmwI7IgHKROPeKT7uYnyql6nm4XyvsjC+UAcRe/jT6BhbI3kSQpww4dJ633CoxzvA+DpOSlFKvJsmT/iRnnUJKyC2KBIvYmlZT8UgqiGpXWdG+qYoeSMt3AkpQu0rwNNHg+E1fs/ZhIlJ1Ojw9GOQ2HoaTUaXszaWyO5cbnoKR0t/Z48813zlhJSr1MRPaa+Y6k/Gb5tK9D75W0kZuvSBR2PGJIMEcNdO+9o83Sd1rENKd2b9nQi0unbIxczE6OPqg0plGQZLLXZMrLnLyjgY5d/pY17pHFGZ17fJKZf22zqU8pmRv6n9dHh0+f/A45b1WcKtsq0fMESlKdgUhU/9S8X7Y9eYrV5MFE99Bq3vqZWYPHvICQ2NABbU9cWSeqSWhte7PaKrmoSV7XpFg4AEVlCk90Yynf9sFSVJfQPgwknWBTsRaZWTHKi0/sE32ripAQM7HZoUP7uilT/m2iH8iYpLt3uUb8Dtvuc3Mopg6zWCh7D4bCWBW/2fhgfVgV2wZKSm8j5u5tjXdsnDQnvsjSNqGkVMde/ZqUYWZabB2rrriiIx4QpSGKi1dujtx3E4zMD1bhLn/oZOEPGpTubRjlRPpiocydXj73sm2/acCAfr/FeNLwua853dsct7XW7HHA3dt9nDeUlOr+L78W+fnfeXj8+DH+ICnrKo71rNm6fF/9HpOS0uicAYdPNJSKNkKCNxe0mGnOP+cNfz1Rg1KUuiw7FzdmNqrPG7N383s5eUcz+g59O/OGMZtbvHbn3rKhoQ+2jw8d3nV7gqwMm4golSpS0kaOlas6Kl/Je9QwJ3v2c70ykerdKAHVMFPRmViYjVPM5I5o8dK/f5+PCgvH34eBLnVAJ5gLFvzHx/LblZ1Imq+3dVI6deq/p9zTPjalVV5k3nR+5nqU8fqbHTp0qPvP/1yd5deFstjZXb6w6NCxPfkVSErPwVyTUl0zTF4HCCSltxEjKU1ENYf4YKe4XNV5VEkJ4xwnsTdZ39ncpvxxyvxQEKU20hcxkpJMEBmeOFjnu1ZSUqXYa69tW02iCkpVnTiVAWOSoMzP77YXRjkNB884RyQ4kJd6okrKW77fp09vrN0cxnlKUp49W6Us26G6Z/2X7j1veLj+RLkeQSQjg3imK+a1HGk5Z++Lry6dWbdpyeORY+ucbJmAHhnJ7yHuzWRE35nbLkZO3jhmc/bgliUnWdTu3T609oPSifWHdw8ntJZnQLMdNB2+tT4rS6sXmQsZQTa3HQneMb209d0wzGk6Qodfm0o26MnMFvr3v/6jfv2u/y0mIKkDe8p3WFqLUDao0nqNCxc+fkMqnV+sjIGR6s2fPIe1lAjhlHcxb9BCWUhQsotlK5FFQdU8Cxf+DMY5Hoz3ViWlnlkOr3+ApPQ2eO7e/Fhvz6gwzw9AUuqRO2vWbDgTq0lJbO2pUyfOuBdBUqYnjHRvu5LSsamE6zkNHT8MoxyZKkxWLoItIUXTvFEeqnFgJilZIzR7PBHHn7y8XDJwYH8oKV3MsdmalKLroLpvfUVSRpWUqx44biMpG+roLDCJyZz06KzWd89b3dyN8M3yac+G3it5UFpbUXQOst95nzGiqAOH7OCQgpWUnMxKMXKSBXVFD324fXx9+a7bWeMhpTs5MSZLAuJSp22lxCQRlpELXN2btHpgFVSUjQiqrCsuXvVxZWWlZHEaFqgsAoKJif0i0vTvESNufQqDXioQFa8s27x5e5H8+qoWr8lF0+9/vymQWv35uX1ffXU6k2eQEyDOJvaLF//CNxO1GEm5LkpSWlO5ZeQEn8DEQtmr936yJqWT+M3rAyApvQ0zScknFdg5HxEarKVi2Y/Ui73rq/fvPyQwqFM58IYTyU9XdESpjXQE3907LJ23C+Y4rkhKnTqUzuYSJO7kTY1yUM+2MWBP9xbHGhVQk9JdnBene4ft/ImkNqWvSMrQ58d7XnpudpKkbApy0vR6ZuG8Wa3vnt+sJGXkHDtdXDlrfZimerO1ClUkogOiUdoe/M50iuS0rcoced+qzBvu3NacNScbClrfs2bbMwviJjudWYMa7TYVvea03UXO3vHXsybNL201CSrKxg6qmzZtXRurU6grS9cd6Ky1lTp27FjXt++1W0FWtiyoAyCt2chbLLFO3vaqEHbyOpUMNKjj5Lp1r6wQ91376+af5tBH8fvfvxbw071uKCllbu72BbOdxAZJ6U2Y072dxm/2MyApvQ2a7i17OMVXSsX6QaKOL4m58qImpX7sVZE5vFqUZiD2pif4JKXWApbtQ45JSjVBKSZdZPAaEZPqsCgppfUP7Q8ize+jJqX7OP/HnW9Vn6uqlq6VxfNvs3GOj2pShiqO97y0ara+klJFsHNclxONSpWUdz86q/Wk5lVS0lTlmrVFu8LVVVzHZ9vF5xmw6KaGS/ZveY+mdvcZ+vblRS1Tn7OxkEijJ6SzeJxrhvqexmtGm1trfJLWT5ZARdlEA9uGDf+1+auvKjMDjmqPimr9yUnMjh3b19H3J0/+ycTu3a96B5PtFlkw7TSc3dnrKTPN4V1rmtKfKinfNNV7/4FDgwIkIHCmT07OeGpCM2F5110FvkpD4qd7B7gLZaJIT8FC2ZuwlvdwF7+hpPQHYkpKfl07+RhgHydAUjqLvU5TdM2xuWNHGOekI2QkpUMnbUckpWGUQ6QEqf0Bt+bYAoPNRl7LJd29CVHXGifC+P/DHw4HSekizrPp3qJ4r6oB7v+alG7VlBrqt6xJ82e1anaSsmzopTVzd5HzVY7Pw2YCk2jVGBEWJopURw7BmdG9zw7q2J01ePRuP9xcNAW89qW5z3PTv01tZfldR2HpWE3Jj6ut5q6Do3cTT4DefHNXIW9gU6XJ8hc01id1okGzY8cOCXVlXl7eXzFZaQmywq7ksN/m4vqOVCEbWTS1b+lrRycIM2Y8VM2fDBCtlHajr1MivajogYF+mqQl073LiSil10Zcms2ETO+BpPTHfd+Q+A2S0tvgkZRmwsHoE0YMENfWgru3OvaezHnhhfXVBw+WK9IAiXBuZdyDICnTd45OuEShulwP0+e0SUoj04pI08wdLOQ470NN2XhIKinZ1OIAcfJgBDUp3c+xzSRl0iBNr/3N96n/0r03F8fcvQMahJGAeFJapodj/2ROmt/s6d7Uobp27dxd4XNnndVBNJ1zgoxk3M+VMZZ17e4z9O1WE+Y8FfRQarcO6iqOdarZuvyxSD96UKhI1R2D5HeiPoFOj6NHH9Jm6TsBhMCmQ7w25b6vKiszA8Se4qlbFJu3wOVPuu2Bm5qwXH11/nsDB/Z7BYRl009mNmz4r5LKytO6E1vmtbDlak9LAZdva6o3PzVAbvqUBHWmX7jwiRv8dM2tah6n6VnWNqTGOVgoew+GcU5jxO/58x8GSelhxNy9kynb1utPiCC1ihs3QFLqx16eYp2dFyUUTQZBjAdEaY+EcY5SNSk1aaD/bJoz50EtknLr1rKHKir+toI1W3GyCGQfbnCOH2rKRpzXs+7eTud3BlCT0l2ct7p7OyeIDfhPSVk87ev690vb2MggYiIDJGYmFjUhm+LNbJsxZOzK5k5xjiv9YunebLBTpR1z5+Hyups8ZNxUsDLrX1LfGKchoLU/L20ufizSlyZE/uwsbGNRWyZnWuL2FBHAvI6fm0eypy+DirKZFrCGysbuIKgzuPF+T8YglbzdAJ2Ed+3aOeoKPmjQgA2YvDTZoolJ+VY7+7J1HA1QY6SWdsGOpnrvPzRIJ03d8jtnITh16j2+e7ovqovGr8kpeyCBlEM/xPiGxm8oKb0Nu7u3MxMOM5G2BsY5rmKv7jhlJnpAUqYn3NektPUrrbkarw6lnCBVG7WI5o9QUzYOxCSlLN3Y/h5qUrqP8zt3vlVdFa9JqS6hZJ1rmYVBviMpv1k+7evQHhNJyVMQ8kglzuvCQBQ/huDNY1deNqd5ScpQxfFOF1dR45wjIy3nYHSE5OpKFKH5tStF75lUloHcvKPBO6Z7zhinIfhm+fQVoT0ldyUMdXh9x9zmTutTaqopg0MKLkT62rcQ/pqP6KHEFY+cME+YkwRmMrDaC+uLi+4TQqT18OjfdDIeeSmaDj5gQP/fYkHc+JPeWIo/n6RQmSqYCS2qgp0xY8qIllo40cnB448vOlNZWZkpTlFXpUUlnauLimb7boJG2+iFF9bFUg4taSjixYQIHTu2h8OsBxFVUlLjnEaI36lkmAU4x6hRd4XtDyTEMcG+wE32hzVrQFKqYq9ISSkibnhxGCr2dJ6vrdwY6S+FcQmBrQQT78Ervx+FlUrKGNl14MfG9+kQjXICRo62bXOLf/CD/q+AFGsYdJWU9gch9vkylJTu4ry1JqVoXi2/L+h2V12V7y+S8uKrS0vqNi0pSBBAZgJJRAyxRKbOZ+gm3XvvaLP0nVEtQpy9V/JQ4um+QOFnC55GUouTWooxnApc3ftQqwdWTUkXctKMfy6f9mz9e6UTIh2js6SNrG1ovi7GrahV79N0jYx+FlVRFs/MGjwaKspmQnn5keuLi5/fV1l5OlNnMqJykLMugAOSQdKa9kQIscnlae3DYcMG/5qmg2PwbJwJDTVMoteap5xR1jkyEV30uk2b1nIp3zQtad2636ywTgyS7uQBIkrvtk8WqCrUj+lHOg6zxn1nvw+tgJrHmxDXonUev0FSehuj7rwrbI7f7HW2Pkxk1R7m6RuMc/Rj7yEieuCra06I2Jue4CspFTWl+aSIVEl5+PCR6998kxrlBAob/yzEpnz5+flQUzYQ7767p+DAgY9LTMQHkalbRQ9G2rXLg5LSZZznG+fI+j7hjrcxJeUYn5GUG58uEKfkEn7Ks0Eq8YIcOxsxdpPb7ui3Xv6kd3M3Qtw853lynjF34REn5vPSIClZdVfg6t47gj8Ytb25XcxTDdT5O/SHtbNthjqK9hctbk2sgdb9m1k4v7T13fPGIvw1N3n1m82VlWcyeel+ItLSXq9QnE5rr9VhH1DtRYeT71NjkzFjRs397nevfhcDqXs8/vjCDw8eLB/EIyX5i1T2pk0uVFsy5ZueB1UAi5RgTsoO+DHV27pQPixdRPBcz633eMy8YcyYkQ/T+y/VzhPxQAx7TUr38Rs1Kb2NRE3KMOHUzyLESQ0tkJQ6sdcwLROkdDNrPNG4S0nKyZN/MrZdu7YVjuffiL2eRXHxys2RazpBWIpHaGxlU1oK52lxkuXnVVXnivRUkDySlI0dasVwHJsGDOiHjKkGrt3c1aS0z/FGjIC7t5s4T9O9z5495zr+GvHbf0rKjZSkjCspbaRQYtSzvm5LcSZ2Ik+gMLzsmd0Dgt16Nbu68MK8W19PpHwTIqybSVx2EJraHaDGOOP9Z4zjFt8sn/Zs6L2SB219SHyXudqOR5BndO9Dsmc/1ysz/9o/4Uo0H7ZsKSvavn3H4hhRKZqcENtiRpxGIFblmCcx/Mm1+IkgVVfG0sH7/bZ796vewULJGejT+bfe2l3IMzTSS/cOmBdPdUVFs5vdEdswfYopQplpu+U5XECYamegQ4f2dXPn+svV27pQZklKWa0i0WIkLGlLQuyFwu1O0WzfsdfFVKeZ8hws6cOLRYueaI84wEdSSdnw+I2alN5GLN3b6TyZr9wCSakbew8RcTkSUbyL33+EcEio1InfAwZc/9F9900e2bVrl7O44k0zVyMJJaVYkShSyZmutzDdm877P//8b8safrRy8zVR3MnLa1s8YsTwXyKWuINTklIUK/LyoKR0G+f56d76D/6Ma+K7mpS1e8vur1k7d3XCWCbMSYnWMT/hvMYjj7LnrhuW3QIGMlRNGTnP5y3KPlF6u/m8WEdvTm3FqHpy4Kjtre9Ob/UkC2qmU7Ol+LHQntIHpXxVQNGf2Nc161ZCTdkyoCm0ZWVvLLOTP/Lgan2iy3+KKp6oOJvUmNGvX5+Pune/6j2kg+vDTvCp07xlk9KWIC4MV2+5wpc3QYj3TVN/pbU1Fy58/AY/Xms7ScmbQPHJWzGJFdCcAEsU0+aFOKdWomgBlpgcWYlypEJKYDfOcR+/ke7tbViNc8SmOao6WqhJ6ST2HiI6tX/1jAtTK35Hxk5y332T24OkbBqojXN0iMHoe1wlJZ1HVVR8Ppj9Dt35t+52okWj8fkBA/phXHEJHkkpVtgm291cEskAalK6i/MxkrLK5ToqeU18p6SseT9GUpLzVVLCR9Ey2qRmZuG8Wa3vnt8iZB51+q5ZNvX/Jmolqs5HwH+YguqpzEnzF2Xd+KNtLaEO9QIoUXlx5az14c+SKlYJryQetHh1UWMrTWFJgkCPPqTN0ncCuAotSWLFDEmMSyXO1xe7gtoHyzCjKggLfvImWsnPmAcDSlJEUNe1a+cDhYXj7sMgq8a9986qZQ1n5AtT0SSYkIkTC4onT/63uc09eadqUPkx8o/ZTHLF6mre46k6MO4Wyoe1AjhP8WwrCcCYaMkfMPCfJidJZPMQESA6bvPsecB1XI71619ZRtUyjRG/oaT0NswkpfUeDGiQEdbtoKTUj736MTFgqxOs+2C3JeJ3//7XkxkzpqAfNNk8Z+XGSFMXuk/jT1xfG0nJc/LW7We65jjKtWEcVE3Z3HNIv0BPSam+XnD3dh/nDZJSrk5Xo1u378ydMGFMsVfOXUlShiqO9by4avbx8IkjfGWhrru1pjlKRo++Oy5f+vaolmqQfxZPe7aeuk8HAp1UxyohXE9ldO9zKHPsw4uzb2p+VajXEK0JSslhQjon1zSCvhM2LXoEJQRsfdDcZ5kyBa3mrpuZNXgMDHRabIJkJYLE6jT+RESUeiIq3Gy69NqBnSXWaOonJStvv334U1hMOyMuRGm3wutoqlvXnKoaqxJUJ6WC44SZNCRokXT1llgo80gpXqqvvUSDqGwDuwAOM0OueDurQod3/dg0Q952SWd2kJRiGErKxojfUFJ6G5Sk5MVvubEYP+UXJKWT2Csja+QPasXbtXz8jsXeJ9APmnAOTpTp3nwyiulnFpKSzqH27Tt4T6wOJVGa5jkjv+QPiwVk5ab8/G57YaLjHLt27SnYv98wzpGvlVTXF0pKd3HeTFI6ARuPvWYkpSQpKb5ZPu3r0J7SNjaiTqJSk5J4EmUlrd3YZkPzm+eYQU1d6t5YM5sYqd8csixx4RmSLNC23dHMO6avajUJqd1OcGnj0pm1G5c8TohJxWobhwT9xnINzPMeBake+T1487jzl81Zm4sr0HKg6SAHDx76MTUosQZWYpsMyeoiyQZIHeUAj8Tk1VcyfwdNBe/X7/pNN9wwcC0m0faBdcaMh6vZaxXWVlhYt1+8+BfNNrmhT46ffnpFiZxwEZvBmM/Dz6nesoWyjIgQExhWIyJ728oWzzIy3Mniy77gueIKLJRl4Lt7u4vfICm9DTbdW5SeJjJ5SSj9Im+tiZKUXXDPSWPvunjsVWWLEEn9bh1yqGXiN033hpKy6cBL95bVd5fUdd5SVPTgRBOp8nMzQSk2H+TNv8UlItj3Haa/biosHD8dfcn5fNiupBTXo2XjjbENalK6j/N2JaU75XN+/nf85e5NESUp3ytpwyUdeeo1IiGWhONh4v1T2UXr/p+WViDS1O+6D8omho/sfjBRj5NHdBnIyTsa7DvszeANo7dCPekOUSMdoz6lxC09wNT8lPY50TbJ60ZaP1kCA50WBn3qGgnCjx0+fHw8Va+JF7OEGRgJET9RdZ4uYp0IEcuEW0as0eLu/fpd/9tBgwZswAQoiVjKd7Iupaj4umhCat6mOcm+mMJ3V6GMUBWdB/va1Kn/5ttU7+RCWW2cY12sEM69y7af3gLErt5TL6jMi3n+d1jjSIcOHcivfgWSUoSou/fm0qKA8v5Wx2+4e3sbBknptJYv+yCRAjUp3cRefjuzpKCV7CHSsbgl4zdIyqaf65AoSdnguXNUSUn75Ecf7Z9cUfH5CjfHoyK3VX1VZWLoNZImFWAlKcWxwRy/RQ/4oaR0F+epu3dVVbVm/BbfW76rSUlx8dWlJXVvrC0Q1qW0kUPxjswjL2XKyjgybipYeXnRSz9t6capqzjWKXzq02tqKVl56kSP8OmTI2kbGOcUyM0jgQ5X7gh8++pPgzeM2QxysmHgmhfZ1pQOTZo03oOBTioNhnsKdr75zmMHD5QPYi++3sJXGaYJ32VSn+QQqf2o2qpr1y5RshIpJTFQlexLL/2fFbEBVbWokSsp6Xuvv/5ak9eQpROCxx9fdMZs7MRTgvHVeoSwRgPNccwtv1Cmap5y5X0nq1GnJhUJdxEVU/TwF+OqhbdsIW/+XDLdG6ouHszp3qIFpm78Rk1Kb0OkpLTETo6JEu/3F18ESamOvfx0bythoK6jrGOm0xLxGyRl08Ke7q2epwkQJSnjRjkrnB2Ffp/UeTAsA61NCRNMp+sySlIeKFGT2PLXaU3KAQO+//2+fXuj7R3Geau7t2672+8dX5KU1Dyn9iWTw7dB+iRXnnYySMdQR0AmBXr02dFq9qopmfnXpozZTKjieCc6mNaf+vSaYJfvfhL6+18iP3t8Qs8RpjiNh2iq/aYlz9v6E+9vXVJSsR1SvlNzUNyw4b8281R4olQmN6pJuSswfxKkmhDRmpV9+lxbOmnShCnpPrGmCtlHFzz5cfL5gp0ItpIa8sG2OVK+3313T8HSpc+WiBZ95j6g6gt+T/WWLZRVSmeZO6Tu/ebUiMlco9Jm9iBJOYzc00j3lkBdk1I/foOk9DasJKV60SQzs0JNSnXsfeGFddUHDx7mqhZ1MhaczI1aIn6jHnDTwkxSuptLJ41zBgzo91u1UY5uTBC9pu6/qnmZ18xDUmE9xjPOce68HoCS0mWcl5OU+sjP7+Y/kpLiwrxbw+FPy9Uu3arXNFJxqUIx+K/TZ7W+G3Ud0w1UvXpp1ez14RMxt2+uCQ6n31hIA0G/EvVP2t+ypi+bmQ0DnZQDfSpbVrZjmVnVJp9E60xYrGYauioCJ4srCmqYcu+9P554yy1D0nrB/cQTiz48cODQIFtBftMiR6cAP/3cxIljmtyh0Uj1tqcD21OEzSoQ3vGmA+FikJT7DxwyObqKFqtEupgWp7GI1Hi6CxZrnODVwJOpjrBQloOtSalfA9Qev0FSehujRt0VFsVv69U34j+r0kvGC6R768Reu4pdR21mS4u1OHKnTvzu378PmTFjKvpBE853SANIRV1yyuX7UbObiorPB1uPUV85Jsiq2DRixPCnQJbpQV2Tkv937JXka3D3dh/nzeneonWt7MG7sVbplt9t7oTxPnL3NvDN8unVoT0lOdoKSdF2NqdmPqEUHDL219kT5iyGSjH9oFRT8m5SmRu4RrmBrLsfLW01CSnfqQo5WcmfdKuCtrhGYlh7Ii5XKsR+3nbb0E133TVuZteuXc6m67Vbty6W8m11XFarMFgSuGPHjnUvv/x8VlMeb9KdVvcYicVEwBjS6LEuWvR4e78vrmR10WQLBfW9qKo5SzTucf49ySPJrLVoramNkWsJklKCaE3K10qLrPWoCHGiyDGuG0hKb8MgKXnxW15SxX5vI93bWew133vmuChrZ9VD2paO30j3bloYJKVudoiwnzAPHfSILDHhEk8Pjj6UpiTZvn0HSth+pXusvPkc3feIEcN/iX6lhkhJ6bx2aZhE2hwkpYs4L1JSOo3fvlVS1uwtu79m2dTVNuOSxJ44g4yuWY5I3TZt2TDUeUw/hCqOdbr43Oz14c+OjNQiGY0+x/RDy2eMwVPQ34JDCi5cNuelb6H1UztQ04Lc1An8iy9ODaqsPK2tGIh1jYaY6ASEBd5tU7WwvSZb//7Xf1RYOO6+dBycafr0yy//djOPYFanhVlVHldc0aEuMmmd2FQkBk1PX7DgyY9lE6/EmBkwl8kN2NSgt98+LFqjKd0WynYSghBVvUh52n/YsujWS0mTL450lNDm12JKyp+hJqUAdpJSrxwHrz/Mn//TscOGDQFJ6VGwNSmtKj2iIMis5CXSvdWxl6Z709grimeiesrOalC2XPwGSdm0UJGU0vjNTfnnjb2q621HjES89Zd0zKX9/I9/fOvn585VF+kQYbp9C6nHerDXpJS3Ne8BBn2tXTu4e7uN85H+Xx3p/5L7Tn0v0M9dlZ/vT5IyVHG858X/KDhur0sZkJhuOSCYOOngwZvHrrxsTssb6ADNj4uvLplZt3HJzyN9oRO3r3H6niuH+fhrGd37kFYPrOoV7NYLLt8eCNgnTvz11s8+++vNu3btfeirryozWRWkecIsVkmGTV1Cl/DgK7F0nujS+oR33TX2vnQsGs2mUOtMdkQujU2Z8k1T0/fvPzQoMae29Q9R2qJ9m3RRhCXropVL0v6spkJhTruGhW1tLc+gIrl4Ki2zSpJXG1XVF5HuLQeb7u3kQREbn2P3DUhKr8Lu7i1STRIiqxlL3wNJqY694nrA6rrasp+pEr8Re5sWxcUrN0faeYL8usiIRvsDQHvfCWjMp5PgqRzFaj7iUFFpVVM2dfkgP8CqZCXSa6cCiGF3cd6a7i16ACWq9Z+Eb5WUFLQuZf2n5VxCkSUjE92Xk3bLDSicfQTatjuaPX3ZrKzBUFOmIy5MvuZI1Onb1jeIlazUUesav5v7JPNaq7nrZmahLqXngjclLGmx7rfe2l3oftIieCIYV4CYAz5vAOA/bWYXZ7F05XSsU5lM+dZVb8jNaGbMmDKiKRYt9947q1Zc/1RU1zR53U0Lq7qiotkD02Eyxlsoq9I41U7c/IU1u/hhH0ior5u7bWCcI0dUSbm5tChA1NdSdc2R7u1tWNO9ncDuAI10b+exV0zKsCUvxA9pUyl+9+9/PZSUTYhkTUr5OKiaKzsfd/nbidy34ymvP6+qqiqylQiQKsuk5Q2iZj8Yb+SQEcRO0LZtLvnBD/qDpHQR5/np3vpKVgO+JikvbVxaUvvq0wVcksfcFA2pWck0dLBH3x2XL317FLpp+uGfy6c9W7+n9EFZ7dKG9K/YnDhJtGdOerS09d2oS+llUDIsng7e36qwJNoTafuTKULUT5CtCwDrhNw+kEydeo+nBoqGgqZRL1v23L7Tp89k8hc31oWT0Xa8wv20PuDkyT9pdCIj6ShfmamqRakyAKB1SNMh1du6UD5EWFJeVBtWTVI4M14RPyQgzIKafbaqt9iGmkeODRteWfbaa2VFstIbEhMDy3UDSeltUJJSFr9FhAFPfQvjHJ3YazXOESlY1SUuwikZv0FSNi1iJGW4kH+N9QlpVVzX2y68acCA/kLSkM4jd+585zGiMPpxWFIgbeZqDZkb25WUTP+wEcV8NfcPf4ialG7iPGuco7Oe5c2DfU1S0pTvb54sOE6qz9pPPaBnMCB192aVmbGfpzIL5y+C03fDQZ2z6bUI/f0v19R/8efrwqf+3CvSwPWBztf8mV7NrBt/tC2Yf23KGBWFPj/e6ZtHhn7Z6Dvm9TPaFbv3IW2WvRNAT/EHKUYnM1VV5/KN+pV88wxenLLWUJIp/IQ1mhIpwESgVgiTiRML0irVJObyfXiQfJxgSV5mURtv11jK9z1zG//47C7ksgmXKDVu6tR/TxsS2kxS6i1mCVHXrRIvcESpiew14IV6VklkJ0wI4RlAxEhKKClFoCTl5s3bi+ztKE6nF8VOkJTehmE8JovfqjIrqEnpNvba5xnswxh7nJQbBrZ0/B4wwKhJiXrATQGDpHRKRro12JH0p6iTt2reRFX7kXl9kfwYHKl9t1x1Vf576SQacIqkkjJZY9hJ1oTxE+7e7uM8VVKePVsVr3LnPnPI1yQlRcLlm9hW4HJCSPZ+cjbD/Uzg6t47Wj/4/BQ4fbtH7d6yoXUflE0MHd79oEEyc8yKjmb0Gfp25o1jNgc69/gks4UJS0qqXlo1e3340/KRYWMCw3PuNsoLOFJa2u9latbU6hclvSLnjbqUvgnuJ3NOnKiIpoNXVVXlHzhQPii5XCKmWoLiukkilZ/Oglw2QaIpwWPGjJybLpOjLVvKitav/80yEVGh5yIaQ2OnfMfrKu48eLB8EG/hxTdN4i+ymzIdPbUXyoeFE9XkPcN3gdVfHBNp++ulFKtrzLJEJpSUcrA1KUWkh81BnVns0PcfffRhkJQehtU4R1Z3kCgXVCAp3cVeeQzmOXDLY2lLxm/E3qZFMt3bfo3E8VuvFIDutvT3fE1Dj8OHj1z/5pvvxtWU+iY5MohSzIEY+OneTpWysZ+oSekuzpuVlHrGOaxpXRooKSlq3i+7v6Z46mrBiEhEqeCEXTjE37ORT2bS0rS/4JCxv75sztqH0V2dgaoRa7YsXxA6vOt2Qus7Eus14XaK3DwS6HDljsyxDy9uaXf1b5ZPezZkpHyL6piyRLeGUY7o7+yidTMj54y6lD4N9J9++tmtBw58/ONDh46OF6ce67tYytRX6gl4rEbl5Mk/mZguBiuPP77oDL/mI3/iI0rFv+KKjqSoaHajTXbiqd4llZWVROU+yzdeSb5OScqFCx+/AQtlHaIiIFzM8O4lvvMovzaVTl01XTUIfaAQWSi3x0KZD4OkFKX3igq5816HktLbMJOU8lIqfGLD/NAPNSl1Ym8s3ZuXpi1SijtVwbVk/E63h37NDbNxjuV+tRAhxkN9dw8b7NfbmibcLi/PZpSjGm+omlJVdkf13eb3rroq/2GoKcXzYyPdWxY77CaS1nfz8qi79/cj8/beICkdxnmzu7dz06Lk9r4nKUOfH+956bnZx+tPlKuikZgoYskhEclk3ja33dFW9xXPyho8GiY6mqAO2fX73xgduVYjue1tbnMjiJtfy8k7mnnH9FUtmWpPFaCXlk3dxVfcxv8RkdsCQpJLNMU3yZw0v7T13fPHovf4GzQd/C9/OXHLwYOHf2xNQValMckmQ1blHW9Rzqvhkk4mK4Z7tijdTL+eVePW9bSkq8avi8whT0SwUNXHmDEj02qyayUp+SpFvhonSeyaF9D9+/f5iL+Q5i+K2X2LVT0ytbTsng6Q22675al0M7tydv9QkrK0yImqRVTDCiSlt3HnnbQmpVvjHGv8h5JSHXtfeGFd9cGD5cI5i4xgZEEJQdG14cXVBPHMEFqNGb/79bv+tyCPmg5iJaU+8eH4k6bxnufkrTN/l9WmVM3dBOPRlh+OGL4QKj87GmacY21nKCndxXm+cY6TaxC733xPUsbIr6UldZuWFPADD985WRKt1NvE953Ro8+OrLGPtLi6L9URqjjW6SJNkz5x5PrIn51FKdK2NFf+NWjRmqChiuORc5n1ZfjTcqlKV9i3JO9ZQme8TTKGjL1wedFL30IvSq8BYNOmrWsPHz423jDbYVVYbH1KYcyzTustMnsZ0kUtQCc7S5b8usQ6USWSya6YuGwsxWKcZNsZI6vFRBXv2psXV7G04PZ1kWP6X127djmbfgvlw0KVKTPtENQhi5G8jamQBZoHPCUll8zQUK2DpPQ2rOneeg+eRKpnkJQ6Y9e6+AOigCDm6tWQu+IK1N1NR5hJSnXJHdn8yBVcu2tTk8y//rVihbysC3F0bF4jcJpz3i4nKXUUrAQ1KRsQ52UkpVlYoVpvpgVJWbt3+/21255ZHfr0MN8UR0QYmQgls3rNQjSxijjz75Gfge69d7SevWpKKhm8pAoooVf7we/G1W18+ueRtupka3vLhIXok3tRReW0Va3vnr+6Jc6pZmvxY9GUb51jlcTNZJ+LtwFHuRvpX6TNUpjnpCO++OJkuzfffOexXbv2PmROSZZP3JKkizvnw2Sdy2nT0sNs5d57Z9XS9pWlfomL6VvbuDEWsfSpfHHxqo+/+qpS6j7Lm/hayReDOH3ihnS6b3TSvUX9n21f1B/zJihJ+dprpUU6JTLYiTVLZIGk9DbMxjmq+C2PDwTp3o5ir8i8Ro+sQexNTxgkpcyERuX8zV+aqRS8cidvnb5PxQVEqzYlURxnIlptGjHi1qdAolnRMCWlta3h7u2urzdMSZlEWpCUFN8sn/Z16L2SNvFZiJg0Eqn4dBb0gjTw4JCClZfNeemn6LpJ1LxfNrSuZMWC+k8PjxS5pwsHId41Yt4P9Oizo/Xs56cE85vfvChRl1KnryRnxsx7Ac4DQM555+SRb738CUhKDAg//+yzv968f//hQfKahPxFuDHxkaeeBthFQlqkfdNJ8Vtv7S4UxSWx2sp8q8b+iLl8N8whnT6RX7fulRXyayQq+m5NaU5H0w+WpHTn+hlTtnfs0IH86ldQ83gNSeMca0onGxftsZG5myK/wDjH2xg16q6wbvxWkQtQUurHXr7aTXY/WtseJGV6gpfuLZu/yvqZAyMb1wpKdu5WUVERn7u5rzltRtu2ucVTptwzFz0jiV279hTs3/9xiU7Mti/Nkw/y27WjSsr+ICldrUnfipOUAa32FiFtSMqogc7auaujTtFc8xLTrNM0O+G6MDt1CA+H/5E56dFftmStxFRClMQ7vHt45FpclyDjeCsAU3taDIsYAi/RyZlrF2nzWS3R5hdfXTqzbtOS55X1TXk/bT0+oDTP+dbWSpCUQHRg+Oij/ZMPHjz04wMHDg3iT8LsKgU95zU+GoN0S3W8++6egqVLaco3b6KbbEu183fMeOjll5/PasjxPP74wg8PHjw8yHwc1lqJ+sXif//7TYF0vE9oyuH+/YcVZDN/cmtW1EWuJxbKHgTP3Vt+/dlFbTgxFIOk9DaMdG+d+M1X+iWzC9asgZJSFXuTNSnFBjUqF2a6aYeOHcivkO6ddhDVpHRD8PHvefu431hECc2C2bfv4D3UREc1z3CARiFQ/TZnP3DAICm1eoKF4Db3C9SkdBfnxUpKmVGa/T5IG5KSIqamLG1jI8VY4odTP1Cs6iM2Qk2gvmzRWompAKqerN32zILwifJ+kT87mdvX2nYkSVwy10EZ102vt1SqPTXPqVkzd1f4fJW1P+kS22aDHY1B9vIV7/UKduv1J4RGwBggKFlZVvb6ssrKM5nWm4MQ1gSE7U+xriqrw5Z86kvVlP/5n6uz/N6eVpdvvcHVqgZJLmoborahxzJjxkPVNuUJU+NFtuA2FnnDhw/dUlT04MR0vD+s6d46aWCEuw3UPN6EmaSUujdL3D+NzyHd29vgKSll8Vs06aTbg6TUib0xd2/1YkoehxF70xMsSSknJ925Z5vhxihHhpia8vMVPHGAjoElb1t6jH4XCzhB0t2bmNY8ytU0YefVqEnpPs7bSUp3ZHx+/nceHj9+TBqRlHtK2wiJo3gbWoKeILU4qd4j/JqJvP2ngPt0S4Aa49RsXf5YVD15vuo6SxuJaueZ20433d6+I9Jq3oZhze2wXhMnKYlBUiqO0aIMTRjkxAdPkYGQKZZetmI3SEqAO1DQGjhvvrmrkKcYY9MYk7dZgNjTT8RPv9KhNmWyhp25fdjnKLy6j/a41RCX7y1byorWr//NMrPJke5km42xTz/9ZFpOvmQ1KZ2qMTp0aI90b4/ez6ySkr3+ctMcKCn9AkpSOonfMvIA6d7q2GsoKa2kY9g0zQ1oxWSQlOkJmbu3Mn4zxKBofmvartFrPhrlmc6erSqSza11iB3T8W/q37/fb2+5ZQjGIWLUpDxQ4pwUs7f3iBG3RObJvUFSOu/jcZLS2bqEvWfTL91bRBw1RHFtU2USC+lkU1ROmr8o84Y7t2WmgZnOpY1LZ9buWDObnD93nbTdzOSbqPgTW6eRTZPmpOVn3Dx25eXNXA807lb+ZfjEEed9R9Y+gu1azV03M2vwmBcQGgEe6JPbsrIdy0RKQDYQislK86eT7/Xr1+ejRYv8bb5idvm2tlNA8vSbP3G+4gr3Kd9PPLHow5ird3LfydCnU0Q+tn2HDh3qfvWrJ9qn4wLv738/mfPiixuYumjE1SKhY8f2cJj1IEQkpWAByAy/1rgIktLbYElKx8SHidRcs4aSlF0QCySL1xdeXFd9MK6k5Kn8jVssQGSZAIE4SfkztHeaIUZShgvVC3ZZOQGt8b3JTGnixi4/JlyyVTUP4WfyRH5umTRpwhTMRazGOZb4zVOvGllIpgf/BvLyclGT0mWcN0hKleEo3L1jpFHPS6seOF7/6WG1Ik9HtcdTVDrcFzXTyZ5Q9FSwWy9fEpVUTVi3bcWC+hPl10f+7CwdQ9g0b6PtGIWhm2vXEqZFdRXHOl1SkJQWtaig9qml1maSibC1F0hKQGfQjizMN1vTv/k3ZbK72SdKSYLS+vrixf5W5cXVdzvNBCGv3ewKHPtEuUOH9nVz5z7g2HAolur9cLVq0srGkOS1TG6XDrVEFdey+sCBQ5Zrw2snOYFFUJPSo7Aa5xDCS6XjP4Cw1yOcPx8kpZcRq0mpH79lhEdMSQnSTB5718UfEBFFmi4heEAEsCguXrk50m8mqOaxZgMmnVrTDDYNGPD93w4b1nTKRDoGWWtTqubf6mP3GqHTlOsdu7u32iyJl5WEmpTu4rwTd2+Z0CMtSMqLry4pCf3hpYJwdRXbMgITHY0agvHtEl1ZVFtRUlswo3ufHa1mP9fsNRObEqGK451qP/jduNAf1s6OtPd1wvbkuVsrlJEq1p2XJh68eWyzk5Shz493uvTc7C8pKW4x/LGY45jOw42C10TIZk6aX9p60ryxCI2AauDesOG/NicVlbLBW58Eo/07HUgv1uWbnQzLCC42drlpr5ir9/9ZIb8ufPUA+3s6q7946d4io4wwN6XevFDugIWyB8GWb7DWnlQ5rVrHcNSk9DYoSek0fov6AtK9dWOvec0vV4ixC1ljMYt07/SEke7d0CwICZrFiEauptReCFrOkdamHDiw3yvpTqrZSUp3fQE1Kd3H+T/+8a3qc+eqOWOlnfSQ1fW/6qp8f5OUoc+P97z43OzjYbOK0kyCiVRqCoKI6/rNfJ7LDjMpvBk9+u7IGvfw4qzBY3Z7vWNSci7S1uvDJ8pHateRNLU/txal+TqpFKscM6SWICmjSsrnZn8Z/uyItH/w2kDVRrx9ZBbOL219N0hKQGfw3lOwZMmzJXYCi3AX5sbiXaR6MFIl+vfv+9HChY/7PuV7w4bflFRWntFYuIonz/Rzt98+bNOcOQ9McvL95lRveb08+zGYn87379/noxkzpo5I18WduCZlsh4VEfV3pt2xUPYmrEpKKzllJ6QD0vsNJKW3Ybh7O4nfogcaMM5Rx16zu7dcTSkjF8JQsacpZDUpxX1G9z6OpvgWT558T7M8cI+pKauK1C73Gk6x8fGqW363uRPGjylO73UOT0lJHMzbk4CS0l2cd6Kk5I2lxjXyvZLy4qtLS+o2LSnQIot0yaTE0QT0iTTJ90Q+9Y/gzWNfazW+6KlgvjfTv/9ZPO3Z+nKTMQ63/eL/8N06kiSl0Z68+GFKA9epZ5AxpKD5a1JSsnblLD5JyetfrIu5SNnLaxcCkhJwPjGKqYgCtjRXXsqbzn3mNoXZawOvNeU7bAppcsKXQ27VFRXN1m6vmMP4wjOsWzv7/ep0ofRO9TYvlClJKUrvlDl6m68zFsrejYHJmpRiskTHlAokpbdhdvfWjd/8WEvTvUFSaoyhnHrAIlJGrGylD4hgWpZ+4JOUThXQQmwqLBw/vbn6VHn5ket37nznscixF5qP1+n8mzn/TSNG3PJUOpu92I1zxCSv7EEJlJTu47yMpJQJY9g+72uSkqoov/lFwfGoWY7KhMREmnFVkvH3lQHDjeLPQE7bo5kj71vVepJ33L9r3i8bWrN27vPh6rPtI2fUiWgUH+cpHm3GQ0Qz5V6BrEnzZ7Vq5vakKe8Xn5ulr6SUvcf2R07/BEkJOMW9986s5dWnFLt5y812KFkzZsxI39fDiaV87yqUTYitrunitnPi8m1P9SYWMyOzQ6os/Zwu7CZP/klakyq8mpTsZF/3aTuUlN6E2DjHmr4rJ1Jiv6MmpbdhKCmdxm9evEC6t5PYS4i4vAwh8vRMKCnTFXIlJRO/OUYpIrRUqjSd21VUfL6CN79whzDJz89P69qUTt29ZbwOlJTu4rx7JaX1PvA1SXlp49KS2lefLrA5RZsJobBpEa5BoiXNTIjdiVp+FwhTkln37+CQgi2ZNxZszho8OmVTwKPGOP9dNtGinlSdO68to1c1IN5e8nmuMtP8mdx2JHv6smHZNzVvKn1CSXmi3Epsx/uMxRDHCXEr6GaoSQm4mRglSS/5xEisKrMu0NJBoWet62meEItSjIjQBfy224Zqp3yzqd5m91P7AlusiqVp+TNmTBmRzgs7w7xh//7DEqOMMBOK7bUK407tWCh7EBs2vLJs8+btRU4XLLy+AiWlt2EY5ziN39b+EHsPSkqd2GuU2pCp36xx17bsoyr2DlBSpiPU7t7qhwrs75SgvPrqq95riTheXn40rqaUEa+6JRESvzeZM7lX5unJdG9xdoxqrG/XLg9KSpdx3lqTMmyjwPgPAe19vVu378ydMME75Qu0ScpoLconC47bzHK497UmKWb+m1VexmYvvJ7uTA0Y3z6Qm3c0o8+wN4M3jt6anUL1Kmv3lg2t/aBsYv1hhpwMi9O4pW0oajfbdSDOnL7p5t1772g9e1WzGxNFlZSrZiXdvU2EtrCWqaS/2FSoTJtBSQm4JGriqcvqlAjVwO62zqIXce+9s2rt5kPWBZa1He3qvGi62hUd6uYWqVPk6SS2uPi5fTHlK39fbB2jZBixXqd0T/U2L5T37z8kJHb5/d/+PpSU3sT69a9ElZR8wsl+TyfmFJyaryApvQ1zTUon8Ztw5nJQUurFXkPFbs0GIMTuyBxmpsXJjTt0aA+SMg1BScpIHym033+6pLcNzWKUI4NVTamiCFTq/hgo8Zqucz25uzchYrW2vR2hpHQX581KSnlKt5yk9K2SMlGL0uymrEtyaRCTjlJ2Ze+JHMCNbXPyjgY6dvlbcOCo7Vk3/GhbS9WspGnddR+UTQwf2T084dqtaqvkzF7YDtyAa6o7qXW9LJ8jiXbLHDm9RVLnKZFbs3burihBLnM256pDJcStoK2zi9bNzL5pzAsIjYDTidG6da+skE2CzAsGVamLdFHpWV2+jYdU/AFYRCAa0HHZlqd6i4qsswu7aA2vusikdWK6EyqGkvLAgXLlAsDazixZiZqUXoU53VteH8lqqGMlT2Lb69zDQOpi1J13hd3GbzZWwDhHji++ONnuxRfXn6HGOSzRm2hzi3EZLyMg9hpU7OmJ5ctXbjRqOPLmqzJlHOee3dKuXV5FS5N5VjUla+ImGpuU2JSf321vOqZ9v/vunoIDBz4uERsm2UlrXvvm5eWSgQP7g6R0Mcc2SEr+WKpXQ9bX7t4X5t0aTijZdOCEuEwQcfHGDjgIILJ6mGaSynwZY8pK+tbRjL5D3866cczm5nADp2nLtR/8blzof14fHT598juk+ux1QrJNaDQU0C+xIVJOsu9rkJbBIWN/fdmctQ+3RCelhG7tS3GSUtK3bH1GRXDH2zppMBRr21Zz182M9AeQlIDjiVFx8ap9X31VmclbdOnVZ0uif/8+pLBw3Pf9XrCbttuCBf/xMXeSbHJDN0Ijb8Jp/K2jPrWSokQ4ARerAWPBtGPH9nUvv7w6CxMoq7s3O3nSmbwar2Oh7E0kzcOIJcY5d3ZGTUqvw2Kc4zB+s30B6d76sZf/QIBHyPDLqkDFnp5I1qR0U7/R+plUUhtSdf+5c9VFusfOe5+du9DzGzFi+C/T7R55d9eegv37DpZY5nG2+qR6/QdKSjdx/mTOzp3vcGpS6s2pzNv4Mt27Zm/Z/bVr564WpnoLSCC+YU5y4sJXtxExmabxnUI1nbwe4SmSk1cV7Dv07UDn7x0Pfud7RzO6fPcT+kawmzulJU1Rpt9Rf/Iv19R9sH18+MsT19R/erhf5Dg6cdtJ1B6656vTDqrPCrYNDilYmT2h6Cm3bdFQXNy4dGbdq08/r2ofR0/GJH0KJCXgFrFah4cGqWtSqmX5dNFQVDQ7LQZ0mvJNyV3ek0HVoMtCliJopHp/9dXpTEXKknJS68SoJz0Wyock9XH0zDJAUnoTSSWlVQktJKQlBgxI9/Y22JqUTuO3biwHYovXWOwtJ2ytOKti0jrWJVVwhJgyAyKxF+ne6Qa7cY58Xip5vVmdvHXmJZs2bV1LmNqULhSUjDvydyLzvjFpNe/jp3s7B9y93fflnTvfqq6qqk7G7wDhzKFURpU+Tff+Zvn06tCekhwLwWM0h0uTG2mg4CkAlcpMwXaqmo6c/cZVliTQ8codgW9f/WlG52uO020yrvzeUZknUP0Xf76O/h0+9ede4S8/6xE+/feRNmJXRRrKjPi46lNtAyGLozohROwOHn8t0Lbd0Yw+Q99uSYIy1v+mPRvaU/qgtD3Mg0ly9mXfXvSeCa2X7+qVmX/tnxAaATcTvqRbtXgxJk8vjqFDx/ZkStQ5eojvF+xmksPcdrzUBnE6ktp4g062nl6yoiSgnISrJ6tYQCcnUAmSkvANiOSDdhKxumiUpOyChbIH719RfS9RTVeD1DSno0JJ6W2YSUo38dv8O2KsOva+8MK6apruLYqvPGV7Yq1jUj53jMw3QFKm55yVJIg8seGV7CFjnABPuRrqInJNj6jkZ9Hk5eW1iGt5y7bjnkg7flzC9hGddmS3gZLSXZxP1qS0GtDJ5tS86+M7kjJqmLNy1vHwZ0dEPVArpVa4rax+oGx7XRWhfTR2VqeQRU6erUQkqT4rqSPJsJqS7xLe8KwqVUdZyjPTkZGczDFQk5zggFHbW9/d/DUoLf2v4linS1uWP1a/p/TBqPqCmwJP+NfZdJ62ibH1QxaX8G9trQwgLAJuQOsdvvTS/1mh52YrmhTGQJUNk6Mkpf8X7LGU7yc/tk6G7QSGyFXQ3L4DBlz/0cKFj9+gIlOMJ5GitBVxgXiqOulY9/LLz2ehx4sWyvYyK6JJlTmEQ0npTdgfMljjndXQQ66wg5LS20ga57iL3+Y+AZJSN/YeJrway8m7kb3n7PcpYm96gq1Jyb8f7UQlZ72aciRlnNz5eVXVuSLpGtshBgzol1ZjFM/dW299YwWUlA3qx9VVVVWEL4CR/W19WOU7krLm/bL7a5ZNWZ0ggFSkkAg67tSy/i91uzatgszHJCL3hOpDIldtuk2dtvUfgeFPwOH3iT6jui6y8wyH/xG8eexr2eOLnmopUyEzaB3PiytnfVl/oly/3qTONRH0K6qibbPhE5CUgCvYSUp9NaVTVaDfBmHWHd1emJ2nziHEbG5Df+/QoX3df/6nvVZkXPEX/w558OUrfJLfP23avyPV23rtLCmH7AJHVNeTBeqieRNm4xz503x+OpL5XgZJ6W0YJKXb+A21utPYu756//5DHEMy0cSfEF59bJCU6Ql7ures34jIqOg2KUdSUohTldWqs+SWtvIkm26//Zan+vbtnRZkm7kNjbYQt5c8OwlKSndx3uzu7fQetZYr8BlJ+c3yaV+H3itp40p1yG4jIzjdOHw7NZKxfI7IDXpYFaZmqrBWO7g8Z2Eqs8rdWqedw+F/kNy8M63uWz4ra/Do3anSQamz96VlU3cpz1PUFrz7WFJ2IKN7H3L50rdBUjYTqILu7Nlz+X5ZlFKSsqxsx4rKykrb4otH3CS7qp2YSyclpdF2rOs2bxDWcWicN++nY2+5xZomn1Rr6izg5JNyLJ6TSDrMHpYujkWkhfn3WLo3Ug69hhhJWVrEu2+S11z0tN+avgSS0ttIKindx2+j38DdW714TZKUPJWqOOWbnYdccQVqUqYjZCSlTPVsv8PDW4rmPDgxRQmeqJpSbCDFG69E7RG7b/Lz89PmQbVISamK3+x8Ly8vD0pK9304QVKyBKSsz1rHYOK5fislKUMVx3peXDX7eP2n5VY1okEM6hrasCSSjEBjSSge4cRTJgqJKUcGOvrH3tBt2ONVmd3IUr55ae0ytSWzX1p7MtBn6NuXz3npp6nWQf9ZPO3Z+vfj9ShVhCvnnC1BlNNvjDY1tssYUnAh0g7fQlhsOlCy6C9/+eyWsrIdyyorT2d27NihbvLkn0z0w8J0y5ayIuoqaJ38hJki9vInXgaosiGdSEo6EVqy5NclsrbRTZW/7bahtqf6Gza8smzz5u1F8tCsnpT369/no0ULn7gBdzJvocya5hDhhJZNPYSax7uIuntvLi0KEKtZEluj1Fyf0vqMObkNSEpvw0xSuo3fBvAwSB17k6U27OSBLCOAXVR16NABD4jSEHJ3b9kDWxvJl5JKSmNuuX//wR9HjrnQdj4mlSSvLAkvlhnnO2LErU+lA+EWa78DJc4VYfa+BCWluzgvV1ISojbNib3vKyUldfWuWTZ1tQ6B5koFyUvDjh4Vn1TSqidhqcFo5gnCDTJTSXy303qWOqpN3nE4VW4Kv1usNKWpzYEOV+7IGvfw4qzBY3anWueso/UoV81eH/60fCSXqCZhea3NRD/Qr22aNWl+aatJ88YiLDYuDGKyoqJi8OHDx8bH3JUDUlLJi4ipAV9ZIXLU5BGUyds8YFs0TJnyb2m1YH/iiYUf7t9/eBCrvJINvLxah5T4ZmtGJh3EtSehMZqFIZjh6m2fQCXTvS0tRwKEX89KlN5JzaJ+BTWP55Co9cqkxYmNUcQASeltjBp1V7ih8dsASEqd2EtNyw7L1y2Kew8PiNIXMuMchzUcU3oOT8UD585VF+nHH1FbJOcueXltiydP/re5fu8jVuMcWwtyXKb5cahtXi75wcD+ICldxHmn6d6imO8rkvLixqUlda8+XaBDlCmDmUJhKHVlln1eN+WXY6Di9liVn020riT9WpfYZYlWY78iUyDOfrjnnJN3NPOO6auybrxzWzD/2n+kYueseb9saE3x1F1aZknmxbDKYEjS9tlz183MHjzmBYTFxgmsH320b3JFxd8GHz58dHxl5ZlMc6c2q9Y6dGxfN2Xyv3leTRlz995dKEptVKVHmN+jqa9z5z6QVgO6UdMz2RayOmaE2Amw2N8xdW6yP9G+OGPGw9UaAdwUZu0LbOqAWlT0ACZZnIWyNeXQqqizlj4ghGvyEI7VpISax3vQUSnz5ou89LsYSTkEJKVHQUnKhsZv4zWQlHqxl5KU/FIyASHhYrxvkAwotZGeiJGUdoWhap7Emc+mNElJhRI7d779GM8kiJdBo+YKYnU4Bwzo91u/P1R79909BQcOfFzSGMZDUFK6i/P2dG9C2Fr5AQ2Oy1ck5T/nDQ/Xf3pYvzYifzbKJY0cdXY3Lt+m7cKE6CkYVYpRDZJLebyy3zUn9srvlaswTwWHjH0t88bRW1NRPWnGN8unPRt6r+RB45y411GlbOW9J2hzqixt/YuSXsH8a/+EsNiwycC+fQfv+eyziputJiXyun/9+/cVujJ7acJHSUpVWrf9NTuBQwmboqLZaTWg075TXLxqHy0DwC6meJNE62Is2afoguuWW25KPOU2FK6ivsebgFuUQPGFHFX8FhaOn46FHH+hzPZzMwHJv47WlGAY53gTcndvwon7/Fp5MM7xPth0bzfx2+gXICl1Y+8h2/zB3I5GRoBx6/EfwCH2piPkxjlqBa5XSEpjnDKcvu3z74B0PigqXZEOakqR+ZA4vvPbE+7e7uP8H//4VvW5c+eYGK9SUNrrwfuKpLww+Zpw+NxZ52nSOmYtTtSKDTatIXLHcNn3OiFiNeo/OiIqFTU0LSnoGunqGW3bHc2atmxW9k2pTU5SUFfvbx4Zuj/ya+cG70yz3QPde5M2S9+BaY7LIPrRR/sn0zqTtK+dPn0mk5fyzJnYWNIFvJxKa3ePZlNJeGmvRLh4GzDgejJjxpS0WzQ88cSiD8XktnCCbEO/fn0+WrQoVjvSvk/C6X/qCTlcvWUL5cMNGIxJfKHcHuYNHoTZ3duZq7t9AQiS0tuwG+e4i9/0fRjn6MXe/QcOmVrYTqSIai2DpASWL1+50aoulIkJpPdyypOUMTXlO48RqZu58zR3v6speSSlMn4L0sChpHQX5/np3k6NVXykpEzUozTIHGKkBRAuIWbrsKp6kJzXMgvnzQp+p+fR2m0rFtSfKB+pXOPo1oB0o5DkKDVtclrNfYm2V9ao1DGJUZ0TiSoEo8Y4rSYUPRXs1usfXuiYF19dOrNu05Ln2WtqO3+RolamtBWk0weHFFy4DKY5jgcvmkJBCSD10zR5/SmKDh3a102Z4s20b9oWGzb8V8lXX1XaFubWbsgu4DkF7yP/G9D/+o9mzJgyIt0WDVu3lj20bt1vVvDSF2RPvllVVv9I+xUWjruPToiS9SgDljYW1dLhfWfHju3riooeGIgJlnihTGyO9ea+b08BZ68xFsreRKImpfm+MdVzlc0VWVLz0UcfBknpYRg1KRsav5HurRd7k8Y5ehCtO+gDooULH2/ftWuXs2jZ9IFZSSl2gZfE7+Q8yhN15ZNqSk7GjCA+ieqVG/NHqqYcMWL4L/0aqwySUk5M8shta9u2a5dHBgz4/vf79u2NObTDOG+QlKr6zrH5t/jBgm9IyouvLi2p27SkoFG+RUexmNuOXPZkybdpfcQQNUzZsvyxcPnuB8Pnq5wRUKLvVKnpONtb3bTj/3DqQXLT38OW3Ap12jnv+FkXdZ3ajMzrGd377AgOHLm91aR5q73SKUMVxzt982TBm6T67HVCAtLU/tLry2kj23WIb496lM5ByR8jNVc+aBHlIsV4rX//Ph/NmDHVc+ScWU3kdJFgVjoYMfn224f5wkzIzYD8s8cXnjkdrWEqqmtoJ3UDnJpblPCIX5vNhllTIvWNJA1x2IGdVQHTv2k5AkOZCVivl11JmUzj5i98+KZSICm9iVjsKy1KPswOSNycZYYESPf2OqiSUl2XVi9+Q0npJPZyHgrbYjDPsCy2FWJvesKe7q1yCRbOZz0xXy0vP3L9zp3vWtSUvNrIfleoOYEw3VuQhcRPA4e7d0PiPKuk1KyZatuuW7fvzJ0wYUyxV85dSFJ+s3za16E9pW0U0cmZMQlr5BLv1/TvzJvHrsw2Kf1oum/tf/9uXN0ba2cnyCpT28tUnVrH3Fip3uzcm8jS4OP/qOpjWq6QXjq3TWGa2+5o1sjpqzJv/NE2r6gnk31v+orQnpKHlOZASrUp4ZO8vBshN49kTVs2M/smkJRuF6dG3w8zBBCvPh0v9cgceG+77eZNhYUTPFP7z57qTZgJj/l8rU8XY88i7ATZxIkFaeEcyIMoPTtJ5vL6D/tEPNqG0b83by5TBG6R4UAScPXWWSgTzkSVf614ZSDgMOvlcSCppBS7eltJEmvsi703b95DY2+5BcY5XoU93dt9/H7xRZCUOrGXmpZZxy12gap6QIB073QFX0kprJFmundtZJ5nHqrTGuUVFZ+v4JdBEKW42x+0sLUp/aqmTJKUuunFqEnZ2HGel+4td1a31ns34Bsl5df3XhMm1WftKkAz8WMmj3TcpiXInDR/VmuO2o+qKi+umr0+fOLI9URQn1CoZOSq7+JPbRWp2ML7TZIGLqxNKXLrVtzTlom+5vdGzu0fGd37HGz9wPNTgvneIicpavaWDa1ZU/Q8OX/uOmUY1DYS4lwPQ6UaR3DI2PPZE+bcEOzWC6Y5DkBrvCxY8B8fiwd0fZifvtEJ87Bhgz1D0m3ZUla0fv1vlonVQ6LFmnjBMHnyT9JWUWSkfPMWt2Fu4X/+0+/bbhtK6MCeMHXhPPm1Eyv2SWrHjh3riopmI9WbO4E6GScpy4V9mzuB4qSSYaHsTVCS8rXXSouSRAlfRW+8L4p/FEj39jasSsqGxW+ke6sXr3Z3b2dzZuNhwRUd8YAoHWGQlOpxmyUobf1oS1HRgxM9RPr8nG+iI6Z8AkSeGeBXNaVZSSkyENJc5ZERI4aDpHTXX6urqqoIPzuREF4tYh58Q1LGTHOq5CZCogZRGN2wn6Eqtuzpy4bJ3KajTs+Hdw8n56uukw7AbIq0DnnlxATIKVS1EU1B31k6OLGcZ/zcT2VOmr+o9d3eSe1m8c/Ida7fU/qg7TqxClVTfxTXuCJ8Mp2Tsp9xU8GFy4tQj9INqOpt//5Dg8QqSWvaEeswKevgEyeOSXmiMpqe/LOFZ06fpmnv4to2aie85E+QYjJFjjyF0Azq8k3bu7LyNOfzOuE7dh1pCYKFC5HqLVsoUzUPf7IUFgyxfIfZhQt/hrpoHoO91IXsYZX1vk0+M4Rxjl/itl7tMnX8Bkmpjr0vvLiu+mD0IVzARKbYp7ridNbYdaBj5a9+BdOydEND3L0ZksRT5YlEKcxaHId4nNs0YsStT/lt3q7bVqr+AyWl+zjPN86xrrIDQkVwUhTgC5Iy9Pnxnt88MvS4lks3+7oDQxdjm4wefXe0emDVFFVaMq1VWLO1+LF6WquSuo4zNR8dOXGr3hOZtSRarmHEJbcuIu/7RGnjplmIYYyTPX7OU5n51/7DqzdizftlQ2vWzn0+SkTbZ1j862XchAFF/zTvg90uJ0qSI9W7AQPYkiUrSthJb0OfuBn7u+22oSk9+aGTvDff3FWocipVPaUlJiMdavqycOHjaU2K0XZ9663dhbrtaB6kZUotQojDvgjiRDWBiql5DllqeMoUUjwzKaR7exdikpIwxAixGIbxzMNwr3kbd955V5gQPYGCKn4j3VuOL7442W7Nmg1n3Cgp2e2pcc6iRSAp03GeRRRu16K5OdOHPEVSWtWUYlNP8T3DfxDnRzVlwjhHkV5MJPNvo41/+EMoKV321eqzVVVMeRz+A2DZWOALktLi7K1L9GiThHZCKTikYOVlc176qc4B0/Tv0KlPr6mTOYDzjpf3vulcrCY5LolPqVqS8AlQTSLXdi7xz1FjnIwBI7d7WT1JUbu3bKjF1Z3nhM62o6JtdNs60oak1QOreiHVuyEkxTpTPUa+s6d4kWIa3Ixas8zgdtttwzYVFo5PuRqVbE1O4UTHMribBxIegYP6h7GJ0Z6CJUueLeENyOzEkRBZPS4ecaJ2dDTve80aqujpgsWb8P631qQUGWFYr5P92iHd25tI1KQUxG+9GjexvhAjKVGT0qswlJS8mOw0fsM4Ry/27j9wyEYeKB+MMvMPxN70hJWkdF6myQTPGT3GybcfEw5JK6+fK83g2zRgQL/f+ulBG6ukdDf/hpKyIXHerqSU3asiIyNKUuZ7n6S8uHFpSd3GpLM3t+aiWSGhY05iMo0xd16a6h28Yzq3HqUMdRXHOtV9+PtxoX2vjw6fODLSdm2cxFoJ4Wq70VT7lSgwEx+VEZoyF2/T31H1ZO+hb7eiZkMerD3J4sK8W19PXEcnhkyODI6Yvh5v48xJj5a2vnveWIRC96CFqMvKXl9RWXlGOEEWE5TyiYAxAFJ35dtvv/WpVBn86cI8Mng/VBl1oWYHaydEmfU1muodWSy0T/fFAh2YH3980RmxezyvX4UFNc+YMUswoFsVrTH069cHrt4aC+UkSakqPI+Fst9gV1ISwo+JhIif9MfuXdSk9DZiZTqcl9Tgxe8XXngGpR+UsXddvB4wL41ef76F2JuekCkpxQ/Sufe350hKY+wy16Z0BqFBjK9ML2Xp3rI1Dm+ch7u3uzivSvfWhS+UlBdfXVpStylJUnKJHq4hCdGrW2kmlnLySKv75PUoZaAp4LUf/G5c/f4do+tPlF8f2Xdn7dRzldu2020FJJqo1qRWCqyduPwHyW13JtJms9y2WaohWm/0vZK7IufXSdqWWpNcTj8lAhOieP/Lvm/ZzOzBSPVuBKIirqbkK9b4t1WYW5+Sp8SKGeq0r4ssYH/d0hMAOrE7fPjoeEpQmlWj1gW5nHQVqfmQ6m1tZ5ryzU8zEdcy4/a0sFjZw1ssG2QKVXbBbVh+77/wwrrqgwfL1ZMBxXXBQtmbYElKUfw2Fr12xXmyHyDd29sw0r0tahuX8Rs1KXXmXSxJycZV8XzMfF+i1EZ6orh45eZIH5hgvzfFDxoFIgTPGOeYQQm4ffsP3BOJTxMacbe+UlO6r0lp7VN5eXlQUrqM81x3b0kWmAi+ICn/uXza1/V7StuYXZClRKOMVFIRhTl55LInS74dbIRaihdfXTIztH/H6PCn5f0iX9TJMv/RqXHIHneilTRTvtlthenfAYthD7c+JU9JmZN3NPOO6au8ntptuWYbl86s27F2Nqk+e53UAV2n1qlU/SxI9R5ScOHyOTDMaQxQR+aysjeWmZVv1iexOiYyvEtndy+LTKjrJk/+ycTmngRQN/NNm7atOXDg0CD7ZN9+nvbBxPpaMsYkjYVAipn71PaH1q17ZQWfCJZPiOyGAfp9zHzNsFB2slAmnEUxkahbrdesIxxmPQmRklIUv2UlP0BSehujRt0VZtMk3cZvpHvrxF5DxZ4kkOxtbCcqWWMzkJTpCXVNSnGpBgaeVFLG2mBlpA0ChWxZGme19FmTmNziESNu+6Uf7idaemn//o9LZCWtdObUFFBSuovz8nRvZYovSTrQf+fh8ePHeJuk/Gb5tK9DUZIyfnKKFFtbOjhnIS7q1IGre0dNcxrT8IXWN6z7oGwidQOPfO114eoq8TUTHLOqPqVjIxAViStPlz+V0b3PocyxDy/Ovskf6kmKi68unRn6w9rZketzXYN2JKr7qXKdj/zdat76mVlQUTbqhMdsdqJfmzL5pJYdBGX3mpEC3r37Ve805WSAkpM7d77zGGvkYj0+nXSrJHHDe4+eD1SU1naPkcJGvVMiWGjx47ez2qh2pLppU+otlF2Eb5LMDr2iY0dSVDQbk1iPIUlSOovfvAk2rcc7aNCADc139A2qw9Yo8BMxFEv3VrWrXvzGA6LGiL16bupQsafvnJ2YSEp5iSIpPDtXMub3pHFqcyYwYEA/XzxwEysp5YIMdv6NmpTu4zzSvU1IkJSOCKKAnfSL918uiRknQKmz9+VL3x7VFCcX+vx4p9r/3j4ufOqTXvXlu4eHz529zuYIHj10BZllOl436d4ydWXCEEZ0DLntfKeepKAEZd0ba2dHnbzN7SIyunFCRDLtLUq3pyreb738SQAhsHEH++LiVfuomtIpMSR6n080WRValNy7+ur89yID4Ct5eXl/bYyJNj2Xs2er8vfv//jHhw4dHX/6tDW1m6uMjCsik8dNiMokJ0HVRD4+bdo9nnrK1VyT6GjKN5MqKq+XxL5udpPWd8SDqkt3oRxTUsqU0/Y0X/4E9667Copzc3O/qK6u7pqTm/Nl9bnqb7dt2zb6t/E6/Xmu+lzX3JzcL8+fP/9t8+uin+fOnetq7CcnJyf6Ofan9XOR/ee2leyXfd/6t/n7VMdD//7ud69+16uTd0pSvvZaaZHb+G3uC5Qs6dq1s3AhJFaKEcmCyXqPi8kx8z5UbqX28ySEOCJk4/hoxowpI/xCDsWUlAHBgtVZ/AZJqR972XtKVU+Ql44/ceLoYn7Mi8U2VUyzxUBpjM6J7K9asb/kT3OMNo6D/cnuv7r6vGS/yfe9HHsbj6RUGZyp6qkTTz/Q3bDhlWVnq84VBYjj+C0ErU05YsRwz6spYyTlgRJWgc0bc1XrOygpG4ekFDvNE+H9Sj9z1VU+MM65MPfWcPizI/p7YYggixOzmcDkEH6B7r13tFn6zqimPlGqrgz97c/X1Z/6c6/wqRM9wtRFWqRsNF9sHXdw0XtOTF04+824qWBl1r+M2eyX2pMGLm1cOrOWSfEW1ox02XY672UWzodhThMglqL7f1a4KZyvVsGFiayId3yB+1FkclCRn99tb/v2eRXt2uVVqIhLOghUVVVddfbsufzPPvvrzZHBoGvkv/z9+w8NkjmUihbLfELMrmgwkzb9+/eJLFanjsCizN6fysp2rKisrCTidDYrESkmJAlRpawY/a1Dh/Z1c+c+MBATKvUEylyTkl9/zlkc4Fyx+D7V9dVk+9QxtxKl/lv7HJ8IF08Qeb5t1mP1smo34e7dwPit7hNhbj1LUXF02Xc3dvy29nte3xKf5+LFv/DNws1QUspcX3Xj94svIt1bTVLGlJSyhwFGXGJrw/Luk3SM3+mcMWGkOovn4v5XUlJQUcK+fQfvMZvoOM6Y5HzGa8o1MUkZU1LKH8bJs8igpGwYSXn2bBX3ntSdZ3ixP/JJynm3hsMnjtgboDHclZltKRF3edFLP23Ok6YKy4tPFryplWZsGVMldRF5juBhu5u59T4W7C+n7dGskfetyrzhR9v84NxtxjfLp68IHd51u01Baf5dVt+TUeNGJz8aad02V/nuvUnr2at6BfOv/RNCYFNMfKj6bVehTiqAk8kuu41qItWxY/vo65S4lO33iy9O9Y/8iNbSrKw8rb2IdmqQw1P0xMnVuilT/m0iVHu8Afpk3OX7TKbzT+sQFvGHbMx2SPV2ulA+lAy/7HPJMOEuoHlkMTsJVqvfxKotUXojX2FHOMSjiJB0SrjZ+6H5POnvt98+zPMkZWPHb5G5mLycBtG8Jo0Xv83XUfRwRKx8CPiQpGQJSULcpE9CSalPUqr6NS+O2lVR6Rm/J04c4ys3ZqdzdWJO99YiqePtbt3W8/OlLVvKij7//G/LdMhHbntwtmnbNrf4hz/0dm3KxjLOoW0EJaVbkvKt6qqqas2Hvvx46R8lJUNSahGPzE+bMs6YqTAEUnBIwcrL5jQvSUnx9b3XHEkQZaJz0n3N9DOhKNU1FrLev6eCQ8a+lj1hzuJgN3+Rk9SF/eKqWesj/er6yJ+dtduFt525j5n7FZfsNKX3m/aVdfejpa0mQUXZxJPnnYYSUVXnJhFEpRMkUdqJ/gJIfxFJiKiItnqyQoQTFtExeZmgaA488cSiD+3O8U5ICfFrrIGA0Q+nTf13zz8BT5WFssg5nU/uqBaefJLKdv9y1TumGpime1uHtJIpc+2uurzUdnt6szmm3H47JcUf9GQMWL/+lWVbtmwvStf4LTcGUpGkVEn5pM+VlE6I5eQ2ICndxV57bNVVKqdn/L7ttmFprKR8bmOkfQqdugRz4Pk2pGrK//mfA/ecO1ddpBe/9UDTvr1MgjcOSQklZUPiPL8mpfMHtf5QUvLSvXXIJN00Z9N2ge59drRZ1vTp3iy+Ht/xpIUsE52jNolG5I7UoslBfBtqIJQ9fs7irMGjd/vtBqOp9pfWzH3eRgo7TYtnCG4hSSm7BuFoHVSSPfu5XplQUTb5gG82PdFx+BSlC5prPZpvOlXqn/N0DVMqX/xPvZRF9SSff87haD1NpHmrJ0nr1/9mM611ql5whYncSZhPLpl/79//el/ViWv+hTJfyWO+B8QLafH1UxFNxsKWl74oqpepKv6u/d3KOofyuHHbbTd7lqRUpXv7OX7LjYLCpmmLuIamH9O99dLr5fH7xRefyb3yyi6IwVqxl6tuE/R5UWmK9IzfUFISe7o3t92lY54viN6tW8seqqj42wpRrJYvUcXO5yNG3PqUV2O8UZNS7uytdx9CSekuzjfUOMeI175QUjoyztFvIQvBZKAl0r0p/r9xHb6MHEknu4kNN89BsrY1iLbEjFhMwPHUlbntjgb7Dn07e3zRU35L7aZp9Zc2Fz8WPrJ7OE2tt6e9hzk9kqdC5bW3u5qhgdw8knnHdKgom3Fw27Dhv6LkEptWKyMmHQz+NjJAVAtLNaDqDryybXlGEOLUwViad1HRbNQ91MC9986qjfUjcd0pu/EFkV57URFwWh904cIn4LKuOYGiNSnpQpmvqiGEny4rnvjrKK9ZwkOWzp8cEuQ18eSLEV3ym09wyQgaCr/VpEyH+K1LjIj6sPGWv5WURLB4Vcdv1KRUx162JqUoTsmUxub4lI7xGzUpAwpXa1Ucjb7vizaME0I/j9WmDLvu4yy8rKZklZQ69WN5bQIlpfs++cc/vlV97ly1Ld5ZqRD1w3D/uXvH37c4JKsUgmbCiUccmSftPfo0i3EOi6/HdfiSmElKWXq2LjHGI8pE28dVpFnjHlmcfdMY36knqXt3aN/ro8OfHRkpDGAiAleksJS5sXOuHc+MJzik4MJlc176FsJe8w5w6zf8ZvPpaE1B8URSrjoS1wXTI6D4ab3m7XhF5Y3UIicu0jopoRQdO3asGzNm5FykFOtOpmMu3wl1UsBeR9JONugpeM2g5kuR64JUbwcTKItxjkCxYictrKYO7GRX/vCCrxriL57Dludh4hRsewxiU7Z5tdn00ojtsYDtj14nKWPu3ukTv1ULAp6jvaiP+FNJKV7M68ZvpHvrkZT79x+SGkzJDajk91M6xO+77ipIeyWlU9U6Z3vfEL3UrPGvf624OXJ+E5w9nCTcMSbe7zyrprSne1vHTv59zHeeHjFiOEhKh/jii5Pt3nzznTNWJSVfTS6ej4bjJKUvlJTTq0N7SnK0gpNOijRLQJlIzIzufXZcvvTt5icpjZqUquN3mgIuMssxvRfIzTuaecd0Xxrj0NqTNVuLH6sv3z08fI6md0uUqAKDG1m7SglMXg1UM3LySPb0ZTOzbxrzAsJe8+Ldd/cUvPzyb5OKSi7vr1ZbaEyUhK+zsU60QNZxi+R/l2zxbT+udE4xcjtRWrLk1yXq66+bCsbbLhwljxcu/Nn/6tq1y1m0uv5COWacEyA6pg2iNEAxecQulOX3V0MJQ/E9H2aGHnHKomzRwpJu9G8/KCnTKX4nrzVR9wlhnIr9+7TvlJTsoslpu6AmpbPYe1hBRLJkgUyxnH7xO52VlMXFKzfHyDi92CyeaxFftaEoDV7RBlJQFdsPftD/Fa/NLUU1KZ2StlBSuo/zbLq3ruiCjau+SPe+tHFpSe2rTxco3atFRBKnA4s+Q2sxtkRNym+WT3s29F7JgxbDGwthphF3WEMgkeovycj8I9Cjz8HscY8szhrsT/Vk3RtrZwvJX04fsc7XTanzAU47m6+PbH8CIjOzcF5p67vnj0XIa6mBbk/Bhg1JolKU6iVL93MSmO2EgfN0TX3DDI0jMS0YQFC6XwBbC+oTicpCpZDiKyvg6u12oSwiKc0LQ3XNUJHjs6UGGqdelq6rtLWv2NMZRTUGdWOP2s2WcM/f2yTlK3GSMj3itziGyMg4Xj/1n7v3qFF3hcUPHQPESfwGSakbew8T+wMQa1yTx0iZOtj/8Rs1KcOFsjZUx8EofDVvMhNzOlyGLnnXv//3x95yy5BSr7XFvn0HSmT3te64jpqU7uJ8jKSsIu5MnJJx0hfp3hdfXVJSt2lpAZcI4pBxYbZzctK6RYRVRo++O1rNXjWluRWFVPH3zSM3f6k0bknmpfDPVR6pkvvNoerJaata3z1/td9uoGjtyedmr6//9HA/QlPo2bqeMlKRo6Z03ca8QcLYf2478q2XPwkg3LUszGY6MnWJuMi7aLHKr3fJd5okxInDqGH8QMLEhfmCdduOHdvXjRkzCinersmQpGJLR3UhJr/Fde78RBg090I5mV6rp4IRLXjYWqGyhSdv8SBaKDub1LlTTvCVeYTwDWGS29x++zAfKCn9Hb9FDuXmaaIs7UpE4Po53Vt1n8jiN0hKB7FXUgOUT56ETXdmMm0zHeN3etekTCoGnbYn0588a/wmIYZ+fvZsVZFaoUu032/XLq94xIjhv/RSXOMrKdWZB+w42bZtW/KDH/TH/NpdX+SQlOqHNCx8QVLW7C27v2bplNWu6jCyxJEiPZcamWRPLx7W3K7WoYpjnS6umr0+fCJWM1Fz/aFFkFneN4xxJhQ9Fezmr9Tuukgb1n3w+3GhP6ydHT539joiIqpldT8tvZGjiDRel6TRW1y+Od9D+1gWTfMejDTvVAm4mzZtXRurLygb4PnpR3YHSHl6r0hVp1/8WWdxZa27Yt6/8ZOa5Eye/JOJw4bdVIpe4H6yFEv51iFD9BbJZtBr9PLLz2ehpZ3dz+aalLxFrEpdyCNunC9Qxc7QVvWW3XGaV89Qr++oauyqTViM7fxVk9J/8Zu/f5ObOFP7UpQCayaTjCnO00/72ThHXB9LFb9BUqpjr6gmJXuPqIxz1Cph/8bviRNRk1JepoRwYx7Tzr4jekXkHM/ESdfhnmLAgH5jvbQOEKV7uwGUlO7i/B93vlV9rqratl5m6zszPdUy1/JNuneo4ljPb+YMO24hhozJg45Cjq05KCKhKHLySKv7lg1rifTnSxuXzqzdEU9P5s6FBXUOdeofRpARN8ZpbgK2OXDx1SUzQ/t2JIxxuMRiA6FccMjqUpqQWTi/tPXdcPNOtaD70Uf7J5eV7VhWWVmZqTup1auJZHVOlRVW13GNdfpUn2eY0L9/348KC8fdh8G54f3m8ccXnTFcvvmGFnEygEkVTUwsTa+zixqkertfKCdTDtV1wXhpr/InwGrHWudF7QmRpSLr1E+zL86JlEDjLeb9QlJu3lxa5Nf4zd8/rx4eS1oGJMeR3JcflZTWNEDd9rTG7zVw93YQe60xyOWsOy3jN5SUKiWlPH77yd2bvb8Mp2+3xkK8z1Gnby+pKWMk5YGShjx0oH/n5eWhJqX7flhtNc5xx5/4QkkZ+vx4z4tPFhwPV1fptobazETScJmF82e1vntei6RB/7N42rP175c+qE2Ecd4PE5sz3qmMmwq2tJroP/UkTe2u2VL8WOjw7uEJctdJu/Fqm5rbUKe2p6jfcQhS6uadPaFoYOQ6/AmhLjUHvzfffOexAwcODZLVM7MuHAl3IWpO6VMpCPg1inQc0lSDsVVRQ5V5ffteu9Wrrn6piPXrY/XvVGnbegsf6+Lqf//vn3+/b9/euE4OJ1BJJSVLwIhrnfGe8ooWlUKHYGL9Gpmzq6geoOV9m8rP3kdYEkuV7mR20eUTCLFt/JDu7bf47XQBoK7RxzeL8xdJeVc4OT0LKMgjefx+8cVncq+8sgtISiVJeYgQEtDsn4QQYdxNz/gNd2+DpOSPUTrxO/K6r9K9DZSXH7l+5853HyMWEx35+KADSlR6pc9R49MDBz4uscdv50QZlJTuScqzZ6ts8yKndb59QVJSfH3vNeFw9VmhQ7X2nE/0WdNMLeOmgpWXF73005ZogNq9ZUNrtj2zIJr2rXNuqgaNqicfXpztQ2Oc2r3bh9ZsXb4goZ4UkYuidH+jazhRR+q+xtkmo3sfkjn2Ybh5ewBbt25/KKaqNBRycjLJOljyJtE6KRlEOolXT45laYgk6hKN9O7GB8/lO7loIgIiSDRImeuFItW7YQvlw4IJvEzdxl471UNNu0NtYtEtSFfTSzXlf8ZtSrHOPtn9+M3d2+vx297PnJglhCWkkX2fvjLOoSQlj2xWpJPy4jfSveX44ouT7das2XDGnO7NI/hZVauzmnr+j99QUuooKXnx0nIdfNuGW7aUFX3++d+WOZkHiGvuJ9ursHD8dC/ENz0lpTpTAe7e7ufYf/zjW1ElpY5hoAy+ISn/OW94uP5EudpURiPdVjW2BLr33tF69vPNbp5jgKoDLz43y16fUocgS9bWPBr81+mrsm68c1sw/1p/qSeT9Tuvj/zZWdpGrPIxOSvSX8hZZ1Ou+lq0DuW0ZSAoPRaIaWrFrl17H/rqq8pMUfqfOB2J9/RfNclyYo4hWEQzacWUnBw69F9+PWXKPXDvbjpSbKehvtUnDuyDkPl9OK436HowJCWx3Ivi1FfVoshOYPFIK72U3rhRRGJYEjs+q2sP8uOI/Km2NZ2VhX/SvUWpzt6I3+w0htcHReosvRq5dsWn/5SUfLVb0hxJLy0ZJKVO7F0Xib3ltn6op/gKC+7J9IrfqEnJkpTqWMshpn1LUlLDz50734mrKQXGb5x+qcqyyMvL80S/S9akbFidWQooKV2vjZXp3qoSHRS+ISkvbVxaUrtxSYEDdilOTBHHxjMx85yWqUuZJOKOd7q0pfix8JHdw8PVRo1KTjoxqxDMySMZHa/ckelD9SQlJ0OnPr2mds3c58Pnk20iVEM6UaLyCExZardOv4vfmyAo/TEhOHz42PiYslK3ELtp8mBbeAYsJIGeK6Xu5D62bYcO7etuueWmXw8c2O8VDMLNQYoYbsLqtFBVCmnHjh1IUdFsTJ5cL5Rj5g1GAW9dtaGOAQ17z+nUPlOn44rUQTwiTda/iJC05KuNxOfnZZKSlmDYsmV7kTwup3b81nEpldWVlJ2rVGUZ+d/Ti/1lnKPv1CyP32vWoCalTuxl6wHrxN0koWI3o0m3+O3lUhsNBSUpI21RGGiwj0DYl+neBmi2V0XF5yucPSxTYpMXSkHpGOfY5zd21XS7dqhJ6TbOW0lK2YNgefz2DUkZdfheNnW1FrnUCGjJupTMeQ+t+++yifXlppqLTB1FY3APXN17R3DgyO1ZN/7Id+pJmtpd90HpxNCe0gdt19ymajTFaI1alJIZj1i1yjNhEpDIMMrxByhZuW/fwXs+++yvNx84UD6Iv+BrOJRpG9xUpuTAO2DA9R9dfXX+eyAnm3fStGHDf22OmS6JyAa+w6l5cWYM9NTYaMaMKSOwIHa/UOY5zNpTdglTo9F0nRTp+uLUPUJ4Sjd5SmPAxes8k4+A1DVXbBhin9QPv+3mLUVzHpzoxT5gTvfmq7GcqrCaL37r1xN1riDRcR2m71ElpV9q4RrGOXrXSUYWh8mLMM7Rir2GcY64P+unSKdj/EZNynChTtsr4q2viV56r23atHUtYVSnvJq7emOKd0gjebq3any3PoiiSkrUfXfe91RKSp162PQ6dOv2nbkTJowp9sq5C0nKUMXxnt/MGXqcSxbJiCSOKQrXPIc9kB59d7R+YNWUVDGaoWRl/Rd/vi588pPvhb88cU1UPxgPLhkDR27PuPJ7R4NXfvcTvxnjUETNhMp3DSfnz11n6/hGvoWjNH89Ytv+XRzHeNlnIr8Hbx574bI5L30LYc0/oHWXPvus4ubIIPnjQ3F1ZUCYumOfANsLsBPuZFVnkDX+pvUL+/S5tnTgwP6vdO9+1TtYSDU/nnhi0YeRxdkg3dRBmaoCqd4NXijv3L//0CBxqlNYY+HKc5a1Lnp5xgjOzVF4iwZCVHXa1Oo9ERlgVQgS9gl4/Jz85+4d5lZ/MdRaLRm/k9MLmSrSTCTrqkEJcaIYNeBHd2/98xfHb6R768TedTvND3F591HynhP3QVEmQjrE73RXUhJBTUq74pa5ntZr5/s2jKspB8vay2nNwMhnttB1RCrXro8rKX9MNF3gRW3Trl1eMcQc7uK84TKvzZ8IYqZvlJRRsipel9JGOLJElQaZJCQ3TTPY7Hnrh6VqyjRNffabWpJFzftlQ2ujJkLl/SLXpJMi4jhX0+qoLHVUmcx7Rv8MDhl7PnvCnBvg5O1vULe9ffs+vofWrowp6cSBWfyk3h7c7ZNZ6/YdO7av69v3uq0DBvT7LYjJVOgHR68/e/ZcvnqSqHb7xvVs+CTqxIm/3upkwqpepOqn4eqRQ46n1ULyRH9Rorctfa9Hj6s93QfpQka/XRveZu76i+iT8lT8xujXsuPyk7marB84NZuA6Vzjx96G3I9+jd/pPP7TeRT9mZeX99eqqqqrjNfFf8euE+/9dGhDp+1l9LG8vLaRv8/Z3qevX3lll/NeOO/kuajOlf9+27Ztv+jatctZRG13cV7v/pT/7bX7VEpSfrN8enVoT0mOjRyKfjLA/9shWWVWVWbcPHbl5XNaxuU7nVFXcaxTzZblj9W/XzqB8IxxnMwBnJKXonqfbJ+SEJyBtu1IRp+hUFCmKeii6MyZs/n0Cefhw0fHx0nGTCO+VFaeJldc0TH6k51U01qEX31VGXm/AzE97a+jC9auXb994Oqrr3qP/gcSCwAAAAAAAAAAAACaFlKSsub9svtriuN1KRPZLhI1XHSPDlQH7Hfntjva+smS2zN9rlhMJVzcuHRm6H9eHx3+7MhI3VR+bRLRfH1FBjn8jsL/HA85eSTzjumoQQkkYH7iRJV2lMA03quuru5aVXWua15e2y9yc3O/MF5v1y6vgsamdu3aVqTLE2EAAAAAAAAAAAAASCVIScpQxbGeF/9j7PFwdVXsBQ65xHNOTWwrM1ohfLIzVQx0/A6a2h36sGxi6LDJIMgMNynYbB+R1TG1fcxcW5L5vkRvZfpXbjuSece00tZ3zx+LKwoAAAAAAAAAAAAAAOBdSEnKuopjPWu2LN8X2lPSJmCufC4z0DHeZ19jPiciNQO5eUdb/6Lk9iDUlE2Gi68umRnav2N0+IRJPalDKJqupaV6jImMjr6uSUw6N8w07ZMqKEdOL209CQpKAAAAAAAAAAAAAAAAr0NKUlJc3Li0pO7Vp2OFsDnKSGlRZJ6akiGveJ+HmrJpQM1/Lq6avT584sj1kYbvbCeZicKUUpDyrUrPNpcK4G2nU+eUISizpy+bmX3TmBdwVQEAAAAAAAAAAAAAALwPJUlZu7fs/pq1c1dHU75FKkgRZGSTTGmXk3c0e/qyWdk3pabTt9cgNMaxEI3ETlDqpmvruHbrvhY/poQik3k/OKTgQvaEooFw8AYAAAAAAAAAAAAAAPAPlCQlxYV5t4bDJ46IN9BJ2+WlFUePgP/B4JCClZfB6bvBoLUna7c9syBqjJO4FBoks+z6aBGNAWep3Oz3st8NgxwAAAAAAAAAAAAAAADfQoukvLRxaUktTfkWpN8mSC9RfUNNh+jofowDa9vuaOYd01e1moS0bzcIVRzvdGlL8WP15XFjHJXa0WZuZCaTBYRjYhvCV2Gar6/ob6YPxN4jpvTwAAl0702yxj2C9G4AAAAAAAAAAAAAAACfQoukDH1+vOfFJwuOh8+dldcS5EFEfukc3NW9d7R+8PkpwW69YKLjABdfXTqzfv+O0fUnyvXUk6oaozo1SNnUcaIgP3UQ2TZz0qOlWTfeuSCYfy3SuwEAAAAAAAAAAAAAAHwKLZKS4pvl06tDe0pyEi+YiSgRVG7gxjaSmpVI+9YHrT1Zu/WZBaHDu26Pqie51yNAbASiKAVfh2Bk96kLDbIye+66mdmDoZ4EAAAAAAAAAAAAAADwO7RJSmqgc2nplNXaqkkewWUhyIg4hdiaXnwqs3D+Irh9y0HVk3VvrJ1Nqs9e55gsTPQGUbo3sW6jWVfUVW3KnDySNXJ6aatJqD0JAAAAAAAAAAAAAACQLtAmKSmiBjqflusp5th6hSICk/d74pgCBq95qtW8df9P1mC4fbOo2Rszxqn/tLxfIBDoZGtT3eskek32vux7dEoBMKDO3cEbxsxF7UkAAAAAAAAAAAAAAID0giOSMqamnLqaSMWUaudoi9FO9CjURFYgN+9o1vRls7JBVEZBjXFqP/jduNAf1s4OVzOp3cIUepJUNcqMaxKf09xeRVYqri81xgkOGFmadePoBcH8Xqg9CQAAAAAAAAAAAAAAkGZwRFJSXJh7azh8otxZ/UEWwtqGREqAZXTvs6PV7FVTgvnpbaRTu3f70JptyxeETxwZadQGjfKJsvqRIsWqShFpu3RhI2nf6uguu84SZSbUkwAAAAAAAAAAAAAAAIBjkvLixqUldRuXFHDf5BmvEE1CS4X4Z6OO3w88n7ZE5TfLpz0bOrx7uM0YR5Wi7bi94/+oiE7BdbLsJ2Dfd6BtHsmatmwmyEkAAAAAAAAAAAAAAADAMUlJ8c/iaV/Xv1/axvyaobCL/k7ivJSKKNN1j2ZeC3TvvaP17PQiKmveLxtas3bu8+R8VV7kz87aakiVyQ0vjVuwT26avoYC1vJ3Th4JdOhCWj+wqlcw/1qkdgMAAAAAAAAAAAAAAADuSMqavWX316yZu5qcr3KgqNMjIKVGOqZtaep35tiHF2ff5O8alXUVxzrVbFn+WP37pRMIJSdtzayoAcoqGWXXy6kTN/f7+ORpIDePkPZdSPb4OTOzBo+GehIAAAAAAAAAAAAAAABIwBVJGao41vPSluX7EmrKxiAkZRCr8o5mjZy+qtWkeav9eHEubVw6M7Rvx+j6E+UjtdrLbJBDNMlj3ddFhLHOdc3JI5l3TC/NuvHOBVBPAgAAAAAAAAAAAAAAACxckZQUVE1Zu3bu6vC5s/E9aUrwlOpJQux54xL4kKis3Vs2tGbbMwvI6ZPfSTh36zqhuyCDuWpMt6Qys03GTQUXMm+EMQ4AAAAAAAAAAAAAAAAghmuSkiJqovPq0zETnUBAnXpsgEdKaqoqLd+R/MypjO59DrV6YNWUYDdv16m8+OqSmaE/vDQ7QU46hUrVyqbTx68d+77tWvJqV7L7ZNSWmZMeLW1997yxuM0AAAAAAAAAAAAAAAAAGRpEUlJ8fe81YVJ9lt0tn3hUuUM7Sf+Ofg37eXIq6+75i7yoqqTGOHUlKxbUf3q4X+S8OknPO9a4esY5grbXdlwXpXdLrm1wSMGFrPFzBmYitRsAAAAAAAAAAAAAAADQQINJykTad3WVvkkLEWwjUvk528+pQPfeh7LHPbI4a3Dqm+qEPj/eqWZL8WOhw7uHk/NJ9aShZLQqR+P/SJWSxE4Q69SR1L0upuOL7TL5eqTdSXDAKKgnAQAAAAAAAAAAAAAAAEdoMElJ8c/l076u32OY6JAEUSlN/+aoIRPb6zhNi1KVjRNr2+5oRp+hb2feOGZzKpKV1LU79OHvx9mMceLnFG2LxMkoyEWnhKShpDRtl/g+BXnJ3S4nj2T0HXqh1YSigcFuvaCeBAAAAAAAAAAAAAAAAByhUUjK0OfHe15cOet4+LMjtveERKWAcBOZuCTSk82fNddPjJ4NS1gGSKBt3tGMPsPeDN4wemv2TS1PVoYqjneq/fB340L7Xh8dPnFkpHRjmUt34hyJM9OixJV3oKqUXDOqnswe98jMrMEwxgEAAAAAAAAAAAAAAADcoVFISoravdvvr1lbFE/7FqckW9SSTh2lOSpBVhEo/O6cvKMZHa/8W8bAkdtbt0DNSprWXfvfvxtX98ba2Ym0bpvhTPRF7rlomRKJUr9lbWtuOyfXIoKsSfNLgzfcuQC1JwEAAAAAAAAAAAAAAICGoNFISoqLry4tCf1hbUGUqDSDTd9uiHqPl04ucJcWOIifoi8FhxRsCXT53vGsG+7cFsy/ttEdwWk6Nz22ug9+N66OqiY/LU8a4uia3KicunVfl9X3DCuUmjZyOfJSj96k9eznewXzkdoNAAAAAAAAAAAAAAAANByNSlJSfLN8enVoT0mOo1RkmWpPRdjZUsEJ31lc1AC5eUcDHa78W+Db3T8J3jh6K/1ERpfvfmKkkKsIzCgZGSdg60/+5ZrQ3/50Xf3JT3qF/3GihzSdW6Z6FH4kbE15V7Uvr41Y4tHsFG75LLGRypG2IsF/nQ5jHAAAAAAAAAAAAAAAAKBR0egkZV3FsZ6XVs0+Hj5xRO8DblWVQtIy+oeewQyP8KMmMB2vjO4m49vdfx15MyO+RxLs8r3jdNP6U3/uFftkoD7SfhnhL088GD79d0LOnxPW1EzsX3XOluMiYrd0mXrS/F3MazaiUzOFPDhk7PngjaMfzUbtSQAAAAAAAAAAAAAAAKCR0egkJUUoSlQ+cLz+RHnyRd2U47BDgpH3vgrMto6IO+1UbWJVdDqtFyk6Lo3P2b7DSXp5omfEadjuvUnmwFGlrSZBPQkAAAAAAAAAAAAAAAA0DZqEpKSoeb/s/tqX5iaNdMw1KXnQVRDKPmd7S6Bq1FQPuv48u62oVqZlG2JvHx6Za3zeyXFY9in5HuYnVU9mjX/kBhjjAAAAAAAAAAAAAAAAAE2JJiMpKaJEZckzq6Op37qmL6LUZBWU5jFEWfNRuW8XdSSV+4mfr6WupqhdOJ+1fY79rAuznUD3PiRr3CMzs29CajcAAAAAAAAAAAAAAADQ9GhSkpKCEpU1a+euJudNjt+ydGvO+4ltkoedTGOO/umQfbSkTBNHRju242WOgT2XxHE7IVtF2+vUoRSRvjyDHHbbnDwS7Dv0Qvb4ooFw7gYAAAAAAAAAAAAAAACaC01OUlLU7t1+/6U1RVaikpgIPUXKdvRARdsJiTtiTxlPnLXYNVznmDgHmdyveT/Ma9LPy2p0yvajo7jU+Fzg6t5QTwIAAAAAAAAAAAAAAAAtgmYhKSkoUVmztihWo7IhcFGL0aLCdFHbUpjWzaZbC9PCBUpHXULRfByEWI1zZPsVHTvjZp55x/TSrBvvXBBE7UkAAAAAAAAAAAAAAACgBdBsJCVFzd6y+2vXzuUTlTLyTmo4o1l/0fx5Vbq56LhU78dJy9hXBdSGP+w5qb7TiUu3UHlK/x8/35w8kj19GdSTAAAAAAAAAAAAAAAAQIuiWUlKiihRuS1upkMRTvxjNcthCUoSSJJrBnSdukX7TmxD3BngmH+XkaVKslLsfC6s1ykyzZF9n9EWue1I1sjppa0mzRuLWwAAAAAAAAAAAAAAAABoaTQ7SUkRqjje8+KqWceTRKVEMclCRfhxalZKHbAF+xOqK03b2wx0nDqR24hYIk7T1iFBFccQyM0jGX2GXsieUDQw2A3GOAAAAAAAAAAAAAAAAEBqoEVISoq6imM9a7cu3xfaU9pGuBGPvJSlfov+FryubZKjk1KugswMh5MyHnDzHeznTe2X0aMvCQ4cCfUkAAAAAAAAAAAAAAAAkHJoMZKSgioq6z783eLaHWsLSPVZ01HpKhKJ0NDG2E+SiCR8AxkZmamjshSpP400dgdko83gR6TaZL+X/S6G1A3ePPZC9viigcF8qCcBAAAAAAAAAAAAAACA1EOLkpQGat4vu7/2JcZQR6JYTJB5BgkZ/10buspIDdUkSx5aCUwir3WZIENN2+mQm5rGP4HuvUn2uEdmZg2GMQ4AAAAAAAAAAAAAAACQukgJkpIilv79zIehw7tyyPk4WSmoMemkHqOFxOQpDiUGOkbbWNSN9i9QE4rs51UKSVlaO+84WLIzJ48E+w69cNmcl76FLg4AAAAAAAAAAAAAAACkOlKGpDRw8dWlJXVvrC2IEpW8Oo6JI9cgDJPG4PLUcBURKFVbxvYbI0MZB3KVyzbvPCTErI1wDTCfyckjgQ5dSKsHVvXKzL8Wqd0AAAAAAAAAAAAAAACAJ5ByJCUFTf8Ofbj96aiqktaq1KkbqUM2Wj5HuKSlxUzH0lIcF24R2ShKJ9c09OGmfIeNA+afN03tDg4YVdr6bhjjAAAAAAAAAAAAAAAAAN5CSpKUFNRUp/bD3y2u37ejoP5EOXcbUS1G0wbSVPDENtGWUCgnRa+ZP6siRp0cI0uicsjO6PnntiMZfYdeyLpxzFzUngQAAAAAAAAAAAAAAAC8iJQlKQ0kHMA3LingbqBhbsMlAk2vJfhApwY6MiVlIsec6Jn0aMJMzAau7k2yx8MYBwAAAAAAAAAAAAAAAPA2Up6kNBD6/HjPS5uL99WX727DNdaRqR9106wb+jnjvWjLKvZrbKOj9ox+liSUlZScDP5gVGnrSUjtBgAAAAAAAAAAAAAAALwPz5CUBmr3lt1f+0HZsnD57jbhc2dNZ+JArWiuS0niSkonKdrs+6JUbV3lpIzYNF8sWndy4KjSrBvuXBCEMQ4AAAAAAAAAAAAAAADgE3iOpDRAycq6D8qW1X95ok34xBGr4Y1K/SglGDXfM/+tq6x0k5pOf/ToTTIHjioN3nDnArh2AwAAAAAAAAAAAAAAAH6DZ0lKA3UVx3rWffD7xfX7dxTUf3pYnvIdPWODgCRWtaOu6Y2bupIygpT9TtPxBLr3iSknb/zRgmB+L5CTAAAAAAAAAAAAAAAAgC/heZLSDEsqeHWVvtLRZnpDuAY7iRRxhes2/3vi/8i+i/6am0cy+gw7n3nj6EdhiAMAAAAAAAAAAAAAAACkA3xFUppRY6SDH97dJsot0vqVKmMdhemNUbvS7LDN245o1LdM7CMnL/pWRp+hF4I3jpmbDWISAAAAAAAAAAAAAAAASDP4lqQ0w1y/MvrC6ZMkobSMtkKSoEyY6OgoJJXu4sSmugy0bRf7yg5XRn8GB44szaTp3N2Qzg0AAAAAAAAAAAAAAACkJ9KCpDSD1rAMn/r0ltDf/nxH/ck/3x7+x4k2lEwMnz5JyPmq5IZOU8R52+bkxRq5YxcS+Hb3C3SLzBvHzKXMZUbnHu+iziQAAAAAAAAAAAAAAAAApCFJySJUcbwnlTyGTn56C+UZKXlJX6cEJv27/tSJNgk1JFVg0uY6XxWtHRlF+y6xFPDI/wKdul+gnwl0+d6b9CMZXXu+QfcdIyThyg0AAAAAAAAAAAAAAAAAPKQ9SamDUMWxnoZS0mivQMwanMQtwglISAAAAAAAAAAAAAAAAABwB5CUAAAAAAAAAAAAAAAAAAC0KEBSAgAAAAAAAAAAAAAAAADQogBJCQAAAAAAAAAAAAAAAABAiwIkJQAAAAAAAAAAAAAAAAAALQqQlAAAAAAAAAAAAAAAAAAAtCj+f2XEUjpWZDc4AAAAAElFTkSuQmCC;" vertex="1" parent="1">
          <mxGeometry x="930.82" y="637" width="215.67" height="40" as="geometry" />
        </mxCell>
        <mxCell id="mg7U2W_XjqvAakRdbIDR-10" value="&lt;span style=&quot;font-size: 18px;&quot;&gt;Event Queue&lt;/span&gt;" style="rounded=0;whiteSpace=wrap;html=1;" vertex="1" parent="1">
          <mxGeometry x="220" y="535" width="120" height="60" as="geometry" />
        </mxCell>
        <mxCell id="mg7U2W_XjqvAakRdbIDR-15" value="&lt;font style=&quot;font-size: 29px;&quot;&gt;Message Broker&lt;/font&gt;" style="text;html=1;align=center;verticalAlign=middle;resizable=0;points=[];autosize=1;strokeColor=none;fillColor=none;" vertex="1" parent="1">
          <mxGeometry x="165" y="640" width="230" height="50" as="geometry" />
        </mxCell>
        <mxCell id="XwiI5Nu4jvqrMpeIoe5H-29" style="edgeStyle=orthogonalEdgeStyle;rounded=0;orthogonalLoop=1;jettySize=auto;html=1;exitX=1;exitY=0.5;exitDx=0;exitDy=0;entryX=0;entryY=0.5;entryDx=0;entryDy=0;" parent="1" source="XwiI5Nu4jvqrMpeIoe5H-9" target="mg7U2W_XjqvAakRdbIDR-10" edge="1">
          <mxGeometry relative="1" as="geometry">
            <Array as="points">
              <mxPoint x="55" y="565" />
            </Array>
          </mxGeometry>
        </mxCell>
        <mxCell id="mg7U2W_XjqvAakRdbIDR-17" style="edgeStyle=orthogonalEdgeStyle;rounded=0;orthogonalLoop=1;jettySize=auto;html=1;exitX=0;exitY=0.25;exitDx=0;exitDy=0;entryX=0.983;entryY=0.4;entryDx=0;entryDy=0;entryPerimeter=0;" edge="1" parent="1">
          <mxGeometry relative="1" as="geometry">
            <mxPoint x="465" y="562.75" as="sourcePoint" />
            <mxPoint x="337.96000000000004" y="563" as="targetPoint" />
          </mxGeometry>
        </mxCell>
        <mxCell id="mg7U2W_XjqvAakRdbIDR-19" value="" style="shape=image;verticalLabelPosition=bottom;labelBackgroundColor=default;verticalAlign=top;aspect=fixed;imageAspect=0;image=https://images.g2crowd.com/uploads/product/image/social_landscape/social_landscape_cee19035e959576dd35e1ad8c03f4a97/cockroachdb.png;" vertex="1" parent="1">
          <mxGeometry x="759.05" y="983.5" width="380.95" height="200" as="geometry" />
        </mxCell>
        <mxCell id="mg7U2W_XjqvAakRdbIDR-25" style="edgeStyle=orthogonalEdgeStyle;rounded=0;orthogonalLoop=1;jettySize=auto;html=1;exitX=1;exitY=0.5;exitDx=0;exitDy=0;entryX=0;entryY=0.75;entryDx=0;entryDy=0;" edge="1" parent="1" source="mg7U2W_XjqvAakRdbIDR-21" target="-VPckBxZcLtFVedRlmlY-8">
          <mxGeometry relative="1" as="geometry" />
        </mxCell>
        <mxCell id="mg7U2W_XjqvAakRdbIDR-21" value="&lt;span style=&quot;font-size: 24px;&quot;&gt;Publisher&lt;/span&gt;" style="rounded=0;whiteSpace=wrap;html=1;" vertex="1" parent="1">
          <mxGeometry x="675" y="585" width="140" height="45" as="geometry" />
        </mxCell>
        <mxCell id="mg7U2W_XjqvAakRdbIDR-26" style="edgeStyle=orthogonalEdgeStyle;rounded=0;orthogonalLoop=1;jettySize=auto;html=1;exitX=0;exitY=0.5;exitDx=0;exitDy=0;entryX=0.531;entryY=0.016;entryDx=0;entryDy=0;entryPerimeter=0;" edge="1" parent="1" source="mg7U2W_XjqvAakRdbIDR-21" target="XwiI5Nu4jvqrMpeIoe5H-24">
          <mxGeometry relative="1" as="geometry" />
        </mxCell>
        <mxCell id="mg7U2W_XjqvAakRdbIDR-30" style="edgeStyle=orthogonalEdgeStyle;rounded=0;orthogonalLoop=1;jettySize=auto;html=1;exitX=1;exitY=0.5;exitDx=0;exitDy=0;entryX=0;entryY=0.5;entryDx=0;entryDy=0;" edge="1" parent="1" source="mg7U2W_XjqvAakRdbIDR-28" target="mg7U2W_XjqvAakRdbIDR-29">
          <mxGeometry relative="1" as="geometry" />
        </mxCell>
        <mxCell id="mg7U2W_XjqvAakRdbIDR-28" value="&lt;font style=&quot;font-size: 20px;&quot;&gt;Banking&lt;/font&gt;" style="rounded=0;whiteSpace=wrap;html=1;" vertex="1" parent="1">
          <mxGeometry x="666.99" y="756" width="111.01" height="50" as="geometry" />
        </mxCell>
        <mxCell id="mg7U2W_XjqvAakRdbIDR-29" value="&lt;span style=&quot;font-size: 25px;&quot;&gt;Bank Account&lt;br&gt;&amp;nbsp;API&lt;/span&gt;" style="rounded=0;whiteSpace=wrap;html=1;" vertex="1" parent="1">
          <mxGeometry x="939.5" y="731" width="201.01" height="100" as="geometry" />
        </mxCell>
      </root>
    </mxGraphModel>
  </diagram>
</mxfile>
